<svg width="687" height="441" viewBox="0 0 687 441" fill="none" xmlns="http://www.w3.org/2000/svg">
<g clip-path="url(#clip0_231_1172)">
<path d="M525.772 332.872C554.565 260.887 545.855 180.507 508.72 118.774L119.992 172.598L492.517 94.9615C335.513 -100.824 29.9283 29.0382 59.3852 276.231L525.772 332.872Z" fill="#E6E6E6"/>
<path d="M542.916 253.299H47.6705V407.515H542.916V253.299Z" fill="#A55AD9"/>
<path d="M185.789 234.492C190.233 237.943 191.858 239.057 192.804 238.916C238.65 252.266 198.459 267.912 176.183 241.354L185.789 234.492Z" fill="#FFB8B8"/>
<path d="M34.506 375.543V406.888L57.0737 405.634L50.8053 373.036L34.506 375.543Z" fill="#FFB8B8"/>
<path d="M159.884 375.543V406.888L137.316 405.634L143.585 373.036L159.884 375.543Z" fill="#FFB8B8"/>
<path d="M90.9261 213.805L124.778 212.551C202.871 294.42 173.338 275.748 171.168 388.081L129.793 375.543L138.57 297.809C138.574 297.806 140.885 296.265 138.964 296.23C126.952 300.358 118.188 249.247 92.1798 255.18C62.5843 253.764 57.7663 297.668 45.7898 297.809L54.5663 375.543L13.1914 388.081C8.55893 264.638 -14.1451 292.524 59.5815 212.551L90.9261 213.805Z" fill="#2F2E41"/>
<path d="M40.7747 396.858C40.7747 396.858 35.7596 386.827 29.4906 391.842C23.2217 396.858 8.17628 411.903 8.17628 411.903C8.17628 411.903 -28.1835 428.202 -5.61535 438.233C16.9528 448.263 35.7596 424.441 35.7596 424.441C57.2554 419.958 69.6543 417.089 58.2547 393.641C51.7827 396.442 42.6238 399.684 40.7747 396.858Z" fill="#2F2E41"/>
<path d="M153.615 396.858C153.615 396.858 158.63 386.827 164.899 391.842C171.168 396.858 186.214 411.903 186.214 411.903C186.214 411.903 222.573 428.202 200.005 438.233C177.437 448.263 158.63 424.441 158.63 424.441C137.135 419.958 124.736 417.089 136.135 393.641C142.607 396.442 151.766 399.684 153.615 396.858Z" fill="#2F2E41"/>
<path d="M124.778 72.1273C122.914 103.339 80.3163 100.591 79.6422 72.1271C81.5068 40.9155 124.104 43.6634 124.778 72.1273Z" fill="#FFB8B8"/>
<path d="M92.1799 88.4265C103.148 121.577 77.2526 103.529 113.494 129.801L127.286 102.218C127.286 102.218 117.256 98.4568 118.509 84.6652L92.1799 88.4265Z" fill="#FFB8B8"/>
<path d="M159.884 107.233L122.509 98.7024C123.561 121.238 99.5107 116.703 95.3143 105.366L59.5815 126.04C74.5796 181.9 70.7785 184.204 50.805 220.074C43.1823 227.035 54.5822 231.024 64.5065 227.215C72.076 222.543 75.9201 218.392 84.0309 219.448C122.357 227.428 154.262 229.312 159.311 226.194C161.118 223.608 159.259 107.682 159.884 107.233Z" fill="#575A89"/>
<path d="M149.854 109.741C151.108 109.741 157.566 106.704 157.566 106.704C176.356 106.387 188.966 232.78 189.975 236.373L177.437 245.15L157.377 193.744L149.854 109.741Z" fill="#575A89"/>
<path d="M62.089 256.434C62.7301 261.166 63.821 314.304 82.8564 289.482C85.3538 271.372 76.863 265.966 74.6268 253.926L62.089 256.434Z" fill="#FFB8B8"/>
<path d="M67.1042 126.04L63.2626 123.91C52.9634 123.572 56.2093 150.834 51.8519 170.8C48.2922 194.059 49.3057 219.705 53.4822 253.994C53.8474 266.576 76.3838 258.649 79.642 257.687C79.642 257.687 72.1193 206.282 75.8807 197.506C79.642 188.729 67.1042 126.04 67.1042 126.04Z" fill="#575A89"/>
<path d="M123.792 50.2494C120.31 44.5954 114.86 40.429 108.491 38.5521L103.813 42.2946L105.632 37.9295C104.102 37.6961 102.554 37.6066 101.008 37.6622L96.7987 43.074L98.5408 37.8476C80.4795 39.7869 69.7935 60.5206 79.1701 75.0316C80.6165 70.5866 82.372 66.4158 83.8185 61.9708C84.9552 62.1257 86.1074 62.1314 87.2456 61.9875L89.0054 57.8814L89.4969 61.8138C94.9512 61.3386 103.041 60.2953 108.212 59.3394L107.709 56.3227L110.718 58.8296C112.302 58.4648 113.243 58.1342 113.165 57.8814C117.011 64.0811 120.821 68.041 124.667 74.2408C126.126 65.4958 128.704 58.2268 123.792 50.2494Z" fill="#2F2E41"/>
<path d="M513.273 271.902H403.899V323.785H513.273V271.902Z" fill="white"/>
<path d="M492.59 282.77H424.582V288.991H492.59V282.77Z" fill="#E6E6E6"/>
<path d="M492.59 294.733H424.582V300.954H492.59V294.733Z" fill="#E6E6E6"/>
<path d="M492.59 306.697H424.582V312.918H492.59V306.697Z" fill="#E6E6E6"/>
<path d="M308.652 284.226L305.094 278.065L301.537 271.902L297.979 278.065L294.421 284.226H298.244V302.07H304.829V284.226H308.652Z" fill="white"/>
<path d="M549.721 411.193C565.899 411.193 579.015 398.077 579.015 381.898C579.015 365.719 565.899 352.604 549.721 352.604C533.542 352.604 520.426 365.719 520.426 381.898C520.426 398.077 533.542 411.193 549.721 411.193Z" fill="#3F3D56"/>
<path d="M555.047 394.881C562.217 394.881 568.03 389.069 568.03 381.898C568.03 374.728 562.217 368.916 555.047 368.916C547.877 368.916 542.064 374.728 542.064 381.898C542.064 389.069 547.877 394.881 555.047 394.881Z" fill="#E6E6E6"/>
<path d="M531.245 402.371L595.161 429.003L593.163 435.328L556.378 431.166L494.127 403.536L528.748 407.531L531.245 402.371Z" fill="#3F3D56"/>
<path d="M587.743 427.803L667.236 167.04L686.594 132.662L686.662 132.33C686.725 132.027 688.146 124.841 684.65 119.637C683.768 118.344 682.63 117.246 681.306 116.412C679.981 115.577 678.499 115.025 676.952 114.788C666.268 112.785 642.366 111.798 641.354 111.757L641.163 111.749L640.974 111.775C640.321 111.864 625.046 114.097 621.592 127.436L604.974 157.682L604.908 157.897L529.674 405.237L533.815 406.496L608.983 159.372L625.658 129.024L625.725 128.745C628.167 118.707 639.84 116.359 641.393 116.09C643.835 116.194 666.3 117.194 676.154 119.042C677.133 119.175 678.073 119.51 678.915 120.026C679.758 120.541 680.484 121.226 681.048 122.037C683.203 125.227 682.663 129.925 682.474 131.159L663.234 165.327L663.165 165.552L583.603 426.541L587.743 427.803Z" fill="#3F3D56"/>
<path d="M599.366 182.689L598.596 186.948L656.008 197.317L656.777 193.058L599.366 182.689Z" fill="#3F3D56"/>
<path d="M588.644 218.106L587.778 222.347L644.78 233.98L645.646 229.74L588.644 218.106Z" fill="#3F3D56"/>
<path d="M569.551 281.448L568.361 285.609L624.013 301.533L625.203 297.372L569.551 281.448Z" fill="#3F3D56"/>
<path d="M607.188 404.22L608.766 400.19L554.749 379.038L552.096 350.318L602.513 369.149L618.846 392.782L622.407 390.322L605.3 365.57L547.153 343.851L550.685 382.095L607.188 404.22Z" fill="#3F3D56"/>
<path d="M625.953 439.156C642.132 439.156 655.248 426.04 655.248 409.861C655.248 393.682 642.132 380.567 625.953 380.567C609.774 380.567 596.658 393.682 596.658 409.861C596.658 426.04 609.774 439.156 625.953 439.156Z" fill="#3F3D56"/>
<path d="M633.61 424.176C640.78 424.176 646.593 418.363 646.593 411.193C646.593 404.023 640.78 398.21 633.61 398.21C626.44 398.21 620.627 404.023 620.627 411.193C620.627 418.363 626.44 424.176 633.61 424.176Z" fill="#E6E6E6"/>
</g>
<defs>
<clipPath id="clip0_231_1172">
<rect width="700" height="440.697" fill="white" transform="translate(-13)"/>
</clipPath>
</defs>
</svg>
