<svg width="483" height="207" viewBox="0 0 483 207" fill="none" xmlns="http://www.w3.org/2000/svg">
<path d="M184.863 137.036L186.27 174.64H182.845V178.897H192.418V174.64H189.626L189.825 137.036H184.863Z" fill="#3F3D56"/>
<path d="M181.169 168.609C182.626 168.609 183.807 169.8 183.807 171.27V182.267C183.807 183.736 182.626 184.928 181.169 184.928C179.712 184.928 178.531 183.736 178.531 182.267V171.27C178.531 169.8 179.712 168.609 181.169 168.609Z" fill="#3F3D56"/>
<path d="M194.537 168.609C195.994 168.609 197.175 169.8 197.175 171.27V182.267C197.175 183.736 195.994 184.928 194.537 184.928C193.08 184.928 191.898 183.736 191.898 182.267V171.27C191.898 169.8 193.08 168.609 194.537 168.609Z" fill="#3F3D56"/>
<path d="M215.996 113.607L161.821 111.124L170.264 107.221L217.755 107.931L215.996 113.607Z" fill="#A55AD9"/>
<path d="M0 119.121L6.54264 116.638L209.664 121.959L218.106 118.057L214.589 142.18L53.2406 124.842L0 119.121Z" fill="#A55AD9"/>
<path d="M52.24 133.134L53.2406 124.842L214.588 142.18L213.709 154.419L52.24 133.134Z" fill="#3F3D56"/>
<path d="M160.765 157.612C169.994 157.612 177.475 149.591 177.475 139.697C177.475 129.803 169.994 121.782 160.765 121.782C151.537 121.782 144.056 129.803 144.056 139.697C144.056 149.591 151.537 157.612 160.765 157.612Z" fill="#3F3D56"/>
<path d="M160.765 148.92C167.565 148.92 173.078 143.361 173.078 136.504C173.078 129.647 167.565 124.088 160.765 124.088C153.966 124.088 148.453 129.647 148.453 136.504C148.453 143.361 153.966 148.92 160.765 148.92Z" fill="#A55AD9"/>
<path d="M298.137 137.036L296.73 174.64H300.155V178.897H290.582V174.64H293.374L293.175 137.036H298.137Z" fill="#3F3D56"/>
<path d="M301.831 168.609H301.831C300.374 168.609 299.193 169.8 299.193 171.27V182.267C299.193 183.736 300.374 184.928 301.831 184.928H301.831C303.288 184.928 304.469 183.736 304.469 182.267V171.27C304.469 169.8 303.288 168.609 301.831 168.609Z" fill="#3F3D56"/>
<path d="M288.463 168.609H288.463C287.006 168.609 285.825 169.8 285.825 171.27V182.267C285.825 183.736 287.006 184.928 288.463 184.928H288.463C289.92 184.928 291.102 183.736 291.102 182.267V171.27C291.102 169.8 289.92 168.609 288.463 168.609Z" fill="#3F3D56"/>
<path d="M267.004 113.607L321.179 111.124L312.736 107.221L265.245 107.931L267.004 113.607Z" fill="#A55AD9"/>
<path d="M247.614 105.964L245.151 51.3322L241.282 59.8463L241.985 107.738L247.614 105.964Z" fill="#A55AD9"/>
<path d="M483 119.121L476.457 116.638L273.336 121.959L264.894 118.057L268.411 142.18L429.759 124.842L483 119.121Z" fill="#A55AD9"/>
<path d="M430.76 133.134L429.759 124.842L268.411 142.18L269.291 154.419L430.76 133.134Z" fill="#3F3D56"/>
<path d="M322.235 157.612C331.463 157.612 338.944 149.591 338.944 139.697C338.944 129.803 331.463 121.782 322.235 121.782C313.006 121.782 305.525 129.803 305.525 139.697C305.525 149.591 313.006 157.612 322.235 157.612Z" fill="#3F3D56"/>
<path d="M322.235 148.92C329.035 148.92 334.547 143.361 334.547 136.504C334.547 129.647 329.035 124.088 322.235 124.088C315.435 124.088 309.922 129.647 309.922 136.504C309.922 143.361 315.435 148.92 322.235 148.92Z" fill="#A55AD9"/>
<path d="M272.193 106.802L271.395 112.736L270.98 144.678C270.948 147.054 270.663 149.403 270.128 151.68C268.587 158.314 264.989 164.349 259.673 168.723C254.85 172.696 248.272 175.704 239.565 175.172C216.347 173.753 214.297 153.827 214.297 153.827L215.172 117.692L215.292 112.736L216.347 103.794C216.347 103.794 219.162 78.6062 245.194 79.3157C271.226 80.0252 272.193 106.802 272.193 106.802Z" fill="#A55AD9"/>
<path d="M221.976 98.4723L227.253 89.9582L233.937 87.8297H256.803L262.431 89.9582L267.539 98.4723L258.21 94.2152H232.039L221.976 98.4723Z" fill="#E6E6E6"/>
<path d="M241.327 159.683L242.23 183.806H240.032V186.537H246.173V183.806H244.382L244.51 159.683H241.327Z" fill="#3F3D56"/>
<path d="M238.957 179.937C239.892 179.937 240.65 180.701 240.65 181.644V188.699C240.65 189.641 239.892 190.406 238.957 190.406C238.023 190.406 237.265 189.641 237.265 188.699V181.644C237.265 180.701 238.023 179.937 238.957 179.937Z" fill="#3F3D56"/>
<path d="M247.533 179.937C248.468 179.937 249.225 180.701 249.225 181.644V188.699C249.225 189.641 248.468 190.406 247.533 190.406C246.598 190.406 245.84 189.641 245.84 188.699V181.644C245.84 180.701 246.598 179.937 247.533 179.937Z" fill="#3F3D56"/>
<path d="M234.778 82.6008L229.918 100.246L230.855 100.509L235.715 82.8631L234.778 82.6008Z" fill="#A55AD9"/>
<path d="M256.817 85.416L255.863 85.6051L259.365 103.575L260.319 103.386L256.817 85.416Z" fill="#A55AD9"/>
</svg>
