<svg width="600" height="492" viewBox="0 0 600 492" fill="none" xmlns="http://www.w3.org/2000/svg">
<g clip-path="url(#clip0_237_605)">
<path d="M446.443 385.39H260.408C257.438 385.387 254.59 384.205 252.49 382.105C250.39 380.005 249.208 377.157 249.205 374.187V240.432C249.208 237.462 250.39 234.615 252.49 232.515C254.59 230.414 257.438 229.233 260.408 229.23H446.443C449.413 229.233 452.26 230.414 454.36 232.515C456.46 234.615 457.642 237.462 457.645 240.432V374.187C457.642 377.157 456.46 380.005 454.36 382.105C452.26 384.205 449.413 385.387 446.443 385.39Z" fill="#E6E6E6"/>
<path d="M263.847 376.46H443.004C444.444 376.46 445.826 375.887 446.844 374.869C447.863 373.85 448.435 372.469 448.435 371.028V243.592C448.435 242.151 447.863 240.769 446.844 239.751C445.826 238.732 444.444 238.16 443.004 238.16H263.847C262.406 238.16 261.025 238.732 260.006 239.751C258.987 240.769 258.415 242.151 258.415 243.592V371.028C258.415 372.469 258.987 373.85 260.006 374.869C261.025 375.887 262.406 376.46 263.847 376.46Z" fill="white"/>
<path d="M197.237 205.822H11.2028C8.23266 205.819 5.38513 204.638 3.28493 202.538C1.18472 200.437 0.00335506 197.59 0 194.62V60.8651C0.00335327 57.8949 1.18472 55.0474 3.28493 52.9472C5.38513 50.847 8.23266 49.6656 11.2028 49.6623H197.237C200.207 49.6656 203.055 50.847 205.155 52.9472C207.255 55.0474 208.437 57.8949 208.44 60.8651V194.62C208.437 197.59 207.255 200.437 205.155 202.538C203.055 204.638 200.207 205.819 197.237 205.822Z" fill="#E6E6E6"/>
<path d="M14.6416 196.892H193.798C195.239 196.892 196.621 196.32 197.639 195.301C198.658 194.283 199.23 192.901 199.23 191.461V64.0241C199.23 62.5835 198.658 61.202 197.639 60.1833C196.621 59.1647 195.239 58.5924 193.798 58.5924H14.6416C13.2011 58.5924 11.8195 59.1647 10.8009 60.1833C9.78222 61.202 9.20996 62.5835 9.20996 64.0241V191.461C9.20996 192.901 9.78222 194.283 10.8009 195.301C11.8195 196.32 13.2011 196.892 14.6416 196.892Z" fill="white"/>
<path d="M421.648 277.757H307.209C306.672 277.757 306.141 277.863 305.645 278.068C305.149 278.273 304.699 278.574 304.319 278.954C303.94 279.333 303.639 279.784 303.433 280.28C303.228 280.776 303.122 281.307 303.122 281.844C303.122 282.381 303.228 282.912 303.433 283.408C303.639 283.904 303.94 284.354 304.319 284.734C304.699 285.113 305.149 285.415 305.645 285.62C306.141 285.825 306.672 285.931 307.209 285.931H421.648C422.732 285.931 423.772 285.5 424.538 284.734C425.305 283.967 425.735 282.928 425.735 281.844C425.735 280.76 425.305 279.72 424.538 278.954C423.772 278.187 422.732 277.757 421.648 277.757Z" fill="#E6E6E6"/>
<path d="M307.209 302.908C306.672 302.908 306.141 303.014 305.645 303.219C305.149 303.425 304.699 303.726 304.319 304.105C303.94 304.485 303.639 304.935 303.433 305.431C303.228 305.927 303.122 306.459 303.122 306.995C303.122 307.532 303.228 308.064 303.433 308.559C303.639 309.055 303.94 309.506 304.319 309.885C304.699 310.265 305.149 310.566 305.645 310.771C306.141 310.977 306.672 311.082 307.209 311.082H421.648C422.732 311.082 423.772 310.652 424.538 309.885C425.305 309.119 425.735 308.079 425.735 306.995C425.735 305.911 425.305 304.872 424.538 304.105C423.772 303.339 422.732 302.908 421.648 302.908H307.209Z" fill="#E6E6E6"/>
<path d="M307.209 328.06C306.125 328.06 305.086 328.49 304.319 329.257C303.553 330.023 303.122 331.063 303.122 332.147C303.122 333.231 303.553 334.27 304.319 335.037C305.086 335.803 306.125 336.234 307.209 336.234H421.648C422.732 336.234 423.772 335.803 424.538 335.037C425.305 334.27 425.735 333.231 425.735 332.147C425.735 331.063 425.305 330.023 424.538 329.257C423.772 328.49 422.732 328.06 421.648 328.06H307.209Z" fill="#E6E6E6"/>
<path d="M285.517 287.189C288.295 287.189 290.547 284.936 290.547 282.158C290.547 279.38 288.295 277.128 285.517 277.128C282.738 277.128 280.486 279.38 280.486 282.158C280.486 284.936 282.738 287.189 285.517 287.189Z" fill="#A55AD9"/>
<path d="M285.517 312.34C288.295 312.34 290.547 310.088 290.547 307.31C290.547 304.532 288.295 302.279 285.517 302.279C282.738 302.279 280.486 304.532 280.486 307.31C280.486 310.088 282.738 312.34 285.517 312.34Z" fill="#E6E6E6"/>
<path d="M285.517 337.491C288.295 337.491 290.547 335.239 290.547 332.461C290.547 329.683 288.295 327.431 285.517 327.431C282.738 327.431 280.486 329.683 280.486 332.461C280.486 335.239 282.738 337.491 285.517 337.491Z" fill="#E6E6E6"/>
<path d="M376.062 281.844C376.062 282.381 375.956 282.912 375.751 283.408C375.545 283.904 375.244 284.354 374.865 284.734C374.485 285.113 374.035 285.415 373.539 285.62C373.043 285.825 372.512 285.931 371.975 285.931H307.357C306.348 285.946 305.367 285.595 304.595 284.944C303.824 284.293 303.313 283.385 303.158 282.387C303.082 281.81 303.13 281.223 303.298 280.665C303.467 280.108 303.753 279.593 304.136 279.155C304.52 278.717 304.992 278.365 305.522 278.124C306.052 277.883 306.628 277.758 307.21 277.757H371.975C373.059 277.757 374.098 278.187 374.865 278.954C375.631 279.72 376.062 280.76 376.062 281.844Z" fill="#A55AD9"/>
<path d="M353.426 212.049C362.455 212.049 369.774 204.729 369.774 195.7C369.774 186.671 362.455 179.352 353.426 179.352C344.397 179.352 337.077 186.671 337.077 195.7C337.077 204.729 344.397 212.049 353.426 212.049Z" fill="#E6E6E6"/>
<path d="M361.494 197.01C362.217 192.554 359.19 188.355 354.734 187.632C350.278 186.909 346.079 189.935 345.356 194.391C344.633 198.847 347.659 203.046 352.116 203.769C356.572 204.492 360.77 201.466 361.494 197.01Z" fill="white"/>
<path d="M27.8854 123.859C26.8111 123.859 25.7809 124.286 25.0213 125.045C24.2617 125.805 23.835 126.835 23.835 127.909C23.835 128.983 24.2617 130.014 25.0213 130.773C25.7809 131.533 26.8111 131.96 27.8854 131.96H180.555C181.629 131.96 182.659 131.533 183.419 130.773C184.178 130.014 184.605 128.983 184.605 127.909C184.605 126.835 184.178 125.805 183.419 125.045C182.659 124.286 181.629 123.859 180.555 123.859H27.8854Z" fill="#E6E6E6"/>
<path d="M27.8854 148.784C26.8111 148.784 25.7809 149.211 25.0213 149.971C24.2617 150.73 23.835 151.761 23.835 152.835C23.835 153.909 24.2617 154.939 25.0213 155.699C25.7809 156.458 26.8111 156.885 27.8854 156.885H180.555C181.629 156.885 182.659 156.458 183.419 155.699C184.178 154.939 184.605 153.909 184.605 152.835C184.605 151.761 184.178 150.73 183.419 149.971C182.659 149.211 181.629 148.784 180.555 148.784H27.8854Z" fill="#E6E6E6"/>
<path d="M96.1188 174.956C95.0446 174.956 94.0143 175.383 93.2547 176.143C92.4951 176.902 92.0684 177.932 92.0684 179.007C92.0684 180.081 92.4951 181.111 93.2547 181.871C94.0143 182.63 95.0446 183.057 96.1188 183.057H112.32C113.395 183.057 114.425 182.63 115.184 181.871C115.944 181.111 116.371 180.081 116.371 179.007C116.371 177.932 115.944 176.902 115.184 176.143C114.425 175.383 113.395 174.956 112.32 174.956H96.1188Z" fill="#A55AD9"/>
<path d="M82.5099 72.4276C82.1795 72.4279 81.8627 72.5593 81.6291 72.793C81.3954 73.0266 81.264 73.3434 81.2637 73.6738V105.311C81.264 105.641 81.3954 105.958 81.6291 106.192C81.8627 106.425 82.1795 106.557 82.5099 106.557H125.93C126.261 106.557 126.577 106.425 126.811 106.192C127.045 105.958 127.176 105.641 127.176 105.311V73.6738C127.176 73.3434 127.045 73.0266 126.811 72.7929C126.577 72.5593 126.261 72.4279 125.93 72.4276L82.5099 72.4276Z" fill="#A55AD9"/>
<path d="M104.22 92.8478C108.005 92.8478 111.074 89.779 111.074 85.9933C111.074 82.2076 108.005 79.1388 104.22 79.1388C100.434 79.1388 97.3652 82.2076 97.3652 85.9933C97.3652 89.779 100.434 92.8478 104.22 92.8478Z" fill="white"/>
<path d="M115.437 103.441C115.439 104.525 115.183 105.593 114.689 106.557H93.7515C93.218 105.512 92.9616 104.347 93.0071 103.175C93.0526 102.002 93.3983 100.861 94.0111 99.8607C94.624 98.8601 95.4835 98.0336 96.5073 97.4603C97.5311 96.8871 98.6849 96.5863 99.8583 96.5867H108.582C110.399 96.5857 112.142 97.3065 113.428 98.5905C114.713 99.8745 115.436 101.617 115.437 103.434V103.441Z" fill="white"/>
<path d="M104.22 92.8478C108.005 92.8478 111.074 89.779 111.074 85.9933C111.074 82.2076 108.005 79.1388 104.22 79.1388C100.434 79.1388 97.3652 82.2076 97.3652 85.9933C97.3652 89.779 100.434 92.8478 104.22 92.8478Z" fill="white"/>
<path d="M115.437 103.441C115.439 104.525 115.183 105.593 114.689 106.557H93.7515C93.218 105.512 92.9616 104.347 93.0071 103.175C93.0526 102.002 93.3983 100.861 94.0111 99.8607C94.624 98.8601 95.4835 98.0336 96.5073 97.4603C97.5311 96.8871 98.6849 96.5863 99.8583 96.5867H108.582C110.399 96.5857 112.142 97.3065 113.428 98.5905C114.713 99.8745 115.436 101.617 115.437 103.434V103.441Z" fill="white"/>
<path d="M104.22 32.4033C113.168 32.4033 120.422 25.1496 120.422 16.2016C120.422 7.25372 113.168 0 104.22 0C95.2723 0 88.0186 7.25372 88.0186 16.2016C88.0186 25.1496 95.2723 32.4033 104.22 32.4033Z" fill="#E6E6E6"/>
<path d="M104.22 24.3025C108.694 24.3025 112.321 20.6756 112.321 16.2016C112.321 11.7277 108.694 8.10083 104.22 8.10083C99.746 8.10083 96.1191 11.7277 96.1191 16.2016C96.1191 20.6756 99.746 24.3025 104.22 24.3025Z" fill="#A55AD9"/>
<path d="M507.941 482.902L500.179 482.901L496.487 452.962L507.943 452.963L507.941 482.902Z" fill="#FFB8B8"/>
<path d="M494.634 480.683H509.604V490.109H485.209C485.209 488.871 485.453 487.645 485.926 486.502C486.4 485.358 487.094 484.319 487.97 483.444C488.845 482.569 489.884 481.874 491.027 481.401C492.171 480.927 493.396 480.683 494.634 480.683Z" fill="#2F2E41"/>
<path d="M549.78 482.902L542.017 482.901L538.326 452.962L549.782 452.963L549.78 482.902Z" fill="#FFB8B8"/>
<path d="M536.473 480.683H551.443V490.109H527.048C527.048 488.871 527.292 487.645 527.765 486.502C528.239 485.358 528.933 484.319 529.808 483.444C530.684 482.569 531.723 481.874 532.866 481.401C534.01 480.927 535.235 480.683 536.473 480.683Z" fill="#2F2E41"/>
<path d="M527.047 270.066C536.257 270.066 543.723 262.6 543.723 253.39C543.723 244.18 536.257 236.714 527.047 236.714C517.837 236.714 510.371 244.18 510.371 253.39C510.371 262.6 517.837 270.066 527.047 270.066Z" fill="#FFB8B8"/>
<path d="M470.026 362.144C470.143 361.22 470.46 360.334 470.957 359.546C471.453 358.759 472.116 358.09 472.898 357.586C473.681 357.083 474.565 356.757 475.487 356.632C476.409 356.507 477.348 356.585 478.236 356.862L487.556 345.69L495.726 349.698L482.344 365.29C481.78 366.752 480.699 367.956 479.306 368.675C477.914 369.393 476.306 369.576 474.788 369.188C473.269 368.8 471.946 367.869 471.069 366.571C470.191 365.272 469.82 363.697 470.026 362.144Z" fill="#FFB8B8"/>
<path d="M550.235 373.443C549.837 372.601 549.63 371.682 549.626 370.752C549.622 369.821 549.823 368.901 550.213 368.056C550.604 367.211 551.174 366.462 551.886 365.861C552.597 365.261 553.431 364.824 554.329 364.581L556.201 350.153L565.246 349.151L562.317 369.489C562.626 371.026 562.36 372.622 561.57 373.975C560.78 375.329 559.521 376.345 558.032 376.833C556.543 377.32 554.926 377.244 553.489 376.619C552.052 375.995 550.894 374.864 550.235 373.443Z" fill="#FFB8B8"/>
<path d="M540.983 284.887C541.87 283.748 543.042 282.864 544.38 282.323C545.717 281.781 547.174 281.603 548.603 281.805C550.032 282.006 551.383 282.582 552.519 283.472C553.654 284.363 554.535 285.537 555.072 286.877L568.74 320.988C570.137 324.473 570.582 328.268 570.031 331.982L565.579 361.964C565.521 362.351 565.381 362.721 565.167 363.048C564.954 363.376 564.672 363.654 564.341 363.862C564.01 364.071 563.638 364.206 563.251 364.257C562.863 364.309 562.469 364.276 562.095 364.161L556.229 362.36C555.622 362.174 555.099 361.78 554.752 361.248C554.405 360.716 554.255 360.079 554.329 359.448C556.4 341.797 553.663 323.914 546.41 307.69L539.966 293.277C539.359 291.918 539.132 290.419 539.312 288.941C539.491 287.463 540.069 286.062 540.983 284.887Z" fill="#A55AD9"/>
<path d="M531.108 270.065C533.617 270.119 536.11 269.642 538.422 268.664C540.735 267.686 542.814 266.23 544.523 264.391C546.232 262.553 547.533 260.373 548.34 257.996C549.147 255.619 549.442 253.098 549.205 250.599C548.968 248.1 548.205 245.679 546.966 243.496C545.727 241.312 544.04 239.416 542.016 237.931C539.992 236.446 537.676 235.406 535.222 234.88C532.767 234.354 530.229 234.353 527.774 234.878C524.107 232.651 519.843 231.153 515.57 231.534C511.297 231.915 507.07 234.452 505.472 238.434C503.874 242.415 505.591 247.663 509.565 249.281C512.112 250.319 514.988 249.816 517.707 249.397C520.425 248.979 523.391 248.706 525.757 250.109C528.123 251.511 529.186 255.273 527.067 257.026C525.944 257.993 525.142 259.278 524.768 260.712C524.394 262.146 524.466 263.66 524.973 265.052C526.038 267.806 528.945 270.018 531.108 270.065Z" fill="#2F2E41"/>
<path d="M551.797 361.484L554.755 473.743C554.765 474.117 554.698 474.489 554.557 474.836C554.416 475.183 554.205 475.497 553.937 475.758C553.669 476.02 553.35 476.223 553 476.355C552.65 476.488 552.276 476.546 551.902 476.527L542.158 476.03C541.536 475.998 540.944 475.754 540.481 475.337C540.018 474.921 539.712 474.359 539.614 473.744L528.023 400.831C527.974 400.519 527.817 400.234 527.58 400.025C527.343 399.817 527.04 399.697 526.725 399.687C526.409 399.677 526.099 399.778 525.85 399.972C525.6 400.165 525.426 400.44 525.357 400.748L509.668 470.95C509.584 471.325 509.422 471.678 509.191 471.986C508.961 472.294 508.667 472.549 508.331 472.735C507.994 472.921 507.622 473.033 507.239 473.065C506.856 473.096 506.47 473.045 506.108 472.917L496.437 472.326C495.877 472.127 495.398 471.75 495.074 471.253C494.749 470.756 494.596 470.166 494.638 469.574L503.08 360.422L551.797 361.484Z" fill="#2F2E41"/>
<path d="M556.545 308.165C558.176 291.154 545.668 275.767 528.622 274.557C521.277 274.035 509.874 273.849 506.115 283.476C494.792 312.477 514.614 311.772 507.785 336.898C500.955 362.024 494.923 363.464 504.294 365.279C513.665 367.093 555.804 377.803 554.074 360.119C553.01 349.248 554.917 325.135 556.545 308.165Z" fill="#A55AD9"/>
<path d="M508.12 280.526C509.466 280.005 510.925 279.848 512.351 280.072C513.777 280.295 515.119 280.89 516.241 281.798C517.363 282.705 518.226 283.893 518.742 285.241C519.259 286.588 519.411 288.048 519.183 289.473L513.86 322.736C512.95 328.424 510.545 333.768 506.891 338.221L489.605 359.285C489.357 359.587 489.046 359.832 488.695 360.004C488.343 360.175 487.959 360.268 487.568 360.277C487.177 360.286 486.788 360.211 486.429 360.056C486.07 359.901 485.749 359.67 485.487 359.379L481.381 354.82C480.956 354.347 480.71 353.741 480.686 353.106C480.661 352.471 480.86 351.848 481.248 351.345L482.457 349.775C492.514 336.725 498.858 321.201 500.82 304.843L502.936 287.2C503.113 285.722 503.689 284.32 504.602 283.144C505.516 281.968 506.731 281.063 508.12 280.526Z" fill="#A55AD9"/>
<path d="M599.321 491.718H424.15C423.97 491.718 423.797 491.647 423.67 491.519C423.542 491.392 423.471 491.219 423.471 491.039C423.471 490.859 423.542 490.686 423.67 490.559C423.797 490.432 423.97 490.36 424.15 490.36H599.321C599.501 490.36 599.673 490.432 599.801 490.559C599.928 490.686 600 490.859 600 491.039C600 491.219 599.928 491.392 599.801 491.519C599.673 491.647 599.501 491.718 599.321 491.718Z" fill="#CCCCCC"/>
</g>
<defs>
<clipPath id="clip0_237_605">
<rect width="600" height="491.718" fill="white"/>
</clipPath>
</defs>
</svg>
