<svg width="60" height="60" viewBox="0 0 60 60" fill="none" xmlns="http://www.w3.org/2000/svg">
<path d="M40 40L45 45L55 35" stroke="white" stroke-width="3" stroke-linecap="round" stroke-linejoin="round"/>
<path d="M52.5 25V20C52.4991 19.1232 52.2676 18.262 51.8288 17.5029C51.3901 16.7438 50.7593 16.1134 50 15.675L32.5 5.675C31.7399 5.23616 30.8777 5.00513 30 5.00513C29.1223 5.00513 28.2601 5.23616 27.5 5.675L10 15.675C9.24066 16.1134 8.60995 16.7438 8.17115 17.5029C7.73236 18.262 7.5009 19.1232 7.5 20V40C7.5009 40.8768 7.73236 41.738 8.17115 42.4971C8.60995 43.2562 9.24066 43.8866 10 44.325L27.5 54.325C28.2601 54.7638 29.1223 54.9949 30 54.9949C30.8777 54.9949 31.7399 54.7638 32.5 54.325L37.5 51.475" stroke="white" stroke-width="3" stroke-linecap="round" stroke-linejoin="round"/>
<path d="M18.75 10.675L41.25 23.55" stroke="white" stroke-width="3" stroke-linecap="round" stroke-linejoin="round"/>
<path d="M8.225 17.5L30 30L51.775 17.5" stroke="white" stroke-width="3" stroke-linecap="round" stroke-linejoin="round"/>
<path d="M30 55V30" stroke="white" stroke-width="3" stroke-linecap="round" stroke-linejoin="round"/>
</svg>
