<svg width="40" height="41" viewBox="0 0 40 41" fill="none" xmlns="http://www.w3.org/2000/svg">
<path d="M27.5 16.0499L12.5 7.3999" stroke="white" stroke-width="2" stroke-linecap="round" stroke-linejoin="round"/>
<path d="M35 27.0499V13.7166C34.9994 13.132 34.8451 12.5579 34.5526 12.0518C34.26 11.5457 33.8396 11.1255 33.3333 10.8332L21.6667 4.16655C21.1599 3.87399 20.5851 3.71997 20 3.71997C19.4149 3.71997 18.8401 3.87399 18.3333 4.16655L6.66667 10.8332C6.16044 11.1255 5.73997 11.5457 5.44744 12.0518C5.1549 12.5579 5.0006 13.132 5 13.7166V27.0499C5.0006 27.6344 5.1549 28.2085 5.44744 28.7146C5.73997 29.2207 6.16044 29.6409 6.66667 29.9332L18.3333 36.5999C18.8401 36.8924 19.4149 37.0465 20 37.0465C20.5851 37.0465 21.1599 36.8924 21.6667 36.5999L33.3333 29.9332C33.8396 29.6409 34.26 29.2207 34.5526 28.7146C34.8451 28.2085 34.9994 27.6344 35 27.0499Z" stroke="white" stroke-width="2" stroke-linecap="round" stroke-linejoin="round"/>
<path d="M5.45001 11.9834L20 20.4001L34.55 11.9834" stroke="white" stroke-width="2" stroke-linecap="round" stroke-linejoin="round"/>
<path d="M20 37.1833V20.3833" stroke="white" stroke-width="2" stroke-linecap="round" stroke-linejoin="round"/>
</svg>
