<svg width="61" height="48" viewBox="0 0 61 48" fill="none" xmlns="http://www.w3.org/2000/svg">
<path d="M56.7615 0.383301V10.4326H50.9979C46.4659 10.4326 44.1999 12.6986 44.1999 17.2306V21.9597H46.7122C50.6531 21.9597 53.9043 23.1419 56.4659 25.5065C59.126 27.871 60.4561 30.8759 60.4561 34.5212C60.4561 38.4621 59.126 41.6641 56.4659 44.1271C53.9043 46.5902 50.6531 47.8217 46.7122 47.8217C42.6728 47.8217 39.3723 46.5902 36.8107 44.1271C34.2492 41.5656 32.9684 38.1666 32.9684 33.9301V16.935C32.9684 5.90054 38.4856 0.383301 49.5201 0.383301H56.7615ZM24.2492 0.383301V10.4326H18.4856C13.9536 10.4326 11.6876 12.6986 11.6876 17.2306V21.9597H14.1999C18.1408 21.9597 21.392 23.1419 23.9536 25.5065C26.6137 27.871 27.9437 30.8759 27.9437 34.5212C27.9437 38.4621 26.6137 41.6641 23.9536 44.1271C21.392 46.5902 18.1408 47.8217 14.1999 47.8217C10.1605 47.8217 6.86 46.5902 4.29842 44.1271C1.73684 41.5656 0.456055 38.1666 0.456055 33.9301V16.935C0.456055 5.90054 5.9733 0.383301 17.0078 0.383301H24.2492Z" fill="white"/>
</svg>
