<svg width="600" height="349" viewBox="0 0 600 349" fill="none" xmlns="http://www.w3.org/2000/svg">
<g clip-path="url(#clip0_237_703)">
<g opacity="0.1">
<path d="M441.139 343.276C447.543 343.276 452.735 336.481 452.735 328.1C452.735 319.718 447.543 312.924 441.139 312.924C434.735 312.924 429.543 319.718 429.543 328.1C429.543 336.481 434.735 343.276 441.139 343.276Z" fill="#3F3D56"/>
<path d="M450.315 263.176C451.939 260.356 452.782 257.154 452.756 253.9C452.756 245.501 447.564 238.724 441.16 238.724C434.756 238.724 429.569 245.517 429.569 253.9C429.537 257.152 430.372 260.354 431.989 263.176C430.402 266.009 429.569 269.202 429.569 272.449C429.569 275.696 430.402 278.889 431.989 281.722C430.403 284.556 429.569 287.749 429.569 290.997C429.569 294.245 430.403 297.439 431.989 300.273C430.372 303.095 429.537 306.296 429.569 309.549C429.569 317.947 434.761 324.724 441.16 324.724C447.559 324.724 452.756 317.932 452.756 309.549C452.788 306.296 451.953 303.095 450.336 300.273C451.922 297.439 452.756 294.245 452.756 290.997C452.756 287.749 451.922 284.556 450.336 281.722C451.922 278.889 452.756 275.696 452.756 272.449C452.756 269.202 451.922 266.009 450.336 263.176H450.315Z" fill="#3F3D56"/>
<path d="M441.139 250.53C447.543 250.53 452.735 243.736 452.735 235.354C452.735 226.973 447.543 220.178 441.139 220.178C434.735 220.178 429.543 226.973 429.543 235.354C429.543 243.736 434.735 250.53 441.139 250.53Z" fill="#3F3D56"/>
<path d="M441.139 231.979C447.543 231.979 452.735 225.185 452.735 216.803C452.735 208.422 447.543 201.627 441.139 201.627C434.735 201.627 429.543 208.422 429.543 216.803C429.543 225.185 434.735 231.979 441.139 231.979Z" fill="#3F3D56"/>
<path d="M484.54 89.8635C486.123 87.846 487.565 85.722 488.855 83.5066L458.409 78.5039L491.359 78.7507C494.517 71.8734 496.239 64.4243 496.419 56.8589C496.6 49.2934 495.235 41.7707 492.409 34.7507L448.199 57.6693L488.976 27.7165C485.155 21.1217 480.017 15.3841 473.882 10.8607C467.748 6.3374 460.748 3.12518 453.318 1.42403C445.888 -0.277115 438.188 -0.430771 430.696 0.972631C423.205 2.37603 416.082 5.30645 409.772 9.58148C403.462 13.8565 398.099 19.3846 394.018 25.8217C389.936 32.2588 387.224 39.4671 386.049 46.9979C384.873 54.5287 385.261 62.2208 387.187 69.5954C389.113 76.97 392.536 83.8691 397.244 89.8635C394.776 93.002 392.654 96.3969 390.913 99.9895L430.456 120.535L388.294 106.362C385.327 115.111 384.589 124.461 386.147 133.567C387.706 142.672 391.511 151.245 397.218 158.509C390.775 166.701 386.766 176.54 385.652 186.901C384.537 197.263 386.36 207.73 390.914 217.104C395.467 226.478 402.566 234.382 411.399 239.912C420.233 245.442 430.444 248.375 440.866 248.375C451.287 248.375 461.499 245.442 470.332 239.912C479.166 234.382 486.265 226.478 490.818 217.104C495.371 207.73 497.195 197.263 496.08 186.901C494.965 176.54 490.957 166.701 484.514 158.509C492.213 148.721 496.399 136.629 496.399 124.176C496.399 111.723 492.213 99.6306 484.514 89.8425L484.54 89.8635Z" fill="#A55AD9"/>
<path opacity="0.1" d="M385.359 124.199C385.34 136.655 389.528 148.752 397.244 158.53C390.801 166.721 386.793 176.56 385.678 186.922C384.563 197.284 386.387 207.751 390.94 217.125C395.493 226.499 402.592 234.403 411.426 239.933C420.259 245.463 430.471 248.395 440.892 248.395C451.314 248.395 461.525 245.463 470.359 239.933C479.192 234.403 486.291 226.499 490.845 217.125C495.398 207.751 497.221 197.284 496.106 186.922C494.992 176.56 490.984 166.721 484.541 158.53C491.984 149.081 385.359 117.963 385.359 124.199Z" fill="black"/>
</g>
<g opacity="0.1">
<path d="M115.911 327.045C119.807 327.045 122.966 322.908 122.966 317.806C122.966 312.703 119.807 308.567 115.911 308.567C112.014 308.567 108.855 312.703 108.855 317.806C108.855 322.908 112.014 327.045 115.911 327.045Z" fill="#3F3D56"/>
<path d="M121.523 278.283C122.508 276.565 123.017 274.616 122.998 272.635C122.998 267.533 119.848 263.396 115.938 263.396C112.027 263.396 108.882 267.533 108.882 272.635C108.862 274.615 109.369 276.565 110.352 278.283C109.389 280.009 108.883 281.953 108.883 283.929C108.883 285.906 109.389 287.849 110.352 289.575C109.389 291.3 108.883 293.244 108.883 295.22C108.883 297.197 109.389 299.14 110.352 300.866C109.369 302.583 108.861 304.531 108.882 306.509C108.882 311.617 112.032 315.753 115.938 315.753C119.843 315.753 122.998 311.617 122.998 306.509C123.018 304.53 122.508 302.582 121.523 300.866C122.489 299.141 122.997 297.197 122.997 295.22C122.997 293.243 122.489 291.3 121.523 289.575C122.489 287.85 122.997 285.906 122.997 283.929C122.997 281.952 122.489 280.008 121.523 278.283Z" fill="#3F3D56"/>
<path d="M115.911 270.583C119.807 270.583 122.966 266.446 122.966 261.344C122.966 256.241 119.807 252.105 115.911 252.105C112.014 252.105 108.855 256.241 108.855 261.344C108.855 266.446 112.014 270.583 115.911 270.583Z" fill="#3F3D56"/>
<path d="M115.911 259.291C119.807 259.291 122.966 255.155 122.966 250.053C122.966 244.95 119.807 240.814 115.911 240.814C112.014 240.814 108.855 244.95 108.855 250.053C108.855 255.155 112.014 259.291 115.911 259.291Z" fill="#3F3D56"/>
<path d="M89.5015 172.772C88.5379 171.544 87.6609 170.252 86.8768 168.903L105.423 165.858L85.365 166.011C83.4447 161.826 82.3972 157.294 82.2861 152.691C82.1751 148.088 83.003 143.511 84.7193 139.239L111.612 153.207L86.7981 134.94C89.1254 130.928 92.2534 127.437 95.9876 124.686C99.7217 121.935 103.982 119.982 108.503 118.948C113.025 117.914 117.711 117.821 122.269 118.676C126.828 119.531 131.162 121.314 135.002 123.916C138.842 126.517 142.105 129.881 144.589 133.798C147.073 137.715 148.724 142.102 149.44 146.684C150.156 151.267 149.922 155.948 148.751 160.436C147.58 164.924 145.499 169.123 142.635 172.772C144.137 174.68 145.429 176.744 146.488 178.929L122.415 191.444L148.084 182.829C149.887 188.157 150.333 193.85 149.381 199.394C148.43 204.937 146.111 210.156 142.635 214.577C146.557 219.564 148.997 225.553 149.675 231.861C150.353 238.169 149.243 244.54 146.471 250.247C143.7 255.953 139.378 260.764 134.001 264.13C128.623 267.497 122.407 269.282 116.063 269.282C109.719 269.282 103.503 267.497 98.1258 264.13C92.7484 260.764 88.4268 255.953 85.6549 250.247C82.8831 244.54 81.7728 238.169 82.4512 231.861C83.1296 225.553 85.5691 219.564 89.491 214.577C84.8046 208.618 82.2568 201.256 82.2568 193.675C82.2568 186.093 84.8046 178.731 89.491 172.772H89.5015Z" fill="#A55AD9"/>
<path opacity="0.1" d="M149.869 193.675C149.881 201.258 147.332 208.623 142.636 214.577C146.558 219.564 148.997 225.553 149.676 231.861C150.354 238.169 149.244 244.54 146.472 250.247C143.7 255.953 139.378 260.764 134.001 264.13C128.624 267.497 122.408 269.282 116.064 269.282C109.72 269.282 103.504 267.497 98.1262 264.13C92.7489 260.764 88.4272 255.953 85.6554 250.247C82.8835 244.54 81.7733 238.169 82.4517 231.861C83.13 225.553 85.5696 219.564 89.4914 214.577C84.9612 208.85 149.869 189.879 149.869 193.675Z" fill="black"/>
</g>
<g opacity="0.1">
<path d="M274.966 335.087C280.182 335.087 284.41 329.552 284.41 322.724C284.41 315.897 280.182 310.362 274.966 310.362C269.75 310.362 265.522 315.897 265.522 322.724C265.522 329.552 269.75 335.087 274.966 335.087Z" fill="#3F3D56"/>
<path d="M282.441 269.832C283.757 267.532 284.436 264.923 284.409 262.273C284.409 255.449 280.21 249.911 274.96 249.911C269.711 249.911 265.512 255.449 265.512 262.273C265.484 264.924 266.165 267.533 267.485 269.832C266.191 272.14 265.512 274.742 265.512 277.388C265.512 280.035 266.191 282.637 267.485 284.945C266.191 287.252 265.512 289.853 265.512 292.499C265.512 295.144 266.191 297.745 267.485 300.052C266.165 302.351 265.484 304.961 265.512 307.612C265.512 314.436 269.743 319.974 274.96 319.974C280.178 319.974 284.409 314.436 284.409 307.612C284.436 304.962 283.757 302.353 282.441 300.052C283.732 297.744 284.41 295.143 284.41 292.499C284.41 289.854 283.732 287.253 282.441 284.945C283.732 282.636 284.409 280.034 284.409 277.388C284.409 274.743 283.732 272.141 282.441 269.832Z" fill="#3F3D56"/>
<path d="M274.966 259.528C280.182 259.528 284.41 253.993 284.41 247.165C284.41 240.338 280.182 234.803 274.966 234.803C269.75 234.803 265.522 240.338 265.522 247.165C265.522 253.993 269.75 259.528 274.966 259.528Z" fill="#3F3D56"/>
<path d="M274.966 244.415C280.182 244.415 284.41 238.88 284.41 232.052C284.41 225.225 280.182 219.69 274.966 219.69C269.75 219.69 265.522 225.225 265.522 232.052C265.522 238.88 269.75 244.415 274.966 244.415Z" fill="#3F3D56"/>
<path d="M239.632 128.64C238.342 126.999 237.166 125.269 236.115 123.465L260.929 119.391L234.094 119.591C231.52 113.988 230.115 107.92 229.966 101.756C229.817 95.5922 230.927 89.4628 233.228 83.7428L269.239 102.42L236.026 78.0105C239.129 72.6182 243.311 67.9237 248.31 64.2205C253.309 60.5172 259.018 57.8848 265.081 56.4877C271.143 55.0905 277.429 54.9587 283.544 56.1005C289.66 57.2422 295.475 59.633 300.625 63.1234C305.775 66.6138 310.149 71.1288 313.476 76.3863C316.802 81.6438 319.008 87.5308 319.957 93.6795C320.905 99.8282 320.575 106.106 318.987 112.122C317.4 118.137 314.589 123.761 310.73 128.64C312.739 131.198 314.467 133.965 315.884 136.892L283.674 153.627L318.021 142.079C320.434 149.208 321.03 156.826 319.757 164.244C318.484 171.662 315.381 178.645 310.73 184.562C315.978 191.235 319.242 199.25 320.15 207.691C321.058 216.132 319.572 224.658 315.863 232.294C312.153 239.93 306.37 246.369 299.174 250.873C291.978 255.378 283.66 257.767 275.171 257.767C266.681 257.767 258.363 255.378 251.167 250.873C243.971 246.369 238.188 239.93 234.478 232.294C230.769 224.658 229.283 216.132 230.191 207.691C231.099 199.25 234.363 191.235 239.611 184.562C233.341 176.586 229.932 166.736 229.932 156.591C229.932 146.445 233.341 136.595 239.611 128.619L239.632 128.64Z" fill="#A55AD9"/>
<path opacity="0.1" d="M320.409 156.614C320.425 166.761 317.014 176.616 310.73 184.583C315.978 191.256 319.242 199.271 320.15 207.712C321.058 216.153 319.572 224.679 315.863 232.315C312.153 239.951 306.37 246.39 299.174 250.894C291.978 255.399 283.66 257.788 275.171 257.788C266.681 257.788 258.363 255.399 251.167 250.894C243.971 246.39 238.188 239.951 234.478 232.315C230.769 224.679 229.283 216.153 230.191 207.712C231.099 199.271 234.363 191.256 239.611 184.583C233.548 176.887 320.409 151.533 320.409 156.614Z" fill="black"/>
</g>
<path d="M600 333.974C600 337.58 573.637 340.877 530.052 343.423C522.126 343.879 513.632 344.315 504.624 344.724C496.841 345.074 488.684 345.405 480.152 345.717C471.886 346.011 463.303 346.283 454.404 346.535C426.299 347.339 395.228 347.916 362.22 348.205C354.21 348.278 346.092 348.334 337.868 348.373C329.301 348.411 320.637 348.429 311.874 348.425C152.745 348.425 23.7529 341.963 23.7529 333.99C23.7529 326.016 152.745 319.554 311.874 319.554C380.383 319.554 443.296 320.756 492.745 322.751L498.152 322.971H498.183C560.472 325.612 600 329.585 600 333.974Z" fill="#3F3D56"/>
<path opacity="0.15" d="M600 333.974C600 337.58 573.637 340.877 530.052 343.423C522.126 343.879 513.632 344.315 504.624 344.724C496.841 345.074 488.684 345.405 480.152 345.717C471.886 346.011 463.303 346.283 454.404 346.535C426.299 347.339 395.228 347.916 362.22 348.205C354.21 348.278 346.092 348.334 337.868 348.373C329.301 348.411 320.637 348.429 311.874 348.425C152.745 348.425 23.7529 341.963 23.7529 333.99C23.7529 326.016 152.745 319.554 311.874 319.554C380.383 319.554 443.296 320.756 492.745 322.751L498.152 322.971H498.183C560.472 325.612 600 329.585 600 333.974Z" fill="black"/>
<path d="M576.247 331.433C576.247 334.446 549.884 337.207 506.299 339.307C498.378 339.69 489.879 340.052 480.877 340.394C473.09 340.688 464.933 340.964 456.404 341.223C448.138 341.468 439.556 341.697 430.656 341.911C402.546 342.583 371.475 343.066 338.467 343.307C330.464 343.367 322.346 343.412 314.115 343.444C305.549 343.475 296.885 343.491 288.126 343.491C128.997 343.491 0 338.089 0 331.417C0 324.745 128.997 319.344 288.126 319.344C356.63 319.344 419.543 320.346 468.992 322.016L474.399 322.199H474.436C536.745 324.441 576.247 327.743 576.247 331.433Z" fill="#3F3D56"/>
<path d="M74.4143 221.759L67.1807 199.612L240.409 197.717L247.506 219.643L74.4143 221.759Z" fill="#3F3D56"/>
<path opacity="0.15" d="M74.4143 221.759L67.1807 199.612L240.409 197.717L247.506 219.643L74.4143 221.759Z" fill="black"/>
<path d="M62.8664 221.759L55.6328 199.612L228.861 197.717L235.958 219.643L62.8664 221.759Z" fill="#3F3D56"/>
<path d="M358.588 187.727C340.677 187.727 326.561 180.618 316.241 166.399C305.921 152.18 300.761 134.955 300.761 114.724C300.761 94.357 305.751 77.1671 315.732 63.1549C325.713 49.1426 339.791 42.1435 357.968 42.1575C377.244 42.1575 391.767 49.5398 401.538 64.3045C411.308 79.0691 416.196 96.1575 416.199 115.57C416.199 134.842 411.142 151.689 401.028 166.11C390.915 180.532 376.768 187.738 358.588 187.727ZM359.112 171.732C370.895 171.732 379.702 166.597 385.532 156.325C391.363 146.054 394.278 133.106 394.278 117.48C394.278 100.088 391.294 85.846 385.328 74.7559C379.361 63.6658 370.21 58.119 357.874 58.1155C334.427 58.1155 322.703 76.7402 322.703 113.99C322.703 152.488 334.836 171.736 359.102 171.732H359.112ZM365.013 324.903H339.107L508.703 45.0079H534.12L365.013 324.903ZM515.049 327.774C496.869 327.774 482.696 320.6 472.53 306.252C462.364 291.904 457.259 274.677 457.217 254.572C457.217 234.341 462.173 217.22 472.084 203.207C481.994 189.195 496.108 182.196 514.425 182.21C533.564 182.21 547.986 189.592 557.69 204.357C567.394 219.122 572.248 236.208 572.252 255.617C572.252 274.763 567.228 291.578 557.181 306.063C547.133 320.548 533.086 327.785 515.039 327.774H515.049ZM515.354 311.37C527.081 311.37 535.84 306.322 541.632 296.226C547.424 286.129 550.32 273.234 550.32 257.538C550.32 240.74 547.389 226.653 541.527 215.276C535.665 203.899 526.533 198.201 514.131 198.184C490.547 198.184 478.756 216.808 478.756 254.058C478.749 292.269 490.944 311.374 515.343 311.37H515.354Z" fill="#3F3D56"/>
<path d="M358.588 187.727C340.677 187.727 326.561 180.618 316.241 166.399C305.921 152.18 300.761 134.955 300.761 114.724C300.761 94.357 305.751 77.1671 315.732 63.1549C325.713 49.1426 339.791 42.1435 357.968 42.1575C377.244 42.1575 391.767 49.5398 401.538 64.3045C411.308 79.0691 416.196 96.1575 416.199 115.57C416.199 134.842 411.142 151.689 401.028 166.11C390.915 180.532 376.768 187.738 358.588 187.727ZM359.112 171.732C370.895 171.732 379.702 166.597 385.532 156.325C391.363 146.054 394.278 133.106 394.278 117.48C394.278 100.088 391.294 85.846 385.328 74.7559C379.361 63.6658 370.21 58.119 357.874 58.1155C334.427 58.1155 322.703 76.7402 322.703 113.99C322.703 152.488 334.836 171.736 359.102 171.732H359.112ZM365.013 324.903H339.107L508.703 45.0079H534.12L365.013 324.903ZM515.049 327.774C496.869 327.774 482.696 320.6 472.53 306.252C462.364 291.904 457.259 274.677 457.217 254.572C457.217 234.341 462.173 217.22 472.084 203.207C481.994 189.195 496.108 182.196 514.425 182.21C533.564 182.21 547.986 189.592 557.69 204.357C567.394 219.122 572.248 236.208 572.252 255.617C572.252 274.763 567.228 291.578 557.181 306.063C547.133 320.548 533.086 327.785 515.039 327.774H515.049ZM515.354 311.37C527.081 311.37 535.84 306.322 541.632 296.226C547.424 286.129 550.32 273.234 550.32 257.538C550.32 240.74 547.389 226.653 541.527 215.276C535.665 203.899 526.533 198.201 514.131 198.184C490.547 198.184 478.756 216.808 478.756 254.058C478.749 292.269 490.944 311.374 515.343 311.37H515.354Z" fill="#3F3D56"/>
<path opacity="0.15" d="M358.588 187.727C340.677 187.727 326.561 180.618 316.241 166.399C305.921 152.18 300.761 134.955 300.761 114.724C300.761 94.357 305.751 77.1671 315.732 63.1549C325.713 49.1426 339.791 42.1435 357.968 42.1575C377.244 42.1575 391.767 49.5398 401.538 64.3045C411.308 79.0691 416.196 96.1575 416.199 115.57C416.199 134.842 411.142 151.689 401.028 166.11C390.915 180.532 376.768 187.738 358.588 187.727ZM359.112 171.732C370.895 171.732 379.702 166.597 385.532 156.325C391.363 146.054 394.278 133.106 394.278 117.48C394.278 100.088 391.294 85.846 385.328 74.7559C379.361 63.6658 370.21 58.119 357.874 58.1155C334.427 58.1155 322.703 76.7402 322.703 113.99C322.703 152.488 334.836 171.736 359.102 171.732H359.112ZM365.013 324.903H339.107L508.703 45.0079H534.12L365.013 324.903ZM515.049 327.774C496.869 327.774 482.696 320.6 472.53 306.252C462.364 291.904 457.259 274.677 457.217 254.572C457.217 234.341 462.173 217.22 472.084 203.207C481.994 189.195 496.108 182.196 514.425 182.21C533.564 182.21 547.986 189.592 557.69 204.357C567.394 219.122 572.248 236.208 572.252 255.617C572.252 274.763 567.228 291.578 557.181 306.063C547.133 320.548 533.086 327.785 515.039 327.774H515.049ZM515.354 311.37C527.081 311.37 535.84 306.322 541.632 296.226C547.424 286.129 550.32 273.234 550.32 257.538C550.32 240.74 547.389 226.653 541.527 215.276C535.665 203.899 526.533 198.201 514.131 198.184C490.547 198.184 478.756 216.808 478.756 254.058C478.749 292.269 490.944 311.374 515.343 311.37H515.354Z" fill="black"/>
<path d="M342.315 187.727C324.404 187.727 310.289 180.618 299.969 166.399C289.648 152.18 284.488 134.955 284.488 114.724C284.488 94.357 289.479 77.1671 299.459 63.1549C309.44 49.1426 323.519 42.1435 341.696 42.1575C360.971 42.1575 375.494 49.5398 385.265 64.3045C395.036 79.0691 399.923 96.1575 399.927 115.57C399.927 134.842 394.87 151.689 384.756 166.11C374.642 180.532 360.495 187.738 342.315 187.727ZM342.84 171.732C354.623 171.732 363.43 166.597 369.26 156.325C375.09 146.054 378.005 133.106 378.005 117.48C378.005 100.088 375.022 85.846 369.055 74.7559C363.088 63.6658 353.937 58.119 341.601 58.1155C318.154 58.1155 306.431 76.7402 306.431 113.99C306.431 152.488 318.564 171.736 342.829 171.732H342.84ZM348.74 324.903H322.835L492.431 45.0079H517.848L348.74 324.903ZM498.777 327.774C480.597 327.774 466.424 320.6 456.257 306.252C446.091 291.904 440.987 274.677 440.945 254.572C440.945 234.341 445.9 217.22 455.811 203.207C465.722 189.195 479.836 182.196 498.152 182.21C517.291 182.21 531.713 189.592 541.417 204.357C551.122 219.122 555.976 236.208 555.979 255.617C555.979 274.763 550.956 291.578 540.908 306.063C530.861 320.548 516.814 327.785 498.767 327.774H498.777ZM499.081 311.37C510.809 311.37 519.568 306.322 525.36 296.226C531.151 286.129 534.047 273.234 534.047 257.538C534.047 240.74 531.116 226.653 525.255 215.276C519.393 203.899 510.257 198.201 497.848 198.184C474.264 198.184 462.473 216.808 462.473 254.058C462.473 292.269 474.672 311.374 499.071 311.37H499.081Z" fill="#3F3D56"/>
<path d="M398.987 331.926C401.15 327.916 398.693 323.003 395.869 319.423C393.045 315.842 389.601 312.126 389.675 307.564C389.78 301.018 396.73 297.15 402.273 293.675C406.396 291.099 410.199 288.044 413.601 284.572C415.026 283.235 416.205 281.657 417.082 279.911C418.231 277.349 418.195 274.436 418.132 271.632C417.89 262.282 417.428 252.945 416.746 243.622" stroke="#3F3D56" stroke-width="4" stroke-miterlimit="10"/>
<path d="M427.307 243.108C427.228 241.397 426.72 239.734 425.829 238.272C424.938 236.809 423.694 235.595 422.21 234.74L419.921 239.265L419.989 233.785C418.898 233.466 417.761 233.329 416.625 233.381C414.606 233.475 412.662 234.166 411.036 235.366C409.411 236.566 408.178 238.221 407.493 240.121C406.808 242.022 406.702 244.083 407.188 246.044C407.675 248.005 408.732 249.777 410.225 251.138C411.719 252.498 413.583 253.385 415.581 253.686C417.578 253.987 419.62 253.689 421.449 252.829C423.277 251.97 424.81 250.587 425.852 248.857C426.895 247.126 427.401 245.126 427.307 243.108Z" fill="#A55AD9"/>
<path d="M409.092 312.262C408.02 314.345 406.265 315.996 404.12 316.938C401.976 317.88 399.573 318.056 397.314 317.437C395.055 316.817 393.078 315.44 391.714 313.536C390.35 311.632 389.682 309.317 389.822 306.979C389.962 304.641 390.902 302.422 392.484 300.695C394.066 298.967 396.194 297.836 398.51 297.492C400.827 297.147 403.192 297.609 405.208 298.8C407.225 299.992 408.77 301.841 409.585 304.037L403.202 309.228L410.236 307.591C410.233 309.217 409.841 310.819 409.092 312.262Z" fill="#A55AD9"/>
<path d="M404.047 292.415C402.707 292.477 401.368 292.276 400.106 291.821C398.844 291.366 397.683 290.667 396.691 289.764C395.699 288.861 394.895 287.771 394.324 286.557C393.754 285.342 393.428 284.028 393.365 282.688C393.286 281.088 393.588 279.492 394.247 278.031C394.857 276.667 395.759 275.453 396.889 274.474C398.019 273.495 399.35 272.776 400.788 272.367L400.73 276.567L403.045 271.989C405.751 271.863 408.397 272.816 410.401 274.641C412.404 276.465 413.601 279.01 413.727 281.717C413.854 284.423 412.9 287.069 411.076 289.072C409.252 291.076 406.707 292.272 404 292.399L404.047 292.415Z" fill="#A55AD9"/>
<path d="M428.845 275.916C427.489 276.006 426.129 275.825 424.844 275.383C423.558 274.941 422.374 274.247 421.361 273.342C420.347 272.437 419.524 271.338 418.94 270.111C418.356 268.884 418.022 267.553 417.958 266.196C417.895 264.838 418.103 263.482 418.57 262.206C419.037 260.929 419.754 259.759 420.678 258.763C421.603 257.767 422.717 256.966 423.955 256.406C425.194 255.846 426.531 255.538 427.89 255.501C429.799 255.408 431.695 255.858 433.359 256.798L431.554 261.743L435.27 258.178C437.265 259.997 438.456 262.532 438.582 265.228C438.629 266.174 438.541 267.121 438.32 268.042C437.812 270.206 436.612 272.146 434.902 273.567C433.192 274.988 431.066 275.813 428.845 275.916Z" fill="#A55AD9"/>
<path opacity="0.1" d="M425.932 245.832C423.575 246.089 421.286 246.824 418.918 246.971C416.551 247.118 413.953 246.551 412.456 244.709C411.648 243.722 411.249 242.467 410.567 241.386C409.922 240.379 409.039 239.548 407.995 238.966C407.339 240.261 406.967 241.68 406.903 243.13C406.838 244.58 407.084 246.027 407.623 247.375C408.162 248.722 408.982 249.94 410.029 250.946C411.075 251.951 412.324 252.723 413.692 253.208C415.059 253.693 416.515 253.882 417.961 253.761C419.408 253.639 420.811 253.211 422.079 252.505C423.347 251.798 424.45 250.83 425.314 249.664C426.179 248.498 426.785 247.161 427.092 245.743C426.703 245.764 426.32 245.79 425.932 245.832Z" fill="black"/>
<path opacity="0.1" d="M428.846 275.916C427.085 275.996 425.334 275.62 423.762 274.824C422.19 274.029 420.85 272.84 419.872 271.374C418.895 269.908 418.312 268.214 418.182 266.456C418.052 264.699 418.378 262.938 419.129 261.344C419.938 261.892 420.635 262.591 421.181 263.402C421.911 264.499 422.352 265.769 423.208 266.777C424.783 268.651 427.517 269.26 429.979 269.15C432.441 269.039 434.825 268.336 437.281 268.1C437.622 268.068 437.969 268.047 438.331 268.037C437.824 270.204 436.623 272.146 434.91 273.568C433.198 274.99 431.069 275.815 428.846 275.916Z" fill="black"/>
<path opacity="0.1" d="M404.047 292.415C402.707 292.477 401.368 292.276 400.106 291.821C398.844 291.366 397.683 290.667 396.691 289.764C395.699 288.861 394.895 287.771 394.324 286.557C393.754 285.342 393.428 284.028 393.365 282.688C393.286 281.088 393.588 279.492 394.247 278.031C395.089 278.593 395.821 279.304 396.404 280.131C397.197 281.249 397.696 282.541 398.625 283.575C400.347 285.491 403.244 286.168 405.853 286.105C408.462 286.042 410.819 285.433 413.333 285.239C412.71 287.244 411.485 289.008 409.823 290.292C408.162 291.576 406.145 292.317 404.047 292.415Z" fill="black"/>
<path opacity="0.1" d="M409.092 312.262C407.903 314.599 405.862 316.388 403.391 317.262C400.919 318.135 398.207 318.025 395.815 316.954C393.422 315.883 391.533 313.934 390.538 311.509C389.542 309.084 389.517 306.369 390.467 303.927C391.308 304.48 392.064 305.154 392.709 305.927C393.68 307.113 394.32 308.457 395.444 309.559C397.544 311.606 400.903 312.451 403.906 312.53C405.638 312.544 407.37 312.455 409.092 312.262Z" fill="black"/>
<path d="M556.992 331.402C559.155 327.391 556.698 322.478 553.874 318.898C551.05 315.318 547.606 311.601 547.68 307.039C547.785 300.493 554.735 296.625 560.278 293.15C564.401 290.574 568.204 287.519 571.606 284.047C573.031 282.71 574.21 281.132 575.087 279.386C576.236 276.824 576.2 273.911 576.137 271.108C575.895 261.757 575.433 252.42 574.751 243.097" stroke="#3F3D56" stroke-width="4" stroke-miterlimit="10"/>
<path d="M585.312 242.583C585.233 240.872 584.725 239.209 583.834 237.747C582.943 236.284 581.698 235.07 580.215 234.215L577.926 238.74L577.994 233.26C576.903 232.941 575.766 232.804 574.629 232.856C572.611 232.95 570.667 233.641 569.041 234.841C567.416 236.041 566.183 237.696 565.498 239.596C564.813 241.497 564.707 243.558 565.193 245.519C565.679 247.48 566.736 249.253 568.23 250.613C569.724 251.973 571.588 252.86 573.585 253.161C575.583 253.462 577.625 253.164 579.454 252.304C581.282 251.445 582.815 250.062 583.857 248.332C584.9 246.602 585.406 244.601 585.312 242.583Z" fill="#A55AD9"/>
<path d="M567.097 311.738C566.025 313.82 564.27 315.471 562.125 316.413C559.981 317.355 557.578 317.531 555.319 316.912C553.06 316.292 551.083 314.915 549.719 313.011C548.355 311.107 547.687 308.792 547.827 306.454C547.967 304.116 548.907 301.897 550.489 300.17C552.071 298.442 554.198 297.311 556.515 296.967C558.832 296.622 561.197 297.084 563.213 298.276C565.23 299.467 566.775 301.316 567.59 303.512L561.207 308.703L568.241 307.066C568.238 308.692 567.846 310.294 567.097 311.738Z" fill="#A55AD9"/>
<path d="M562.052 291.89C560.712 291.953 559.373 291.751 558.111 291.296C556.848 290.841 555.688 290.142 554.696 289.239C553.704 288.336 552.9 287.246 552.329 286.032C551.759 284.818 551.433 283.503 551.37 282.163C551.29 280.563 551.593 278.967 552.252 277.507C552.862 276.142 553.764 274.928 554.894 273.949C556.024 272.97 557.355 272.251 558.792 271.842L558.735 276.042L561.05 271.465H561.076C562.416 271.402 563.755 271.604 565.017 272.059C566.28 272.513 567.44 273.212 568.432 274.116C569.424 275.019 570.228 276.109 570.799 277.323C571.369 278.537 571.696 279.851 571.758 281.192C571.821 282.532 571.619 283.871 571.164 285.133C570.709 286.395 570.01 287.555 569.107 288.547C568.204 289.539 567.114 290.344 565.9 290.914C564.686 291.485 563.371 291.811 562.031 291.874L562.052 291.89Z" fill="#A55AD9"/>
<path d="M586.851 275.391C585.495 275.481 584.134 275.3 582.849 274.858C581.564 274.416 580.38 273.722 579.367 272.817C578.353 271.912 577.53 270.814 576.946 269.587C576.361 268.36 576.028 267.028 575.964 265.671C575.901 264.313 576.109 262.957 576.576 261.681C577.043 260.404 577.76 259.234 578.684 258.238C579.609 257.242 580.723 256.441 581.961 255.881C583.2 255.321 584.537 255.013 585.895 254.976C587.805 254.883 589.701 255.333 591.365 256.273L589.559 261.218L593.276 257.653C595.271 259.472 596.462 262.007 596.588 264.703C596.635 265.649 596.546 266.596 596.326 267.517C595.818 269.681 594.618 271.621 592.908 273.042C591.198 274.463 589.072 275.288 586.851 275.391Z" fill="#A55AD9"/>
<path opacity="0.1" d="M583.937 245.307C581.58 245.564 579.292 246.299 576.924 246.446C574.557 246.593 571.958 246.026 570.462 244.184C569.654 243.197 569.255 241.942 568.573 240.861C567.928 239.854 567.044 239.023 566 238.441C565.345 239.736 564.972 241.155 564.908 242.605C564.844 244.055 565.09 245.502 565.629 246.85C566.168 248.198 566.988 249.415 568.035 250.421C569.081 251.426 570.33 252.198 571.697 252.683C573.065 253.168 574.521 253.357 575.967 253.236C577.413 253.114 578.817 252.686 580.085 251.98C581.353 251.274 582.456 250.305 583.32 249.139C584.184 247.973 584.79 246.636 585.098 245.218C584.709 245.239 584.326 245.265 583.937 245.307Z" fill="black"/>
<path opacity="0.1" d="M586.85 275.391C585.09 275.471 583.339 275.095 581.767 274.299C580.194 273.504 578.855 272.315 577.877 270.849C576.899 269.383 576.317 267.689 576.187 265.932C576.057 264.174 576.383 262.413 577.134 260.819C577.943 261.367 578.64 262.066 579.186 262.877C579.916 263.974 580.357 265.244 581.213 266.252C582.787 268.126 585.522 268.735 587.984 268.625C590.446 268.514 592.829 267.811 595.286 267.575C595.627 267.543 595.974 267.522 596.336 267.512C595.828 269.679 594.627 271.621 592.915 273.043C591.203 274.465 589.074 275.29 586.85 275.391Z" fill="black"/>
<path opacity="0.1" d="M562.052 291.89C560.712 291.953 559.373 291.751 558.111 291.296C556.848 290.841 555.688 290.142 554.696 289.239C553.704 288.336 552.9 287.246 552.329 286.032C551.759 284.818 551.433 283.503 551.37 282.163C551.29 280.563 551.593 278.967 552.252 277.507C553.094 278.068 553.825 278.78 554.409 279.606C555.202 280.724 555.701 282.016 556.63 283.05C558.351 284.966 561.249 285.643 563.858 285.58C566.388 285.528 568.824 284.908 571.338 284.714C570.715 286.719 569.489 288.484 567.828 289.767C566.166 291.051 564.15 291.792 562.052 291.89Z" fill="black"/>
<path opacity="0.1" d="M567.097 311.738C565.908 314.074 563.867 315.863 561.396 316.737C558.924 317.61 556.212 317.5 553.819 316.429C551.427 315.358 549.538 313.409 548.542 310.984C547.547 308.559 547.522 305.844 548.472 303.402C549.313 303.955 550.068 304.629 550.714 305.402C551.685 306.588 552.325 307.932 553.449 309.034C555.548 311.081 558.908 311.926 561.911 312.005C563.643 312.019 565.375 311.93 567.097 311.738Z" fill="black"/>
<path d="M57.706 324.577C55.5432 320.567 57.9999 315.654 60.8241 312.073C63.6482 308.493 67.0918 304.777 67.0183 300.215C66.9133 293.669 59.9632 289.801 54.4199 286.325C50.2972 283.75 46.4946 280.695 43.0918 277.223C41.6668 275.886 40.4887 274.308 39.6115 272.562C38.4619 270 38.4986 267.087 38.5616 264.283C38.8031 254.933 39.265 245.596 39.9474 236.273" stroke="#3F3D56" stroke-width="4" stroke-miterlimit="10"/>
<path d="M29.3861 235.759C29.4651 234.048 29.9734 232.385 30.8642 230.923C31.755 229.46 32.9996 228.246 34.4833 227.391L36.772 231.916L36.7037 226.436C37.7955 226.117 38.9323 225.98 40.0686 226.031C42.0867 226.126 44.0314 226.817 45.6569 228.017C47.2823 229.217 48.5155 230.872 49.2004 232.772C49.8854 234.673 49.9914 236.734 49.505 238.695C49.0186 240.656 47.9616 242.428 46.4678 243.789C44.974 245.149 43.1104 246.036 41.1126 246.337C39.1149 246.638 37.0727 246.34 35.2443 245.48C33.4159 244.621 31.8835 243.238 30.8408 241.508C29.798 239.777 29.2918 237.777 29.3861 235.759Z" fill="#A55AD9"/>
<path d="M47.6014 304.913C48.6732 306.996 50.4285 308.647 52.573 309.589C54.7174 310.531 57.1205 310.707 59.3794 310.088C61.6383 309.468 63.6155 308.091 64.9796 306.187C66.3436 304.283 67.0115 301.968 66.8712 299.63C66.731 297.292 65.7911 295.073 64.2092 293.346C62.6274 291.618 60.4997 290.487 58.183 290.142C55.8662 289.798 53.5014 290.26 51.485 291.451C49.4685 292.643 47.9231 294.492 47.1079 296.688L53.4911 301.879L46.457 300.241C46.46 301.868 46.8524 303.47 47.6014 304.913Z" fill="#A55AD9"/>
<path d="M52.6461 285.066C53.9862 285.128 55.3255 284.927 56.5877 284.472C57.8498 284.017 59.01 283.318 60.002 282.415C60.994 281.511 61.7983 280.422 62.3691 279.208C62.9398 277.993 63.2658 276.679 63.3285 275.339C63.4079 273.739 63.1057 272.143 62.4466 270.682C61.8363 269.318 60.9345 268.103 59.8045 267.125C58.6744 266.146 57.3437 265.427 55.9059 265.018L55.9636 269.218L53.6487 264.64C50.9422 264.514 48.2963 265.467 46.2929 267.292C44.2896 269.116 43.093 271.661 42.9663 274.367C42.8396 277.074 43.7932 279.72 45.6174 281.723C47.4416 283.727 49.9868 284.923 52.6933 285.05L52.6461 285.066Z" fill="#A55AD9"/>
<path d="M27.8482 268.567C29.2042 268.657 30.5645 268.476 31.8496 268.034C33.1347 267.592 34.3187 266.898 35.3325 265.993C36.3462 265.088 37.1692 263.989 37.7534 262.762C38.3376 261.535 38.6712 260.204 38.7347 258.847C38.7982 257.489 38.5904 256.133 38.1234 254.856C37.6563 253.58 36.9395 252.41 36.0147 251.414C35.09 250.418 33.9759 249.617 32.7377 249.057C31.4995 248.497 30.1621 248.189 28.8036 248.152C26.9033 248.064 25.0166 248.514 23.36 249.449L25.1658 254.394L21.423 250.845C19.4321 252.66 18.241 255.189 18.1107 257.879C18.0642 258.825 18.1525 259.772 18.3731 260.693C18.8811 262.857 20.0811 264.797 21.7909 266.218C23.5008 267.639 25.6274 268.464 27.8482 268.567Z" fill="#A55AD9"/>
<path opacity="0.1" d="M30.7607 238.483C33.1176 238.74 35.4064 239.475 37.7738 239.622C40.1413 239.769 42.7397 239.202 44.2358 237.36C45.0442 236.373 45.4431 235.118 46.1255 234.037C46.77 233.03 47.6537 232.199 48.6977 231.617C49.3534 232.912 49.7257 234.331 49.7897 235.781C49.8538 237.231 49.6081 238.678 49.069 240.026C48.53 241.373 47.71 242.591 46.6636 243.596C45.6173 244.602 44.3686 245.374 43.0007 245.859C41.6329 246.344 40.1774 246.533 38.7311 246.411C37.2847 246.29 35.8809 245.862 34.613 245.156C33.345 244.449 32.2422 243.481 31.3779 242.315C30.5136 241.149 29.9077 239.812 29.6006 238.394C29.989 238.415 30.3722 238.441 30.7607 238.483Z" fill="black"/>
<path opacity="0.1" d="M27.8479 268.567C29.6082 268.647 31.3594 268.271 32.9316 267.475C34.5038 266.679 35.8436 265.491 36.8212 264.025C37.7988 262.559 38.3809 260.865 38.5111 259.107C38.6414 257.35 38.3152 255.589 37.5644 253.995C36.7551 254.543 36.0584 255.242 35.5119 256.052C34.7823 257.15 34.3413 258.42 33.4857 259.428C31.9109 261.302 29.176 261.911 26.714 261.8C24.2521 261.69 21.8689 260.987 19.4122 260.751C19.071 260.719 18.7245 260.698 18.3623 260.688C18.8698 262.855 20.0709 264.797 21.7829 266.219C23.495 267.641 25.6245 268.466 27.8479 268.567Z" fill="black"/>
<path opacity="0.1" d="M52.6455 285.066C53.9856 285.128 55.325 284.927 56.5871 284.472C57.8492 284.017 59.0094 283.318 60.0014 282.415C60.9934 281.511 61.7977 280.422 62.3685 279.208C62.9392 277.993 63.2652 276.679 63.3279 275.339C63.4074 273.739 63.1051 272.143 62.446 270.682C61.6037 271.244 60.8723 271.955 60.2885 272.782C59.4959 273.9 58.9972 275.192 58.068 276.226C56.3463 278.142 53.4486 278.819 50.8397 278.756C48.3095 278.703 45.8738 278.084 43.3594 277.89C43.9826 279.895 45.2083 281.659 46.8698 282.943C48.5313 284.227 50.548 284.968 52.6455 285.066Z" fill="black"/>
<path opacity="0.1" d="M47.6006 304.913C48.7893 307.249 50.8304 309.039 53.3018 309.912C55.7732 310.786 58.4857 310.675 60.8781 309.605C63.2705 308.534 65.1598 306.584 66.1551 304.16C67.1504 301.735 67.1755 299.02 66.2253 296.577C65.3843 297.131 64.6291 297.805 63.9838 298.577C63.0127 299.764 62.3722 301.108 61.2489 302.21C59.1491 304.257 55.7896 305.102 52.7869 305.181C51.0544 305.195 49.3225 305.106 47.6006 304.913Z" fill="black"/>
<path d="M353.543 275.386C353.553 274.113 353.264 272.856 352.701 271.715C352.138 270.573 351.315 269.58 350.299 268.814C350.173 264 346.74 260.068 342.325 259.459C341.984 257.824 341.218 256.307 340.105 255.061C338.992 253.815 337.571 252.885 335.984 252.362C335.598 252.24 335.203 252.147 334.803 252.084H334.687L334.483 252.058H334.309H334.136H333.91H333.774H333.401C328.897 252.058 325.149 255.501 324.378 260.042C321.464 259.37 318.792 260.241 318.315 262.084C318.191 262.572 318.219 263.087 318.393 263.559C318.887 264.987 320.493 266.352 322.672 267.029L322.955 267.113C323.097 267.155 323.238 267.186 323.38 267.218H323.475C322.674 268.925 322.56 270.876 323.157 272.665C323.754 274.454 325.016 275.945 326.682 276.829C326.616 276.865 326.553 276.906 326.493 276.95C326.224 277.197 326.009 277.497 325.863 277.832C325.337 278.756 324.928 279.741 324.645 280.766C324.435 281.643 324.399 282.562 324.12 283.428C323.643 285.003 322.414 286.383 322.273 288.058C322.21 288.803 322.33 289.68 321.8 290.189C321.668 290.303 321.528 290.406 321.38 290.499C321.009 290.753 320.694 291.082 320.456 291.465C320.302 291.781 320.094 292.069 319.842 292.315C319.364 292.677 318.577 292.64 318.341 293.197C318.105 293.753 318.714 294.409 318.572 295.018C318.456 295.512 317.916 295.738 317.522 296.068C317.082 296.546 316.774 297.13 316.63 297.764C315.845 297.915 315.037 297.891 314.263 297.694C313.489 297.498 312.768 297.132 312.152 296.625C312.363 297.165 312.518 297.727 312.614 298.299C311.989 297.633 310.96 297.438 310.199 297.092C309.217 296.642 308.341 295.991 307.627 295.181L309.002 294.992L302.913 285.753L301.118 285.386L302.729 288.478C302.597 288.541 302.482 288.633 302.391 288.748C302.3 288.863 302.236 288.996 302.204 289.139C302.118 289.482 302.096 289.838 302.141 290.189C302.227 291.018 302.365 291.84 302.556 292.651L303.023 294.824C303.063 295.028 303.114 295.23 303.175 295.428C302.567 295.406 301.958 295.475 301.37 295.633C300.163 295.186 298.906 294.888 297.627 294.745C297.346 294.696 297.057 294.71 296.782 294.787C296.47 294.931 296.199 295.152 295.994 295.428C294.944 296.642 294.013 297.953 293.212 299.344C289.942 305.034 285.574 310 281.485 315.144C278.661 316.294 275.816 317.386 272.965 318.467L266.84 320.803C265.616 321.27 264.346 321.748 263.044 321.664C262.456 321.627 261.742 321.538 261.412 322.037C261.251 322.284 261.125 322.553 261.039 322.835C260.824 322.835 260.609 322.887 260.409 322.898H260.372C259.984 321.932 259.648 320.898 258.903 320.194C258.752 320.217 258.611 320.277 258.49 320.369C258.369 320.461 258.272 320.581 258.21 320.719C258.063 320.992 257.973 321.291 257.805 321.543C257.475 322.026 256.903 322.262 256.493 322.672C256.084 323.081 255.826 323.722 255.385 324.121C254.768 324.57 254.044 324.85 253.286 324.934C252.149 325.202 251.053 325.619 250.026 326.173C249.647 326.406 249.242 326.593 248.819 326.73C248.353 326.819 247.877 326.835 247.406 326.777L244.162 326.541C243.874 326.503 243.581 326.515 243.296 326.577C242.962 326.7 242.678 326.93 242.488 327.231C242.298 327.532 242.213 327.887 242.246 328.241C242.286 328.593 242.397 328.933 242.573 329.24C242.749 329.547 242.986 329.815 243.27 330.026C243.833 330.439 244.456 330.763 245.118 330.987C247.937 332.079 250.843 332.93 253.805 333.533V334.189C255.859 335.223 258.126 335.762 260.425 335.764C260.594 335.777 260.764 335.746 260.918 335.675C261.131 335.515 261.278 335.284 261.333 335.024C262.021 332.965 262.457 330.83 262.63 328.667C263.035 328.64 263.432 328.539 263.8 328.367C264.918 328.063 266.026 328.829 267.175 328.955C268.593 329.108 269.91 328.283 271.249 327.774C271.443 327.701 271.637 327.638 271.832 327.575C271.45 328.069 270.999 328.505 270.493 328.871C269.937 329.27 269.312 329.564 268.766 329.979C268.312 330.394 267.826 330.771 267.312 331.108C266.949 331.276 266.576 331.42 266.194 331.538C265.64 331.74 265.111 332.006 264.619 332.331C264.178 332.591 263.804 332.95 263.527 333.381C263.388 333.581 263.302 333.815 263.278 334.058C263.254 334.302 263.293 334.547 263.391 334.771C263.489 334.995 263.642 335.191 263.837 335.339C264.032 335.487 264.261 335.583 264.504 335.617C264.942 335.695 265.39 335.707 265.832 335.654C267.585 335.522 269.333 335.36 271.081 335.202C271.821 335.153 272.556 335.047 273.28 334.887C273.664 334.793 274.042 334.667 274.425 334.567C275.079 334.394 275.749 334.294 276.425 334.268C276.621 334.252 276.818 334.272 277.007 334.325C277.417 334.457 277.706 334.85 278.12 334.955C278.39 334.982 278.661 334.944 278.913 334.845C280.193 334.567 281.499 334.428 282.808 334.43C283.38 334.399 284.052 334.289 284.32 333.759C284.645 333.102 284.099 332.367 283.884 331.659C283.774 331.208 283.715 330.747 283.706 330.283C283.606 329.14 283.277 328.028 282.74 327.013C282.454 326.54 282.213 326.041 282.021 325.522C284.529 324.568 286.929 323.35 289.181 321.89C290.472 321.087 291.805 320.22 293.265 319.926C294.965 319.585 296.719 320.037 298.393 320.52C302.382 321.674 306.306 323.042 310.147 324.619C311.984 325.37 313.821 326.168 315.7 326.719C316.25 327.461 316.914 328.109 317.669 328.64C318.929 329.454 320.467 329.69 321.947 329.806C323.947 329.988 325.955 330.064 327.963 330.031C329.496 330.005 331.076 329.9 332.446 329.202C332.781 329.03 333.096 328.823 333.385 328.583C334.435 328.772 335.511 328.21 336.336 327.491C337.426 326.563 338.213 325.328 338.593 323.948C339.076 322.052 338.703 319.843 339.868 318.294C340.178 317.879 340.582 317.543 340.887 317.123C341.262 316.561 341.446 315.893 341.412 315.218L341.464 315.139C341.728 314.53 341.905 313.887 341.989 313.228C342.127 312.714 342.303 312.21 342.514 311.722C343.106 310.257 343.621 308.762 344.057 307.244C344.361 306.237 344.599 305.211 344.771 304.173C344.897 303.344 344.971 302.509 345.039 301.675C345.123 300.368 345.377 299.078 345.795 297.837C346.831 294.876 347.417 291.776 347.532 288.64C347.532 288.577 347.532 288.52 347.532 288.457C349.056 288.29 350.463 287.56 351.478 286.41C352.492 285.261 353.042 283.774 353.018 282.241C353.019 281.317 352.826 280.403 352.451 279.559C353.175 278.288 353.552 276.849 353.543 275.386ZM323.858 311.454C323.947 311.774 324.052 312.094 324.157 312.415C323.674 311.937 323.196 311.444 322.708 310.971C322.903 311.029 323.097 311.092 323.286 311.16C323.487 311.24 323.68 311.338 323.863 311.454H323.858ZM321.506 309.879C318.64 307.391 315.322 305.459 312.388 303.055C313.963 303.848 315.538 304.766 317.112 305.648C318.946 306.698 320.801 307.703 322.677 308.661C322.369 309.128 321.978 309.534 321.522 309.858L321.506 309.879ZM322.729 303.612L322.866 303.47C322.866 303.822 322.866 304.152 322.866 304.451C322.609 304.367 322.341 304.283 322.094 304.189C322.321 304.004 322.535 303.804 322.735 303.591L322.729 303.612ZM297.496 310.352C298.676 309.017 299.702 307.554 300.556 305.989C301.69 307.979 303.538 309.412 305.112 311.076C302.582 310.719 300.047 310.441 297.501 310.331L297.496 310.352Z" fill="url(#paint0_linear_237_703)"/>
<path d="M301.591 286.152L303.402 286.52L309.57 295.633L306.845 296L301.591 286.152Z" fill="#2F2E41"/>
<path d="M257.732 323.139C258.221 324.754 258.822 326.333 259.533 327.864C261.577 327.436 263.587 326.862 265.549 326.147C265.169 325.556 264.752 324.989 264.299 324.451C263.817 323.915 263.241 323.472 262.599 323.144C261.974 322.871 261.202 323.076 260.536 323.113C259.601 323.148 258.667 323.157 257.732 323.139Z" fill="#FBBEBE"/>
<path d="M262.609 325.575C261.591 325.255 260.966 324.226 260.552 323.234C260.137 322.241 259.801 321.16 259.013 320.43C258.864 320.454 258.722 320.514 258.601 320.606C258.48 320.697 258.384 320.817 258.321 320.955C258.168 321.218 258.079 321.517 257.906 321.769C257.58 322.241 257.003 322.472 256.588 322.877C256.174 323.281 255.916 323.895 255.47 324.299C254.851 324.744 254.128 325.023 253.37 325.108C252.226 325.367 251.121 325.776 250.084 326.325C249.701 326.548 249.292 326.724 248.867 326.85C248.398 326.94 247.918 326.956 247.444 326.898L244.174 326.661C243.883 326.625 243.588 326.639 243.302 326.703C242.969 326.819 242.684 327.044 242.494 327.341C242.304 327.638 242.219 327.99 242.252 328.341C242.296 328.691 242.411 329.028 242.592 329.331C242.773 329.634 243.015 329.895 243.302 330.1C243.871 330.506 244.497 330.825 245.16 331.045C248.01 332.116 250.942 332.953 253.927 333.549V334.194C256.002 335.221 258.284 335.76 260.599 335.769C260.779 335.785 260.959 335.754 261.124 335.68C261.336 335.524 261.486 335.297 261.544 335.039C262.328 332.746 262.786 330.353 262.903 327.932C262.963 327.319 262.917 326.701 262.767 326.105C262.588 325.517 263.197 325.764 262.63 325.533" fill="#2F2E41"/>
<path d="M325.307 313.249C315.612 313.837 306.037 310.992 296.325 310.688C295.12 310.614 293.91 310.692 292.724 310.919C291.488 311.25 290.291 311.715 289.155 312.304C283.953 314.724 278.567 316.73 273.186 318.735L267.013 321.034C265.774 321.491 264.499 321.958 263.181 321.879C262.593 321.842 261.874 321.753 261.538 322.247C260.535 323.732 261.013 325.921 261.675 327.591C261.89 328.115 262.252 328.719 262.829 328.782C263.238 328.754 263.638 328.653 264.01 328.483C265.134 328.184 266.257 328.94 267.412 329.06C268.845 329.213 270.173 328.399 271.522 327.9C273.758 327.076 276.205 327.102 278.556 326.709C282.504 326.052 286.157 324.22 289.58 322.131C290.882 321.339 292.205 320.488 293.696 320.199C295.412 319.863 297.181 320.304 298.866 320.782C302.883 321.919 306.838 323.267 310.714 324.819C312.731 325.695 314.8 326.449 316.908 327.076C321.503 328.286 326.364 328.003 330.787 326.268C332.362 325.654 334.021 324.572 334.11 322.898C334.163 321.942 333.423 321.102 332.929 320.273C332.609 319.748 332.294 319.223 331.947 318.724C330.278 316.289 328.252 313.071 325.307 313.249Z" fill="#2F2E41"/>
<path opacity="0.1" d="M325.307 313.249C315.612 313.837 306.037 310.992 296.325 310.688C295.12 310.614 293.91 310.692 292.724 310.919C291.488 311.25 290.291 311.715 289.155 312.304C283.953 314.724 278.567 316.73 273.186 318.735L267.013 321.034C265.774 321.491 264.499 321.958 263.181 321.879C262.593 321.842 261.874 321.753 261.538 322.247C260.535 323.732 261.013 325.921 261.675 327.591C261.89 328.115 262.252 328.719 262.829 328.782C263.238 328.754 263.638 328.653 264.01 328.483C265.134 328.184 266.257 328.94 267.412 329.06C268.845 329.213 270.173 328.399 271.522 327.9C273.758 327.076 276.205 327.102 278.556 326.709C282.504 326.052 286.157 324.22 289.58 322.131C290.882 321.339 292.205 320.488 293.696 320.199C295.412 319.863 297.181 320.304 298.866 320.782C302.883 321.919 306.838 323.267 310.714 324.819C312.731 325.695 314.8 326.449 316.908 327.076C321.503 328.286 326.364 328.003 330.787 326.268C332.362 325.654 334.021 324.572 334.11 322.898C334.163 321.942 333.423 321.102 332.929 320.273C332.609 319.748 332.294 319.223 331.947 318.724C330.278 316.289 328.252 313.071 325.307 313.249Z" fill="black"/>
<path d="M276.341 323.612C277.86 324.126 279.389 324.602 280.929 325.039C281.795 323.617 283.412 322.63 283.779 321.008C283.8 320.938 283.8 320.863 283.779 320.793C283.739 320.724 283.678 320.669 283.606 320.635C282.499 320.025 281.271 319.666 280.01 319.585C279.013 319.522 278.561 320.562 278.11 321.291C277.952 321.585 276.745 323.748 276.341 323.612Z" fill="#FBBEBE"/>
<path d="M278.478 322.572C278.024 322.497 277.592 322.328 277.208 322.075C276.824 321.823 276.496 321.494 276.247 321.108C276.032 320.735 275.806 320.231 275.375 320.257C274.945 320.283 274.798 320.756 274.709 321.15C274.418 322.62 273.998 324.062 273.454 325.459C272.905 326.86 271.976 328.08 270.772 328.982C270.21 329.37 269.585 329.664 269.034 330.073C268.575 330.483 268.083 330.855 267.564 331.186C267.199 331.353 266.822 331.494 266.436 331.606C265.87 331.804 265.329 332.066 264.824 332.388C264.381 332.648 264.006 333.007 263.727 333.438C263.593 333.657 263.514 333.905 263.497 334.161C263.481 334.418 263.527 334.674 263.633 334.908C263.746 335.098 263.898 335.263 264.079 335.39C264.26 335.518 264.465 335.606 264.682 335.648C265.125 335.722 265.576 335.732 266.021 335.68C267.79 335.549 269.554 335.391 271.318 335.234C272.064 335.187 272.807 335.086 273.538 334.929C273.927 334.835 274.305 334.709 274.688 334.609C275.349 334.44 276.027 334.342 276.709 334.315C276.907 334.3 277.105 334.32 277.297 334.373C277.706 334.504 277.995 334.898 278.415 334.992C278.685 335.02 278.959 334.984 279.213 334.887C280.504 334.614 281.82 334.477 283.139 334.478C283.717 334.446 284.399 334.336 284.661 333.816C284.992 333.171 284.446 332.446 284.226 331.753C284.117 331.31 284.055 330.856 284.042 330.399C283.943 329.271 283.612 328.176 283.071 327.181C282.619 326.352 282.021 325.438 282.32 324.556C282.481 324.281 282.583 323.976 282.619 323.659C282.546 322.236 279.276 322.761 278.478 322.572Z" fill="#2F2E41"/>
<path d="M310.772 297.701C309.054 296.943 307.678 295.576 306.908 293.864C306.751 293.496 306.614 293.113 306.462 292.74C305.951 291.508 305.16 290.412 304.152 289.538C304.044 289.419 303.912 289.325 303.764 289.263C303.616 289.2 303.457 289.171 303.297 289.176C303.141 289.222 303.001 289.309 302.891 289.427C302.78 289.545 302.703 289.69 302.667 289.848C302.577 290.19 302.554 290.547 302.598 290.898C302.688 291.712 302.828 292.52 303.018 293.318L303.491 295.459C303.55 295.788 303.649 296.109 303.785 296.415C303.987 296.774 304.254 297.093 304.572 297.354C305.003 297.753 305.438 298.136 305.879 298.509C306.122 298.729 306.388 298.923 306.672 299.087C307.138 299.307 307.636 299.453 308.147 299.517C310.073 299.874 312.031 300.388 313.654 301.617C313.654 301.617 313.654 300.184 313.617 300.042C313.597 299.627 313.455 299.227 313.207 298.892C312.598 298.236 311.549 298.042 310.772 297.701Z" fill="#FBBEBE"/>
<path opacity="0.1" d="M310.772 297.701C309.054 296.943 307.678 295.576 306.908 293.864C306.751 293.496 306.614 293.113 306.462 292.74C305.951 291.508 305.16 290.412 304.152 289.538C304.044 289.419 303.912 289.325 303.764 289.263C303.616 289.2 303.457 289.171 303.297 289.176C303.141 289.222 303.001 289.309 302.891 289.427C302.78 289.545 302.703 289.69 302.667 289.848C302.577 290.19 302.554 290.547 302.598 290.898C302.688 291.712 302.828 292.52 303.018 293.318L303.491 295.459C303.55 295.788 303.649 296.109 303.785 296.415C303.987 296.774 304.254 297.093 304.572 297.354C305.003 297.753 305.438 298.136 305.879 298.509C306.122 298.729 306.388 298.923 306.672 299.087C307.138 299.307 307.636 299.453 308.147 299.517C310.073 299.874 312.031 300.388 313.654 301.617C313.654 301.617 313.654 300.184 313.617 300.042C313.597 299.627 313.455 299.227 313.207 298.892C312.598 298.236 311.549 298.042 310.772 297.701Z" fill="black"/>
<path d="M330.509 281.323C331.811 281.323 332.866 280.261 332.866 278.95C332.866 277.64 331.811 276.577 330.509 276.577C329.208 276.577 328.152 277.64 328.152 278.95C328.152 280.261 329.208 281.323 330.509 281.323Z" fill="#2F2E41"/>
<path d="M329.05 277.517C328.417 277.373 327.753 277.468 327.187 277.785C326.914 278.026 326.698 278.323 326.552 278.656C326.021 279.563 325.609 280.533 325.323 281.543C325.113 282.409 325.076 283.312 324.798 284.168C324.315 285.743 323.076 287.081 322.935 288.724C322.872 289.459 322.992 290.325 322.457 290.824C322.324 290.936 322.182 291.036 322.032 291.123C321.659 291.374 321.342 291.699 321.103 292.079C320.942 292.42 320.72 292.728 320.447 292.987C319.964 293.344 319.171 293.307 318.935 293.858C318.698 294.409 319.307 295.05 319.166 295.648C319.05 296.136 318.504 296.362 318.116 296.698C317.673 297.167 317.364 297.745 317.218 298.373C316.43 298.521 315.618 298.497 314.84 298.302C314.062 298.107 313.335 297.746 312.709 297.244C313.365 298.866 313.381 300.656 313.407 302.404C313.483 302.963 313.334 303.53 312.992 303.979C314.872 304.021 316.698 304.504 318.53 304.94C319.314 305.202 320.162 305.202 320.945 304.94C321.364 304.714 321.739 304.415 322.053 304.058C323.05 303.045 324.095 301.958 324.336 300.546C324.4 299.751 324.414 298.954 324.378 298.157C324.475 297.174 324.677 296.205 324.982 295.265C325.509 293.314 325.86 291.32 326.032 289.307C326.142 288.063 327.213 287.066 327.78 285.953C328.83 283.853 329.932 281.675 330.016 279.323C330.09 278.556 329.827 277.617 329.05 277.517Z" fill="#2F2E41"/>
<path opacity="0.1" d="M329.05 277.517C328.417 277.373 327.753 277.468 327.187 277.785C326.914 278.026 326.698 278.323 326.552 278.656C326.021 279.563 325.609 280.533 325.323 281.543C325.113 282.409 325.076 283.312 324.798 284.168C324.315 285.743 323.076 287.081 322.935 288.724C322.872 289.459 322.992 290.325 322.457 290.824C322.324 290.936 322.182 291.036 322.032 291.123C321.659 291.374 321.342 291.699 321.103 292.079C320.942 292.42 320.72 292.728 320.447 292.987C319.964 293.344 319.171 293.307 318.935 293.858C318.698 294.409 319.307 295.05 319.166 295.648C319.05 296.136 318.504 296.362 318.116 296.698C317.673 297.167 317.364 297.745 317.218 298.373C316.43 298.521 315.618 298.497 314.84 298.302C314.062 298.107 313.335 297.746 312.709 297.244C313.365 298.866 313.381 300.656 313.407 302.404C313.483 302.963 313.334 303.53 312.992 303.979C314.872 304.021 316.698 304.504 318.53 304.94C319.314 305.202 320.162 305.202 320.945 304.94C321.364 304.714 321.739 304.415 322.053 304.058C323.05 303.045 324.095 301.958 324.336 300.546C324.4 299.751 324.414 298.954 324.378 298.157C324.475 297.174 324.677 296.205 324.982 295.265C325.509 293.314 325.86 291.32 326.032 289.307C326.142 288.063 327.213 287.066 327.78 285.953C328.83 283.853 329.932 281.675 330.016 279.323C330.09 278.556 329.827 277.617 329.05 277.517Z" fill="black"/>
<path d="M326.845 315.291C324.824 314.331 323.349 312.541 321.717 311.008C318.598 308.079 314.787 306.011 311.512 303.265C309.344 301.449 307.402 299.333 305.013 297.811C302.913 296.471 300.53 295.635 298.053 295.37C297.769 295.321 297.479 295.335 297.202 295.412C296.889 295.552 296.617 295.769 296.409 296.042C295.351 297.235 294.411 298.527 293.601 299.9C289.449 306.945 283.554 312.871 278.667 319.428C278.51 319.582 278.417 319.79 278.406 320.01C278.396 320.23 278.468 320.445 278.609 320.614L279.601 322.562C280.158 323.648 281.05 324.919 282.226 324.703C282.765 324.548 283.248 324.24 283.617 323.816L288.079 319.549L292.756 315.076C295.496 312.451 298.284 309.774 300.074 306.425C301.47 308.845 303.948 310.43 305.648 312.651C306.294 313.491 306.819 314.42 307.396 315.312C308.326 316.745 309.375 318.089 310.425 319.428L315.795 326.278C316.473 327.254 317.313 328.106 318.278 328.798C319.549 329.601 321.097 329.816 322.593 329.948C324.609 330.131 326.633 330.205 328.656 330.168C330.2 330.142 331.806 330.042 333.171 329.354C334.535 328.667 335.696 327.255 335.622 325.717C335.539 324.911 335.275 324.134 334.85 323.444C332.955 319.927 330.446 316.987 326.845 315.291Z" fill="#2F2E41"/>
<path d="M331.958 282.415C332.958 282.415 333.769 281.599 333.769 280.593C333.769 279.587 332.958 278.772 331.958 278.772C330.957 278.772 330.146 279.587 330.146 280.593C330.146 281.599 330.957 282.415 331.958 282.415Z" fill="#E8E8F0"/>
<path d="M331.559 279.223C331.968 280.038 332.04 280.981 331.759 281.848C331.479 282.701 331.087 283.513 330.593 284.262C330.168 285.037 329.66 285.762 329.076 286.425C331.874 286.562 334.588 285.465 337.055 284.131C339.045 283.081 341.029 281.743 342.089 279.743C341.774 279.818 341.446 279.827 341.127 279.768C340.808 279.709 340.504 279.584 340.236 279.402C339.702 279.03 339.224 278.584 338.814 278.079L337.412 276.504C337.081 276.158 336.79 275.776 336.546 275.365C336.239 274.806 336.109 274.167 336.173 273.533C335.615 274.117 334.992 274.635 334.315 275.076C333.312 275.732 332.215 276.205 331.202 276.85C330.845 277.081 330.053 277.454 330.257 277.9C330.462 278.346 331.276 278.719 331.559 279.223Z" fill="#FBBEBE"/>
<path opacity="0.1" d="M331.559 279.223C331.968 280.038 332.04 280.981 331.759 281.848C331.479 282.701 331.087 283.513 330.593 284.262C330.168 285.037 329.66 285.762 329.076 286.425C331.874 286.562 334.588 285.465 337.055 284.131C339.045 283.081 341.029 281.743 342.089 279.743C341.774 279.818 341.446 279.827 341.127 279.768C340.808 279.709 340.504 279.584 340.236 279.402C339.702 279.03 339.224 278.584 338.814 278.079L337.412 276.504C337.081 276.158 336.79 275.776 336.546 275.365C336.239 274.806 336.109 274.167 336.173 273.533C335.615 274.117 334.992 274.635 334.315 275.076C333.312 275.732 332.215 276.205 331.202 276.85C330.845 277.081 330.053 277.454 330.257 277.9C330.462 278.346 331.276 278.719 331.559 279.223Z" fill="black"/>
<path d="M331.596 279.496C331.313 279.896 331.161 280.374 331.161 280.863C331.161 281.353 331.313 281.831 331.596 282.231C331.674 282.331 331.974 282.955 332.121 282.961C332.244 282.95 332.359 282.892 332.441 282.798C333.075 282.135 333.667 281.434 334.215 280.698C334.768 279.953 335.568 279.428 336.472 279.218C337.569 279.045 338.624 279.627 339.585 280.184C339.998 280.389 340.357 280.687 340.635 281.055C340.837 281.42 340.957 281.825 340.987 282.241C341.262 284.744 341.368 287.263 341.302 289.779C341.353 291.594 341.233 293.41 340.945 295.202C340.766 296.126 340.499 297.029 340.373 297.963C340.281 298.786 340.244 299.613 340.262 300.441V303.905C340.239 304.54 340.285 305.176 340.399 305.8C340.615 306.546 340.869 307.28 341.16 308C341.415 308.857 341.591 309.735 341.685 310.625L342.157 314.21C342.31 315.344 342.42 316.577 341.732 317.486C341.428 317.9 341.018 318.226 340.682 318.635C339.501 320.136 339.895 322.315 339.37 324.178C338.982 325.546 338.187 326.763 337.092 327.669C336.257 328.378 335.176 328.94 334.094 328.719C332.64 328.446 331.764 326.929 331.365 325.496C330.966 324.063 330.84 322.499 329.963 321.297C329.26 320.304 328.173 319.685 327.191 318.976C326.21 318.268 325.244 317.36 325.029 316.163C324.934 315.638 324.992 315.113 324.939 314.588C324.861 313.919 324.605 313.283 324.197 312.748C323.788 312.212 323.244 311.796 322.619 311.543C321.874 311.255 320.95 311.15 320.52 310.493C321.588 309.822 322.367 308.775 322.703 307.559C323.029 306.36 323.205 305.126 323.228 303.884L323.48 299.716C323.59 297.853 323.643 296.005 324.462 294.331C324.829 293.585 325.286 292.882 325.664 292.142C326.17 291.103 326.602 290.029 326.955 288.929C327.548 287.223 328.147 285.512 328.677 283.785C328.889 282.948 329.207 282.142 329.622 281.386C330.11 280.598 330.756 279.654 331.596 279.496Z" fill="#E8E8F0"/>
<path d="M322.342 306.577L323.444 306.614L323.68 304.95C323.712 304.617 323.789 304.29 323.911 303.979C324.094 303.651 324.307 303.34 324.546 303.05C325.633 301.517 325.554 299.48 325.822 297.617C326.179 295.134 327.218 292.803 328.247 290.514L330.389 285.743C330.58 285.35 330.733 284.941 330.846 284.52C330.939 284.055 330.983 283.582 330.977 283.108C330.977 282.373 331.218 279.69 331.234 278.95C331.234 278.677 330.636 278.829 330.51 278.588C330.242 278.063 329.874 279.491 329.37 279.806C328.895 280.169 328.55 280.675 328.384 281.249C327.922 282.451 327.638 283.716 327.208 284.924C326.83 286.16 326.141 287.279 325.208 288.173C324.772 288.562 324.263 288.866 323.848 289.276C322.515 290.593 322.389 292.672 322.342 294.525C322.31 295.675 322.095 306.577 322.342 306.577Z" fill="#2F2E41"/>
<path d="M338.221 277.507C337.171 277.926 336.562 279.081 336.263 280.205C335.964 281.328 335.838 282.514 335.26 283.512C333.916 285.853 330.489 286.535 329.538 289.066C329.296 289.92 329.168 290.802 329.155 291.69C328.987 293.501 328.389 295.255 328.21 297.066C328.118 298.474 328.151 299.889 328.31 301.291L329.512 315.585C329.745 317.69 329.623 319.82 329.15 321.885C330.383 322.062 331.64 321.855 332.751 321.291C333.88 320.766 334.908 320.073 335.99 319.475C337.853 318.425 339.911 317.717 341.538 316.325C341.834 316.095 342.088 315.817 342.289 315.501C342.55 314.9 342.727 314.266 342.814 313.617C342.952 313.111 343.128 312.616 343.339 312.136C343.942 310.696 344.467 309.224 344.914 307.727C345.219 306.734 345.46 305.722 345.633 304.698C345.764 303.885 345.832 303.06 345.906 302.241C345.99 300.953 346.246 299.682 346.667 298.462C347.708 295.55 348.298 292.497 348.415 289.407C348.451 288.96 348.421 288.511 348.326 288.073C348.144 287.543 347.901 287.035 347.601 286.562C347.103 285.622 346.803 284.588 346.331 283.638C345.281 281.486 343.397 279.853 341.428 278.483C340.42 277.816 339.313 277.092 338.221 277.507Z" fill="#2F2E41"/>
<path d="M313.16 300.829C312.307 300.384 311.535 299.798 310.876 299.097C310.577 298.745 310.351 298.352 310.026 298.005C309.255 297.183 308.254 296.613 307.155 296.367C306.062 296.127 304.945 296.019 303.826 296.047C303.079 295.996 302.33 296.087 301.616 296.315C301.258 296.432 300.936 296.638 300.679 296.913C300.422 297.189 300.239 297.525 300.147 297.89C299.984 298.782 300.567 299.648 301.265 300.215C301.914 300.746 302.678 301.118 303.496 301.302C304.163 301.417 304.836 301.496 305.511 301.538C309.48 301.953 313.023 304.11 316.498 306.079C319.553 307.804 322.668 309.419 325.842 310.924C325.968 309.974 326.021 309.016 326 308.058C326 307.344 325.947 306.252 325.27 305.832C324.483 305.339 323.17 305.228 322.299 304.934C320.253 304.267 318.255 303.46 316.32 302.52C315.223 301.989 314.173 301.428 313.16 300.829Z" fill="#FBBEBE"/>
<path d="M330.509 278.409C334.414 278.409 337.58 275.225 337.58 271.297C337.58 267.368 334.414 264.184 330.509 264.184C326.604 264.184 323.438 267.368 323.438 271.297C323.438 275.225 326.604 278.409 330.509 278.409Z" fill="#FBBEBE"/>
<path d="M340.241 285.57C339.679 286.36 339.218 287.219 338.871 288.126C337.995 289.927 336.624 291.47 335.942 293.375C335.218 295.354 335.244 297.711 333.842 299.27C333.561 299.507 333.348 299.815 333.228 300.163C333.22 300.379 333.195 300.595 333.155 300.808C332.955 301.375 332.026 301.402 331.853 301.979C331.806 302.147 331.853 302.331 331.769 302.504C331.627 302.877 331.139 302.929 330.808 303.155C330.121 303.622 330.283 304.703 329.758 305.375C329.545 305.625 329.269 305.813 328.96 305.922C328.65 306.031 328.317 306.056 327.995 305.995C327.351 305.859 326.732 305.627 326.157 305.307C325.955 305.193 325.732 305.124 325.501 305.102C325.227 305.108 324.961 305.198 324.74 305.36C323.433 306.189 322.819 307.837 322.829 309.391C322.921 310.945 323.289 312.47 323.916 313.895C323.99 314.141 324.113 314.37 324.278 314.567C324.709 315.024 325.464 314.95 326.042 314.693C326.583 314.373 327.159 314.115 327.758 313.926C328.85 313.727 329.921 314.483 331.029 314.42C331.839 314.297 332.602 313.96 333.239 313.444C334.363 312.761 335.37 311.901 336.22 310.898C336.703 310.262 337.06 309.538 337.485 308.861C338.028 308.029 338.625 307.233 339.27 306.478L343.349 301.486C343.758 301.013 344.125 300.505 344.446 299.969C344.814 299.243 345.101 298.479 345.302 297.69C345.739 296.375 346.022 295.013 346.147 293.633C346.168 292.49 346.067 291.348 345.848 290.226C345.711 289.11 345.415 288.019 344.971 286.987C344.063 285.15 341.905 283.627 340.241 285.57Z" fill="#2F2E41"/>
<path d="M354.446 276.304C354.452 275.043 354.158 273.799 353.589 272.674C353.019 271.548 352.19 270.574 351.171 269.832C351.14 267.593 350.315 265.438 348.843 263.751C347.371 262.064 345.348 260.954 343.134 260.619C342.706 258.499 341.543 256.597 339.851 255.25C338.158 253.902 336.044 253.195 333.882 253.254C331.719 253.312 329.646 254.132 328.029 255.569C326.411 257.005 325.353 258.967 325.04 261.108C322.1 260.446 319.412 261.307 318.924 263.118C318.399 265.013 320.499 267.228 323.607 268.068C324.58 268.343 325.595 268.445 326.604 268.367C327.327 269.429 328.263 270.327 329.353 271.005C330.444 271.683 331.663 272.126 332.935 272.304C333.308 274.017 334.152 275.591 335.372 276.849C336.591 278.108 338.138 279.001 339.838 279.428C340.308 280.564 341.038 281.574 341.969 282.378C341.969 282.598 341.932 282.824 341.932 283.055C341.898 283.862 342.028 284.668 342.314 285.423C342.599 286.179 343.034 286.869 343.593 287.451C344.152 288.034 344.824 288.498 345.566 288.815C346.309 289.132 347.109 289.295 347.916 289.295C348.724 289.295 349.523 289.132 350.266 288.815C351.009 288.498 351.68 288.034 352.239 287.451C352.798 286.869 353.234 286.179 353.519 285.423C353.805 284.668 353.934 283.862 353.901 283.055C353.901 282.149 353.706 281.254 353.328 280.43C354.066 279.181 354.453 277.755 354.446 276.304Z" fill="#F86D70"/>
<path opacity="0.1" d="M320.918 263.48C321.407 261.669 324.068 260.808 327.034 261.47C327.379 259.296 328.481 257.313 330.145 255.873C331.81 254.432 333.93 253.626 336.131 253.596C336.336 253.596 336.54 253.596 336.74 253.596C335.889 253.336 335.005 253.205 334.115 253.207C331.914 253.237 329.794 254.043 328.13 255.484C326.465 256.925 325.363 258.907 325.018 261.081C322.079 260.42 319.391 261.281 318.903 263.092C318.378 264.987 320.477 267.202 323.585 268.042C324.163 268.202 324.756 268.304 325.354 268.346C322.404 267.486 320.42 265.333 320.918 263.48Z" fill="black"/>
<path opacity="0.1" d="M343.927 283.423C343.927 283.192 343.927 282.966 343.964 282.74C343.032 281.939 342.302 280.93 341.832 279.795C340.134 279.364 338.589 278.469 337.37 277.21C336.151 275.951 335.306 274.378 334.929 272.667C333.658 272.489 332.438 272.046 331.347 271.368C330.257 270.69 329.321 269.791 328.599 268.73C328.011 268.776 327.42 268.76 326.835 268.682C327.561 269.661 328.474 270.485 329.521 271.106C330.568 271.728 331.729 272.135 332.935 272.304C333.308 274.017 334.152 275.591 335.372 276.849C336.591 278.108 338.138 279.001 339.838 279.428C340.308 280.564 341.038 281.574 341.969 282.378C341.969 282.598 341.932 282.824 341.932 283.055C341.905 284.664 342.516 286.219 343.631 287.379C344.747 288.54 346.276 289.212 347.885 289.249C346.71 288.796 345.702 287.996 344.995 286.955C344.288 285.913 343.915 284.681 343.927 283.423Z" fill="black"/>
<path d="M333.744 273.903C334.224 273.538 334.219 272.724 333.734 272.084C333.248 271.445 332.465 271.222 331.985 271.587C331.504 271.952 331.509 272.766 331.995 273.405C332.481 274.045 333.264 274.267 333.744 273.903Z" fill="#FBBEBE"/>
<path d="M164.724 309.297L171.717 305.186C170.772 303.571 169.563 302.125 168.142 300.908L154.955 305.008L165.286 298.934C162.728 297.533 159.849 296.823 156.933 296.872C154.017 296.922 151.164 297.73 148.654 299.217C146.145 300.703 144.066 302.818 142.623 305.352C141.179 307.886 140.42 310.753 140.42 313.669C140.42 322.945 147.942 323.265 157.218 323.265C166.493 323.265 174.016 322.945 174.016 313.669C174.021 311.318 173.529 308.993 172.572 306.845L164.724 309.297Z" fill="#A55AD9"/>
<path opacity="0.1" d="M166.504 318.315C165.759 317.569 164.927 316.915 164.026 316.367C162.761 315.522 161.444 314.661 159.947 314.378C158.635 314.126 157.281 314.341 155.942 314.262C153.618 314.121 151.43 313.117 149.806 311.449C148.85 310.462 148.1 309.249 146.95 308.493C145.665 307.73 144.149 307.452 142.677 307.711C142.251 307.771 141.828 307.857 141.412 307.969C140.754 309.797 140.418 311.726 140.42 313.669C140.42 322.945 147.942 323.265 157.218 323.265C161.722 323.265 165.806 323.192 168.824 322.053L168.299 321.113C167.822 320.108 167.219 319.167 166.504 318.315Z" fill="black"/>
</g>
<defs>
<linearGradient id="paint0_linear_237_703" x1="297.9" y1="335.769" x2="297.9" y2="251.969" gradientUnits="userSpaceOnUse">
<stop stop-color="#808080" stop-opacity="0.25"/>
<stop offset="0.54" stop-color="#808080" stop-opacity="0.12"/>
<stop offset="1" stop-color="#808080" stop-opacity="0.1"/>
</linearGradient>
<clipPath id="clip0_237_703">
<rect width="600" height="348.415" fill="white"/>
</clipPath>
</defs>
</svg>
