<svg width="700" height="557" viewBox="0 0 700 557" fill="none" xmlns="http://www.w3.org/2000/svg">
<g clip-path="url(#clip0_231_1660)">
<path d="M522.174 549.538C512.485 541.351 506.599 528.418 508.143 515.827C509.686 503.236 519.246 491.661 531.646 488.987C544.046 486.314 558.181 493.715 561.948 505.828C564.02 482.475 566.409 458.143 578.825 438.255C590.068 420.247 609.54 407.362 630.643 405.057C651.747 402.752 673.966 411.458 687.128 428.115C700.289 444.772 703.512 468.987 694.294 488.111C687.503 502.198 674.993 512.682 661.885 521.211C619.528 548.541 568.727 559.654 518.828 552.508" fill="#F2F2F2"/>
<path d="M666.259 411.941C648.846 426.124 632.871 441.986 618.566 459.299C596.179 486.301 578.062 516.575 564.848 549.067C563.881 551.437 567.73 552.469 568.687 550.125C590.307 497.32 624.821 450.777 669.074 414.755C671.061 413.137 668.23 410.336 666.259 411.941Z" fill="white"/>
<path d="M171.142 555.142H116.191C114.334 555.14 112.554 554.401 111.241 553.088C109.928 551.775 109.19 549.995 109.188 548.138V433.928C109.19 432.071 109.928 430.291 111.241 428.978C112.554 427.665 114.334 426.926 116.191 426.924H171.142C172.998 426.926 174.778 427.665 176.091 428.978C177.404 430.291 178.143 432.071 178.145 433.928V548.138C178.143 549.995 177.404 551.775 176.091 553.088C174.778 554.401 172.998 555.14 171.142 555.142Z" fill="#A55AD9"/>
<path d="M301.514 556.219H246.564C244.421 556.217 242.367 555.365 240.852 553.85C239.337 552.335 238.485 550.281 238.483 548.139V326.182C238.485 324.039 239.337 321.985 240.852 320.47C242.367 318.955 244.421 318.103 246.564 318.101H301.514C303.657 318.103 305.711 318.955 307.226 320.47C308.741 321.985 309.593 324.039 309.595 326.182V548.139C309.593 550.281 308.741 552.335 307.226 553.85C305.711 555.365 303.657 556.217 301.514 556.219ZM246.564 320.256C244.993 320.257 243.486 320.882 242.375 321.993C241.265 323.104 240.64 324.61 240.638 326.182V548.139C240.64 549.71 241.265 551.216 242.375 552.327C243.486 553.438 244.993 554.063 246.564 554.065H301.514C303.085 554.063 304.592 553.438 305.703 552.327C306.814 551.216 307.439 549.71 307.44 548.139V326.182C307.439 324.61 306.814 323.104 305.703 321.993C304.592 320.882 303.085 320.257 301.514 320.256H246.564Z" fill="#3F3D56"/>
<path d="M431.887 556.219H376.937C374.794 556.217 372.74 555.365 371.225 553.85C369.71 552.335 368.858 550.281 368.856 548.138V185.034C368.858 182.892 369.71 180.838 371.225 179.323C372.74 177.808 374.794 176.956 376.937 176.953H431.887C434.03 176.956 436.084 177.808 437.599 179.323C439.114 180.838 439.966 182.892 439.968 185.034V548.138C439.966 550.281 439.114 552.335 437.599 553.85C436.084 555.365 434.03 556.217 431.887 556.219ZM376.937 179.108C375.366 179.11 373.859 179.735 372.748 180.846C371.637 181.957 371.012 183.463 371.011 185.034V548.138C371.012 549.71 371.637 551.216 372.748 552.327C373.859 553.438 375.366 554.063 376.937 554.064H431.887C433.458 554.063 434.965 553.438 436.076 552.327C437.187 551.216 437.811 549.71 437.813 548.138V185.034C437.811 183.463 437.187 181.957 436.076 180.846C434.965 179.735 433.458 179.11 431.887 179.108H376.937Z" fill="#3F3D56"/>
<path d="M563.477 555.681H508.526C506.669 555.679 504.889 554.94 503.576 553.627C502.263 552.314 501.525 550.534 501.523 548.677V36.8833C501.525 35.0265 502.263 33.2464 503.576 31.9334C504.889 30.6205 506.669 29.8819 508.526 29.8798H563.477C565.334 29.8819 567.114 30.6205 568.427 31.9334C569.74 33.2464 570.478 35.0265 570.48 36.8833V548.677C570.478 550.534 569.74 552.314 568.427 553.627C567.114 554.94 565.334 555.679 563.477 555.681Z" fill="#A55AD9"/>
<path d="M221.719 239.582C221.919 238.011 221.771 236.415 221.287 234.907C220.803 233.399 219.994 232.015 218.917 230.853C217.84 229.692 216.522 228.78 215.055 228.183C213.587 227.586 212.007 227.318 210.425 227.398L191.272 192.263L186.962 207.347L200.084 239.548C200.394 242.197 201.665 244.64 203.656 246.414C205.647 248.188 208.22 249.17 210.886 249.175C213.553 249.179 216.129 248.205 218.125 246.437C220.122 244.669 221.401 242.23 221.719 239.582Z" fill="#A0616A"/>
<path d="M74.1465 378.311L84.8144 386.1L119.934 348.655L104.188 337.159L74.1465 378.311Z" fill="#A0616A"/>
<path d="M98.1579 411.027L64.6274 386.548L74.0852 373.593L94.6608 388.614C98.0967 391.123 100.395 394.893 101.051 399.097C101.707 403.3 100.666 407.591 98.1579 411.027Z" fill="#2F2E41"/>
<path d="M130.589 419.538L143.799 419.537L150.083 368.586L130.587 368.587L130.589 419.538Z" fill="#A0616A"/>
<path d="M169.275 431.803L127.76 431.805L127.759 415.765L153.234 415.763C157.488 415.763 161.568 417.453 164.577 420.461C167.585 423.469 169.275 427.549 169.275 431.803Z" fill="#2F2E41"/>
<path d="M170.261 220.815C170.261 220.815 176.726 283.308 160.564 326.407L148.712 408.294H128.24L130.395 311.322L122.853 225.125C122.853 225.125 137.937 186.337 170.261 220.815Z" fill="#2F2E41"/>
<path d="M100.227 225.125L121.776 299.47L79.7549 366.272L100.765 384.05L148.712 309.167L134.705 217.583L100.227 225.125Z" fill="#2F2E41"/>
<path d="M155.181 58.4136C169.797 58.4136 181.645 46.5654 181.645 31.95C181.645 17.3346 169.797 5.48645 155.181 5.48645C140.566 5.48645 128.718 17.3346 128.718 31.95C128.718 46.5654 140.566 58.4136 155.181 58.4136Z" fill="#A0616A"/>
<path d="M133.089 68.3547C133.089 68.3547 149.251 57.5801 167.568 81.2842L172.416 230.513C172.416 230.513 158.409 211.118 129.318 229.435C100.226 247.752 93.7615 227.28 93.7615 227.28C93.7615 227.28 73.2898 73.2033 133.089 68.3547Z" fill="#CCCCCC"/>
<path d="M166.264 80.908C170.912 81.1592 175.303 83.1205 178.593 86.4145C181.882 89.7085 183.837 94.1024 184.082 98.751L187.501 163.71L210.127 225.125L197.198 235.9L155.177 162.633L146.574 102.41C146.179 99.6496 146.402 96.8363 147.225 94.1723C148.049 91.5084 149.452 89.0602 151.336 87.0039C153.219 84.9475 155.534 83.3343 158.116 82.2802C160.697 81.2261 163.48 80.7575 166.264 80.908Z" fill="#CCCCCC"/>
<path d="M135.736 51.8005C140.063 56.4089 148.097 53.935 148.661 47.6392C148.705 47.1504 148.702 46.6585 148.651 46.1703C148.36 43.3816 146.749 40.8497 147.135 37.9052C147.222 37.1724 147.495 36.474 147.928 35.8762C151.376 31.2597 159.468 37.9411 162.722 33.7619C164.717 31.1993 162.372 27.1646 163.903 24.3005C165.924 20.5203 171.909 22.3851 175.662 20.3149C179.838 18.0115 179.588 11.6044 176.839 7.70732C173.487 2.95464 167.609 0.418562 161.804 0.0530336C156 -0.312495 150.235 1.25665 144.816 3.36854C138.659 5.76805 132.553 9.08427 128.764 14.4983C124.156 21.0824 123.713 29.934 126.017 37.6328C127.419 42.3161 132.203 48.0372 135.736 51.8005Z" fill="#2F2E41"/>
<path d="M698.717 555.762H1.28285C0.943245 555.761 0.617875 555.626 0.378084 555.385C0.138293 555.145 0.00366211 554.819 0.00366211 554.479C0.00366211 554.14 0.138293 553.814 0.378084 553.574C0.617875 553.333 0.943245 553.198 1.28285 553.197H698.717C699.057 553.198 699.382 553.333 699.622 553.574C699.862 553.814 699.996 554.14 699.996 554.479C699.996 554.819 699.862 555.145 699.622 555.385C699.382 555.626 699.057 555.761 698.717 555.762Z" fill="#3F3D56"/>
</g>
<defs>
<clipPath id="clip0_231_1660">
<rect width="700" height="556.22" fill="white"/>
</clipPath>
</defs>
</svg>
