<svg width="40" height="40" viewBox="0 0 40 40" fill="none" xmlns="http://www.w3.org/2000/svg">
<path d="M30 35.0001C30 31.4639 28.5953 28.0725 26.0948 25.572C23.5943 23.0715 20.2029 21.6667 16.6667 21.6667C13.1305 21.6667 9.73907 23.0715 7.23859 25.572C4.7381 28.0725 3.33334 31.4639 3.33334 35.0001" stroke="white" stroke-width="3" stroke-linecap="round" stroke-linejoin="round"/>
<path d="M16.6667 21.6667C21.269 21.6667 25 17.9357 25 13.3333C25 8.73096 21.269 5 16.6667 5C12.0643 5 8.33334 8.73096 8.33334 13.3333C8.33334 17.9357 12.0643 21.6667 16.6667 21.6667Z" stroke="white" stroke-width="3" stroke-linecap="round" stroke-linejoin="round"/>
<path d="M36.6667 33.3334C36.6667 27.7167 33.3333 22.5001 30 20.0001C31.0957 19.178 31.9719 18.0986 32.5509 16.8572C33.13 15.6158 33.3942 14.2509 33.32 12.8831C33.2459 11.5153 32.8357 10.1869 32.1258 9.01541C31.4159 7.84394 30.4282 6.86552 29.25 6.16675" stroke="white" stroke-width="3" stroke-linecap="round" stroke-linejoin="round"/>
</svg>
