<svg width="389" height="250" viewBox="0 0 389 250" fill="none" xmlns="http://www.w3.org/2000/svg">
<g clip-path="url(#clip0_219_909)">
<path d="M319.294 149.676C319.552 149.602 319.815 149.548 320.081 149.514L330.703 128.799L327.46 124.133L334.157 118.515L342.577 128.403L325.429 152.355C325.851 153.261 325.976 154.269 325.786 155.244C325.597 156.219 325.103 157.116 324.369 157.816C323.636 158.515 322.698 158.983 321.68 159.158C320.663 159.334 319.614 159.207 318.673 158.796C317.732 158.386 316.944 157.709 316.413 156.858C315.882 156.007 315.634 155.02 315.701 154.03C315.769 153.04 316.149 152.093 316.79 151.315C317.432 150.537 318.306 149.966 319.294 149.676Z" fill="#A0616A"/>
<path d="M337.427 121.377C337.283 121.523 337.117 121.649 336.934 121.75L326.066 127.797C325.805 127.942 325.515 128.034 325.215 128.066C324.915 128.099 324.611 128.071 324.323 127.985C324.035 127.899 323.768 127.756 323.54 127.566C323.312 127.376 323.128 127.143 322.999 126.881L317.713 116.163C317.488 115.712 317.439 115.198 317.576 114.716C317.713 114.233 318.026 113.814 318.458 113.535L325.196 109.136C325.616 108.862 326.124 108.737 326.63 108.783C327.136 108.829 327.61 109.044 327.969 109.389L337.386 118.459C337.786 118.845 338.015 119.365 338.023 119.91C338.03 120.455 337.817 120.981 337.427 121.377Z" fill="#CCCCCC"/>
<path d="M352.688 240.079L346.949 241.577L338.196 221.048L346.665 218.836L352.688 240.079Z" fill="#A0616A"/>
<path d="M342.404 241.074L353.471 238.184L355.367 244.872L337.332 249.581C337.083 248.703 337.017 247.786 337.137 246.883C337.257 245.981 337.562 245.109 338.033 244.319C338.504 243.529 339.132 242.836 339.882 242.279C340.632 241.723 341.489 241.313 342.404 241.074Z" fill="#2F2E41"/>
<path d="M303.632 244.281L297.686 244.281L294.857 222.266L303.633 222.266L303.632 244.281Z" fill="#A0616A"/>
<path d="M293.438 242.65H304.907V249.58H286.217C286.217 248.67 286.404 247.769 286.766 246.928C287.129 246.087 287.661 245.323 288.332 244.68C289.002 244.036 289.798 243.526 290.675 243.177C291.551 242.829 292.49 242.65 293.438 242.65Z" fill="#2F2E41"/>
<path d="M309.898 101.828C316.478 101.828 321.812 96.7084 321.812 90.3934C321.812 84.0783 316.478 78.959 309.898 78.959C303.318 78.959 297.984 84.0783 297.984 90.3934C297.984 96.7084 303.318 101.828 309.898 101.828Z" fill="#A0616A"/>
<path d="M303.268 228.585H295.142C294.586 228.584 294.052 228.38 293.647 228.015C293.242 227.65 292.997 227.151 292.961 226.619C290.54 189.672 291.956 163.169 297.419 143.214C297.443 143.127 297.472 143.041 297.507 142.957L297.942 141.913C298.103 141.523 298.383 141.189 298.744 140.954C299.106 140.719 299.533 140.594 299.969 140.596H316.681C316.996 140.595 317.307 140.661 317.593 140.787C317.879 140.913 318.133 141.098 318.338 141.327L320.608 143.869C320.652 143.919 320.694 143.969 320.733 144.022C330.969 157.721 340.142 184.504 350.765 220.502C350.922 221.025 350.86 221.586 350.592 222.066C350.323 222.546 349.871 222.906 349.33 223.07L340.596 225.753C340.095 225.904 339.554 225.878 339.071 225.679C338.588 225.479 338.195 225.12 337.965 224.667L315.301 179.552C315.143 179.237 314.883 178.979 314.56 178.816C314.237 178.654 313.868 178.596 313.507 178.65C313.147 178.705 312.815 178.869 312.559 179.12C312.304 179.37 312.14 179.692 312.09 180.039L305.431 226.773C305.358 227.274 305.099 227.733 304.702 228.066C304.305 228.399 303.796 228.583 303.268 228.585Z" fill="#2F2E41"/>
<path d="M319.692 144.055C319.669 144.055 319.646 144.055 319.623 144.054L299.324 143.439C298.802 143.425 298.303 143.232 297.917 142.894C297.532 142.556 297.286 142.096 297.224 141.598C294.651 121.607 301.708 116.252 304.862 114.877C305.125 114.763 305.354 114.585 305.525 114.362C305.696 114.138 305.804 113.876 305.838 113.6L306.111 111.505C306.157 111.135 306.306 110.783 306.542 110.487C311.487 104.34 318.238 102.371 321.823 101.745C322.114 101.695 322.412 101.702 322.7 101.766C322.988 101.83 323.259 101.949 323.497 102.117C323.735 102.284 323.936 102.497 324.086 102.741C324.236 102.985 324.332 103.256 324.37 103.537L324.779 106.546C324.821 106.833 324.94 107.104 325.125 107.333C335.437 120.272 323.949 139.376 321.541 143.074C321.344 143.374 321.072 143.622 320.748 143.793C320.425 143.965 320.061 144.055 319.692 144.055Z" fill="#CCCCCC"/>
<path d="M333.935 91.6807C331.277 88.089 328.09 84.8867 324.473 82.174C321.467 79.9201 318.12 77.9944 314.428 77.0733C310.735 76.1522 306.658 76.309 303.289 78.0273C299.92 79.7457 296.437 83.1598 296.416 86.8213C296.409 87.9975 296.721 89.5889 297.928 89.3854L298.277 89.4299C301.189 88.8655 304.1 88.3011 307.012 87.7367C308.252 91.867 309.492 95.9973 310.732 100.128C310.993 100.998 311.344 101.972 312.205 102.343C313.016 102.692 313.953 102.363 314.774 102.034C314.909 101.98 316.068 99.4823 316.068 99.4823C316.097 99.4042 316.147 99.335 316.213 99.2818C316.28 99.2286 316.359 99.1934 316.445 99.1797C316.53 99.166 316.617 99.1744 316.698 99.204C316.779 99.2335 316.85 99.2833 316.904 99.348L317.592 100.174C317.724 100.332 317.905 100.445 318.109 100.495C318.314 100.545 318.529 100.53 318.723 100.452C323.471 98.5494 328.22 96.6471 332.968 94.7448C333.624 94.4818 334.357 94.1385 334.548 93.4809C334.73 92.8509 334.329 92.2139 333.935 91.6807Z" fill="#2F2E41"/>
<path d="M388.515 250H242.51C242.381 250 242.258 249.951 242.167 249.864C242.076 249.776 242.025 249.658 242.025 249.534C242.025 249.411 242.076 249.293 242.167 249.205C242.258 249.118 242.381 249.069 242.51 249.069H388.515C388.644 249.069 388.767 249.118 388.858 249.205C388.949 249.293 389 249.411 389 249.534C389 249.658 388.949 249.776 388.858 249.864C388.767 249.951 388.644 250 388.515 250Z" fill="#3F3D56"/>
<path d="M309.36 177.451C309.03 177.449 308.71 177.348 308.444 177.16L306.236 175.62C306.053 175.492 305.832 175.422 305.605 175.422C305.378 175.422 305.157 175.492 304.974 175.62L302.766 177.16C302.5 177.345 302.179 177.445 301.85 177.445C301.521 177.445 301.2 177.345 300.934 177.16C300.667 176.974 300.469 176.712 300.367 176.412C300.266 176.111 300.266 175.788 300.367 175.487L301.211 172.996C301.281 172.789 301.281 172.566 301.211 172.359C301.141 172.152 301.004 171.972 300.821 171.844L298.613 170.304C298.346 170.118 298.148 169.857 298.046 169.556C297.945 169.256 297.945 168.932 298.046 168.632C298.148 168.331 298.346 168.069 298.613 167.884C298.879 167.698 299.2 167.598 299.529 167.598H302.258C302.485 167.598 302.706 167.53 302.89 167.402C303.073 167.274 303.21 167.093 303.279 166.886L304.123 164.395C304.224 164.094 304.422 163.832 304.689 163.647C304.955 163.461 305.276 163.361 305.605 163.361C305.934 163.361 306.255 163.461 306.521 163.647C306.788 163.832 306.986 164.094 307.087 164.395L307.931 166.886C308.001 167.093 308.137 167.274 308.32 167.402C308.504 167.53 308.725 167.598 308.952 167.598H311.681C312.01 167.598 312.331 167.698 312.597 167.884C312.864 168.069 313.062 168.331 313.163 168.632C313.265 168.932 313.265 169.256 313.164 169.556C313.062 169.857 312.864 170.118 312.597 170.304L310.389 171.844C310.206 171.971 310.069 172.152 309.999 172.359C309.929 172.566 309.929 172.789 309.999 172.996L310.843 175.487C310.948 175.787 310.95 176.112 310.848 176.413C310.746 176.715 310.546 176.976 310.276 177.16C310.011 177.347 309.69 177.449 309.36 177.451Z" fill="#A55AD9"/>
<path d="M317.798 172.47C318.422 172.05 318.942 171.504 319.322 170.871C319.702 170.237 319.933 169.531 319.998 168.802C320.063 168.074 319.961 167.341 319.699 166.654C319.437 165.968 319.021 165.345 318.481 164.829L322.251 121.127L311.025 122.61L310.811 165.07C309.969 165.998 309.511 167.191 309.523 168.422C309.536 169.653 310.019 170.836 310.88 171.749C311.741 172.661 312.921 173.238 314.196 173.371C315.471 173.504 316.753 173.183 317.798 172.47Z" fill="#A0616A"/>
<path d="M322.985 127.421C322.774 127.421 322.565 127.391 322.364 127.334L310.312 123.932C310.022 123.85 309.753 123.712 309.522 123.525C309.291 123.339 309.103 123.108 308.969 122.848C308.836 122.588 308.76 122.304 308.747 122.015C308.733 121.725 308.783 121.436 308.892 121.166L313.352 110.107C313.538 109.64 313.893 109.253 314.352 109.016C314.811 108.779 315.343 108.709 315.851 108.817L323.814 110.478C324.311 110.582 324.754 110.85 325.068 111.234C325.382 111.618 325.546 112.095 325.532 112.583L325.161 125.382C325.146 125.927 324.909 126.444 324.503 126.825C324.097 127.205 323.552 127.419 322.985 127.421Z" fill="#CCCCCC"/>
<path d="M209.549 182.03H3.39546C2.49524 182.029 1.63218 181.685 0.995623 181.074C0.359069 180.463 0.0010104 179.635 0 178.771V119.646C0.0010104 118.782 0.359069 117.954 0.995623 117.343C1.63218 116.732 2.49524 116.388 3.39546 116.387H209.549C210.449 116.388 211.312 116.732 211.948 117.343C212.585 117.954 212.943 118.782 212.944 119.646V178.771C212.943 179.635 212.585 180.463 211.948 181.074C211.312 181.685 210.449 182.029 209.549 182.03ZM3.39546 117.318C2.75245 117.319 2.136 117.564 1.68132 118.001C1.22665 118.437 0.970877 119.029 0.970132 119.646V178.771C0.970877 179.388 1.22665 179.98 1.68132 180.416C2.136 180.852 2.75245 181.098 3.39546 181.099H209.549C210.192 181.098 210.808 180.852 211.263 180.416C211.717 179.98 211.973 179.388 211.974 178.771V119.646C211.973 119.029 211.717 118.437 211.263 118.001C210.808 117.564 210.192 117.319 209.549 117.318H3.39546Z" fill="#3F3D56"/>
<path d="M93.6057 206.925C93.2016 206.923 92.8084 206.798 92.4832 206.568L89.7783 204.682C89.5539 204.525 89.2832 204.44 89.0053 204.44C88.7274 204.44 88.4566 204.525 88.2322 204.682L85.5273 206.568C85.2011 206.796 84.8082 206.918 84.405 206.918C84.0017 206.918 83.6088 206.796 83.2826 206.568C82.9564 206.341 82.7135 206.02 82.5889 205.652C82.4642 205.284 82.4642 204.887 82.5887 204.519L83.622 201.468C83.7084 201.214 83.7086 200.941 83.6228 200.687C83.5369 200.433 83.3694 200.212 83.1442 200.056L80.4393 198.17C80.1131 197.942 79.8702 197.622 79.7456 197.254C79.621 196.885 79.621 196.489 79.7456 196.121C79.8702 195.753 80.113 195.432 80.4393 195.205C80.7655 194.977 81.1584 194.855 81.5616 194.855H84.9052C85.183 194.855 85.4539 194.771 85.6787 194.614C85.9035 194.457 86.0706 194.236 86.156 193.982L87.1891 190.931C87.3137 190.562 87.5565 190.242 87.8828 190.014C88.209 189.787 88.602 189.664 89.0052 189.664C89.4085 189.664 89.8014 189.787 90.1277 190.014C90.4539 190.242 90.6968 190.562 90.8214 190.931L91.8544 193.982C91.9398 194.236 92.107 194.457 92.3318 194.614C92.5566 194.771 92.8274 194.855 93.1053 194.855H96.4488C96.8521 194.855 97.2449 194.977 97.5712 195.205C97.8974 195.432 98.1402 195.753 98.2648 196.121C98.3894 196.489 98.3894 196.885 98.2648 197.254C98.1402 197.622 97.8974 197.942 97.5711 198.17L94.8662 200.056C94.6411 200.212 94.4735 200.433 94.3877 200.687C94.3018 200.941 94.3021 201.214 94.3885 201.468L95.4217 204.519C95.5509 204.887 95.5531 205.285 95.4282 205.654C95.3032 206.023 95.0577 206.344 94.728 206.568C94.4028 206.798 94.0097 206.923 93.6057 206.925Z" fill="#A55AD9"/>
<path d="M121.016 206.925C120.612 206.923 120.219 206.798 119.894 206.568L117.189 204.682C116.964 204.525 116.693 204.44 116.416 204.44C116.138 204.44 115.867 204.525 115.643 204.682L112.938 206.568C112.611 206.796 112.219 206.918 111.815 206.918C111.412 206.918 111.019 206.796 110.693 206.568C110.367 206.341 110.124 206.02 109.999 205.652C109.875 205.284 109.875 204.887 109.999 204.519L111.032 201.468C111.119 201.214 111.119 200.941 111.033 200.687C110.947 200.433 110.78 200.212 110.555 200.056L107.85 198.17C107.523 197.942 107.281 197.622 107.156 197.254C107.031 196.885 107.031 196.489 107.156 196.121C107.281 195.753 107.524 195.432 107.85 195.205C108.176 194.977 108.569 194.855 108.972 194.855H112.315C112.593 194.855 112.864 194.771 113.089 194.614C113.314 194.457 113.481 194.236 113.566 193.982L114.6 190.931C114.724 190.562 114.967 190.242 115.293 190.014C115.619 189.787 116.012 189.664 116.416 189.664C116.819 189.664 117.212 189.787 117.538 190.014C117.864 190.242 118.107 190.562 118.232 190.931L119.265 193.982C119.35 194.236 119.517 194.457 119.742 194.614C119.967 194.771 120.238 194.855 120.516 194.855H123.859C124.262 194.855 124.655 194.977 124.981 195.205C125.308 195.432 125.551 195.753 125.675 196.121C125.8 196.489 125.8 196.885 125.675 197.254C125.551 197.622 125.308 197.942 124.982 198.17L122.277 200.056C122.051 200.212 121.884 200.433 121.798 200.687C121.712 200.941 121.712 201.214 121.799 201.468L122.832 204.519C122.961 204.887 122.963 205.285 122.838 205.654C122.714 206.023 122.468 206.344 122.138 206.568C121.813 206.798 121.42 206.923 121.016 206.925Z" fill="#A55AD9"/>
<path d="M148.426 206.925C148.022 206.923 147.629 206.798 147.304 206.568L144.599 204.682C144.374 204.525 144.104 204.441 143.826 204.441C143.548 204.441 143.277 204.525 143.053 204.682L140.348 206.568C140.022 206.796 139.629 206.918 139.226 206.918C138.822 206.918 138.429 206.796 138.103 206.568C137.777 206.341 137.534 206.02 137.41 205.652C137.285 205.284 137.285 204.887 137.409 204.519L138.443 201.468C138.529 201.214 138.529 200.941 138.443 200.687C138.358 200.433 138.19 200.212 137.965 200.056L135.26 198.17C134.934 197.942 134.691 197.622 134.566 197.254C134.442 196.885 134.442 196.489 134.566 196.121C134.691 195.753 134.934 195.432 135.26 195.205C135.586 194.977 135.979 194.855 136.382 194.855H139.726C140.004 194.855 140.274 194.771 140.499 194.614C140.724 194.457 140.891 194.236 140.977 193.982L142.01 190.931C142.134 190.562 142.377 190.242 142.703 190.014C143.03 189.787 143.423 189.664 143.826 189.664C144.229 189.664 144.622 189.787 144.948 190.014C145.275 190.242 145.517 190.562 145.642 190.931L146.675 193.982C146.761 194.236 146.928 194.457 147.153 194.614C147.377 194.771 147.648 194.855 147.926 194.855H151.269C151.673 194.855 152.066 194.977 152.392 195.205C152.718 195.432 152.961 195.753 153.085 196.121C153.21 196.489 153.21 196.885 153.085 197.254C152.961 197.622 152.718 197.942 152.392 198.17L149.687 200.056C149.462 200.212 149.294 200.433 149.208 200.687C149.123 200.941 149.123 201.214 149.209 201.468L150.242 204.519C150.371 204.887 150.374 205.285 150.249 205.654C150.124 206.023 149.878 206.344 149.549 206.568C149.223 206.798 148.83 206.923 148.426 206.925Z" fill="#A55AD9"/>
<path d="M175.837 206.925C175.433 206.924 175.04 206.799 174.714 206.569L172.009 204.683C171.785 204.525 171.514 204.44 171.236 204.44C170.958 204.44 170.688 204.525 170.463 204.683L167.758 206.569C167.432 206.796 167.039 206.919 166.636 206.919C166.233 206.919 165.84 206.796 165.514 206.569C165.187 206.341 164.945 206.021 164.82 205.652C164.695 205.284 164.695 204.888 164.82 204.52L165.853 201.468C165.939 201.215 165.94 200.941 165.854 200.688C165.768 200.434 165.6 200.213 165.375 200.057L162.67 198.17C162.344 197.943 162.101 197.622 161.977 197.254C161.852 196.886 161.852 196.489 161.977 196.121C162.101 195.753 162.344 195.433 162.67 195.205C162.997 194.978 163.389 194.855 163.793 194.855H167.136C167.414 194.856 167.685 194.771 167.91 194.615C168.134 194.458 168.302 194.237 168.387 193.983L169.42 190.931C169.545 190.563 169.787 190.242 170.114 190.015C170.44 189.787 170.833 189.665 171.236 189.665C171.639 189.665 172.032 189.787 172.359 190.015C172.685 190.242 172.928 190.563 173.052 190.931L174.085 193.983C174.171 194.237 174.338 194.458 174.563 194.615C174.788 194.771 175.058 194.856 175.336 194.855H178.68C179.083 194.855 179.476 194.978 179.802 195.205C180.128 195.433 180.371 195.753 180.496 196.121C180.62 196.489 180.62 196.886 180.496 197.254C180.371 197.622 180.128 197.943 179.802 198.17L177.097 200.056C176.872 200.213 176.705 200.434 176.619 200.688C176.533 200.941 176.533 201.215 176.619 201.468L177.653 204.52C177.782 204.888 177.784 205.285 177.659 205.654C177.534 206.024 177.289 206.344 176.959 206.569C176.634 206.799 176.241 206.924 175.837 206.925Z" fill="#A55AD9"/>
<path d="M194.046 207.106C193.602 207.104 193.171 206.967 192.814 206.714C192.451 206.468 192.182 206.115 192.044 205.71C191.907 205.305 191.909 204.868 192.051 204.464L193.085 201.412C193.159 201.195 193.159 200.96 193.085 200.743C193.012 200.526 192.868 200.336 192.675 200.202L189.97 198.316C189.612 198.066 189.345 197.714 189.208 197.309C189.071 196.905 189.071 196.47 189.208 196.065C189.345 195.661 189.612 195.309 189.97 195.059C190.329 194.809 190.76 194.674 191.203 194.674H194.547C194.785 194.675 195.017 194.603 195.21 194.468C195.402 194.334 195.545 194.144 195.619 193.927L196.652 190.875C196.789 190.471 197.056 190.118 197.414 189.868C197.772 189.618 198.204 189.484 198.647 189.484C199.09 189.484 199.521 189.618 199.88 189.868C200.238 190.118 200.505 190.471 200.642 190.875L201.675 193.927C201.748 194.144 201.891 194.334 202.084 194.468C202.276 194.603 202.509 194.675 202.747 194.674H206.09C206.533 194.674 206.965 194.809 207.323 195.059C207.681 195.309 207.948 195.661 208.085 196.065C208.222 196.47 208.222 196.905 208.085 197.309C207.948 197.714 207.681 198.066 207.323 198.316L204.618 200.202C204.425 200.336 204.282 200.526 204.208 200.743C204.134 200.96 204.135 201.195 204.209 201.412L205.242 204.464C205.379 204.868 205.379 205.303 205.242 205.708C205.105 206.112 204.838 206.464 204.48 206.714C204.121 206.964 203.69 207.099 203.247 207.099C202.804 207.099 202.372 206.964 202.014 206.714L199.309 204.828C199.117 204.693 198.885 204.621 198.647 204.621C198.408 204.621 198.176 204.693 197.984 204.828L195.279 206.714C194.922 206.967 194.49 207.104 194.046 207.106ZM198.647 203.689C199.09 203.689 199.521 203.824 199.879 204.075L202.584 205.961C202.777 206.095 203.009 206.168 203.247 206.168C203.485 206.168 203.717 206.095 203.91 205.961C204.102 205.827 204.246 205.637 204.319 205.42C204.393 205.203 204.393 204.969 204.319 204.751L203.286 201.7C203.148 201.295 203.148 200.86 203.285 200.455C203.422 200.051 203.689 199.698 204.048 199.449L206.753 197.563C206.945 197.428 207.089 197.239 207.162 197.022C207.236 196.804 207.236 196.57 207.162 196.353C207.089 196.136 206.945 195.946 206.753 195.812C206.56 195.678 206.328 195.605 206.09 195.605H202.747C202.304 195.606 201.872 195.472 201.513 195.222C201.155 194.972 200.888 194.619 200.752 194.214L199.719 191.163C199.645 190.945 199.502 190.756 199.309 190.622C199.117 190.487 198.885 190.415 198.647 190.415C198.408 190.415 198.176 190.487 197.984 190.622C197.791 190.756 197.648 190.945 197.574 191.163L196.541 194.214C196.405 194.619 196.139 194.972 195.78 195.222C195.422 195.472 194.99 195.606 194.547 195.605H191.203C190.965 195.605 190.733 195.678 190.54 195.812C190.348 195.946 190.204 196.136 190.131 196.353C190.057 196.57 190.057 196.804 190.131 197.022C190.204 197.239 190.348 197.428 190.54 197.563L193.245 199.449C193.604 199.698 193.872 200.051 194.008 200.455C194.145 200.86 194.145 201.295 194.007 201.7L192.974 204.751C192.9 204.969 192.9 205.203 192.974 205.42C193.048 205.637 193.191 205.827 193.384 205.961C193.576 206.095 193.808 206.168 194.046 206.168C194.284 206.168 194.516 206.095 194.709 205.961L197.414 204.075C197.772 203.824 198.204 203.689 198.647 203.689Z" fill="#3F3D56"/>
<path d="M26.6786 130.354C25.8424 130.354 25.0405 130.673 24.4492 131.24C23.8579 131.808 23.5257 132.578 23.5257 133.38C23.5257 134.183 23.8579 134.952 24.4492 135.52C25.0405 136.087 25.8424 136.406 26.6786 136.406H186.265C187.102 136.406 187.904 136.087 188.495 135.52C189.086 134.952 189.418 134.183 189.418 133.38C189.418 132.578 189.086 131.808 188.495 131.24C187.904 130.673 187.102 130.354 186.265 130.354H26.6786Z" fill="#CCCCCC"/>
<path d="M26.6786 146.183C25.8424 146.183 25.0405 146.501 24.4492 147.069C23.8579 147.636 23.5257 148.406 23.5257 149.209C23.5257 150.011 23.8579 150.781 24.4492 151.348C25.0405 151.916 25.8424 152.235 26.6786 152.235H186.265C187.102 152.235 187.904 151.916 188.495 151.348C189.086 150.781 189.418 150.011 189.418 149.209C189.418 148.406 189.086 147.636 188.495 147.069C187.904 146.501 187.102 146.183 186.265 146.183H26.6786Z" fill="#CCCCCC"/>
<path d="M26.6786 162.011C25.8424 162.011 25.0405 162.33 24.4492 162.898C23.8579 163.465 23.5257 164.235 23.5257 165.037C23.5257 165.84 23.8579 166.61 24.4492 167.177C25.0405 167.745 25.8424 168.063 26.6786 168.063H186.265C187.102 168.063 187.904 167.745 188.495 167.177C189.086 166.61 189.418 165.84 189.418 165.037C189.418 164.235 189.086 163.465 188.495 162.898C187.904 162.33 187.102 162.011 186.265 162.011H26.6786Z" fill="#CCCCCC"/>
<path d="M26.6786 130.354C25.8424 130.354 25.0405 130.673 24.4492 131.24C23.8579 131.808 23.5257 132.578 23.5257 133.38C23.5257 134.183 23.8579 134.952 24.4492 135.52C25.0405 136.087 25.8424 136.406 26.6786 136.406H186.265C187.102 136.406 187.904 136.087 188.495 135.52C189.086 134.952 189.418 134.183 189.418 133.38C189.418 132.578 189.086 131.808 188.495 131.24C187.904 130.673 187.102 130.354 186.265 130.354H26.6786Z" fill="#CCCCCC"/>
<path d="M26.6786 146.183C25.8424 146.183 25.0405 146.501 24.4492 147.069C23.8579 147.636 23.5257 148.406 23.5257 149.209C23.5257 150.011 23.8579 150.781 24.4492 151.348C25.0405 151.916 25.8424 152.235 26.6786 152.235H186.265C187.102 152.235 187.904 151.916 188.495 151.348C189.086 150.781 189.418 150.011 189.418 149.209C189.418 148.406 189.086 147.636 188.495 147.069C187.904 146.501 187.102 146.183 186.265 146.183H26.6786Z" fill="#CCCCCC"/>
<path d="M26.6786 162.011C25.8424 162.011 25.0405 162.33 24.4492 162.898C23.8579 163.465 23.5257 164.235 23.5257 165.037C23.5257 165.84 23.8579 166.61 24.4492 167.177C25.0405 167.745 25.8424 168.063 26.6786 168.063H186.265C187.102 168.063 187.904 167.745 188.495 167.177C189.086 166.61 189.418 165.84 189.418 165.037C189.418 164.235 189.086 163.465 188.495 162.898C187.904 162.33 187.102 162.011 186.265 162.011H26.6786Z" fill="#CCCCCC"/>
<path d="M209.549 65.6425H3.39546C2.49524 65.6415 1.63218 65.2978 0.995623 64.6869C0.359069 64.076 0.0010104 63.2476 0 62.3836V3.25885C0.0010104 2.39484 0.359069 1.56651 0.995623 0.955564C1.63218 0.344622 2.49524 0.00096975 3.39546 0H209.549C210.449 0.000968521 211.312 0.344622 211.948 0.955564C212.585 1.56651 212.943 2.39484 212.944 3.25885V62.3836C212.943 63.2476 212.585 64.076 211.948 64.6869C211.312 65.2978 210.449 65.6415 209.549 65.6425ZM3.39546 0.931099C2.75245 0.931813 2.136 1.17728 1.68132 1.61367C1.22665 2.05005 0.970877 2.64171 0.970132 3.25885V62.3836C0.970877 63.0007 1.22665 63.5924 1.68132 64.0288C2.136 64.4652 2.75245 64.7106 3.39546 64.7114H209.549C210.192 64.7106 210.808 64.4652 211.263 64.0288C211.717 63.5924 211.973 63.0007 211.974 62.3836V3.25885C211.973 2.6417 211.717 2.05004 211.263 1.61366C210.808 1.17727 210.192 0.931803 209.549 0.931099H3.39546Z" fill="#3F3D56"/>
<path d="M93.6057 90.5377C93.2016 90.5361 92.8084 90.4112 92.4832 90.181L89.7783 88.2948C89.5539 88.1375 89.2832 88.0528 89.0053 88.0528C88.7274 88.0528 88.4566 88.1375 88.2322 88.2948L85.5273 90.181C85.2011 90.4085 84.8082 90.531 84.405 90.531C84.0017 90.531 83.6088 90.4085 83.2826 90.1811C82.9564 89.9536 82.7135 89.6329 82.5889 89.2648C82.4642 88.8968 82.4642 88.5003 82.5887 88.1322L83.622 85.0804C83.7084 84.8269 83.7086 84.5536 83.6228 84.2999C83.5369 84.0462 83.3694 83.8252 83.1442 83.6688L80.4393 81.7827C80.1131 81.5552 79.8702 81.2344 79.7456 80.8664C79.621 80.4983 79.621 80.1018 79.7456 79.7337C79.8702 79.3656 80.113 79.0449 80.4393 78.8174C80.7655 78.5899 81.1584 78.4674 81.5616 78.4674H84.9052C85.183 78.4679 85.4539 78.3837 85.6787 78.2269C85.9035 78.0702 86.0706 77.849 86.156 77.5952L87.1891 74.5434C87.3137 74.1752 87.5565 73.8544 87.8828 73.6269C88.209 73.3994 88.602 73.2769 89.0052 73.2769C89.4085 73.2769 89.8014 73.3994 90.1277 73.6269C90.4539 73.8544 90.6968 74.1752 90.8214 74.5434L91.8544 77.5952C91.9398 77.849 92.107 78.0702 92.3318 78.2269C92.5566 78.3837 92.8274 78.4679 93.1053 78.4674H96.4488C96.8521 78.4674 97.2449 78.5899 97.5712 78.8174C97.8974 79.0449 98.1402 79.3657 98.2648 79.7337C98.3894 80.1018 98.3894 80.4983 98.2648 80.8664C98.1402 81.2344 97.8974 81.5552 97.5711 81.7827L94.8662 83.6688C94.6411 83.8252 94.4735 84.0462 94.3877 84.2999C94.3018 84.5536 94.3021 84.8269 94.3885 85.0804L95.4217 88.1322C95.5509 88.4999 95.5531 88.8978 95.4282 89.2668C95.3032 89.6358 95.0577 89.9564 94.728 90.181C94.4028 90.4112 94.0097 90.5361 93.6057 90.5377Z" fill="#A55AD9"/>
<path d="M121.016 90.5377C120.612 90.5361 120.219 90.4112 119.894 90.181L117.189 88.2948C116.964 88.1375 116.693 88.0528 116.416 88.0528C116.138 88.0528 115.867 88.1375 115.643 88.2948L112.938 90.181C112.611 90.4085 112.219 90.531 111.815 90.531C111.412 90.531 111.019 90.4085 110.693 90.1811C110.367 89.9536 110.124 89.6329 109.999 89.2648C109.875 88.8968 109.875 88.5003 109.999 88.1322L111.032 85.0804C111.119 84.8269 111.119 84.5536 111.033 84.2999C110.947 84.0462 110.78 83.8252 110.555 83.6688L107.85 81.7827C107.523 81.5552 107.281 81.2344 107.156 80.8663C107.031 80.4982 107.031 80.1018 107.156 79.7337C107.281 79.3656 107.524 79.0449 107.85 78.8174C108.176 78.5899 108.569 78.4674 108.972 78.4674H112.315C112.593 78.4679 112.864 78.3837 113.089 78.2269C113.314 78.0702 113.481 77.849 113.566 77.5952L114.6 74.5434C114.724 74.1752 114.967 73.8544 115.293 73.6269C115.619 73.3994 116.012 73.2769 116.416 73.2769C116.819 73.2769 117.212 73.3994 117.538 73.6269C117.864 73.8544 118.107 74.1752 118.232 74.5434L119.265 77.5952C119.35 77.849 119.517 78.0702 119.742 78.2269C119.967 78.3837 120.238 78.4679 120.516 78.4674H123.859C124.262 78.4674 124.655 78.5899 124.981 78.8174C125.308 79.0449 125.551 79.3656 125.675 79.7337C125.8 80.1018 125.8 80.4982 125.675 80.8663C125.551 81.2344 125.308 81.5552 124.982 81.7827L122.277 83.6688C122.051 83.8252 121.884 84.0461 121.798 84.2998C121.712 84.5535 121.712 84.8268 121.799 85.0804L122.832 88.1322C122.961 88.4999 122.963 88.8978 122.838 89.2668C122.714 89.6358 122.468 89.9564 122.138 90.181C121.813 90.4112 121.42 90.5361 121.016 90.5377Z" fill="#A55AD9"/>
<path d="M148.426 90.5377C148.022 90.5361 147.629 90.4112 147.304 90.181L144.599 88.2948C144.374 88.1379 144.104 88.0534 143.826 88.0534C143.548 88.0534 143.277 88.1379 143.053 88.2948L140.348 90.181C140.022 90.4085 139.629 90.531 139.226 90.531C138.822 90.531 138.429 90.4085 138.103 90.1811C137.777 89.9536 137.534 89.6329 137.41 89.2648C137.285 88.8968 137.285 88.5003 137.409 88.1322L138.443 85.0804C138.529 84.8269 138.529 84.5536 138.443 84.2999C138.358 84.0462 138.19 83.8252 137.965 83.6688L135.26 81.7827C134.934 81.5552 134.691 81.2344 134.566 80.8663C134.442 80.4982 134.442 80.1018 134.566 79.7337C134.691 79.3656 134.934 79.0449 135.26 78.8174C135.586 78.5899 135.979 78.4674 136.382 78.4674H139.726C140.004 78.4679 140.274 78.3837 140.499 78.2269C140.724 78.0702 140.891 77.849 140.977 77.5952L142.01 74.5434C142.134 74.1752 142.377 73.8544 142.703 73.6269C143.03 73.3994 143.423 73.2769 143.826 73.2769C144.229 73.2769 144.622 73.3994 144.948 73.6269C145.275 73.8544 145.517 74.1752 145.642 74.5434L146.675 77.5952C146.761 77.849 146.928 78.0702 147.153 78.2269C147.377 78.3837 147.648 78.4679 147.926 78.4674H151.269C151.673 78.4674 152.066 78.5899 152.392 78.8174C152.718 79.0449 152.961 79.3656 153.085 79.7337C153.21 80.1018 153.21 80.4982 153.085 80.8663C152.961 81.2344 152.718 81.5552 152.392 81.7827L149.687 83.6688C149.462 83.8252 149.294 84.0462 149.208 84.2999C149.123 84.5536 149.123 84.8269 149.209 85.0804L150.242 88.1322C150.371 88.4999 150.374 88.8977 150.249 89.2668C150.124 89.6358 149.878 89.9564 149.549 90.181C149.223 90.4112 148.83 90.5361 148.426 90.5377Z" fill="#A55AD9"/>
<path d="M194.046 90.7187C193.602 90.717 193.171 90.5799 192.814 90.3273C192.451 90.0805 192.182 89.7283 192.044 89.3229C191.907 88.9174 191.909 88.4803 192.051 88.0763L193.085 85.0246C193.159 84.8073 193.159 84.5731 193.085 84.3558C193.012 84.1384 192.868 83.9491 192.675 83.815L189.97 81.9287C189.612 81.6789 189.345 81.3265 189.208 80.9222C189.071 80.5179 189.071 80.0823 189.208 79.678C189.345 79.2737 189.612 78.9213 189.97 78.6715C190.329 78.4216 190.76 78.2871 191.203 78.2871H194.547C194.785 78.2875 195.017 78.2153 195.21 78.0809C195.402 77.9466 195.545 77.7569 195.619 77.5394L196.652 74.4876C196.789 74.0833 197.056 73.731 197.414 73.4811C197.772 73.2313 198.204 73.0967 198.647 73.0967C199.09 73.0967 199.521 73.2313 199.88 73.4811C200.238 73.731 200.505 74.0833 200.642 74.4876L201.675 77.5394C201.748 77.7569 201.891 77.9466 202.084 78.0809C202.276 78.2153 202.509 78.2875 202.747 78.2871H206.09C206.533 78.2871 206.965 78.4217 207.323 78.6716C207.681 78.9214 207.948 79.2738 208.085 79.6781C208.222 80.0824 208.222 80.5179 208.085 80.9222C207.948 81.3265 207.681 81.6788 207.323 81.9287L204.618 83.815C204.425 83.949 204.282 84.1383 204.208 84.3557C204.134 84.5731 204.135 84.8073 204.209 85.0246L205.242 88.0763C205.379 88.4807 205.379 88.9162 205.242 89.3205C205.105 89.7248 204.838 90.0771 204.48 90.327C204.121 90.5769 203.69 90.7115 203.247 90.7115C202.804 90.7115 202.372 90.5769 202.014 90.327L199.309 88.441C199.117 88.3062 198.885 88.2336 198.647 88.2336C198.408 88.2336 198.176 88.3062 197.984 88.441L195.279 90.327C194.922 90.5799 194.49 90.7171 194.046 90.7187ZM198.647 87.3021C199.09 87.3022 199.521 87.4372 199.879 87.6876L202.584 89.5737C202.777 89.7081 203.009 89.7805 203.247 89.7805C203.485 89.7805 203.717 89.7082 203.91 89.5739C204.102 89.4396 204.246 89.2502 204.319 89.0329C204.393 88.8156 204.393 88.5815 204.319 88.3641L203.286 85.3124C203.148 84.9081 203.148 84.4723 203.285 84.0678C203.422 83.6634 203.689 83.311 204.048 83.0617L206.753 81.1754C206.945 81.0411 207.089 80.8517 207.162 80.6345C207.236 80.4172 207.236 80.1831 207.162 79.9658C207.089 79.7485 206.945 79.5591 206.753 79.4248C206.56 79.2905 206.328 79.2182 206.09 79.2182H202.747C202.304 79.219 201.872 79.0847 201.513 78.8347C201.155 78.5847 200.888 78.232 200.752 77.8272L199.719 74.7755C199.645 74.5581 199.502 74.3688 199.309 74.2344C199.117 74.1001 198.885 74.0278 198.647 74.0278C198.408 74.0278 198.176 74.1001 197.984 74.2344C197.791 74.3688 197.648 74.5581 197.574 74.7755L196.541 77.8272C196.405 78.232 196.139 78.5847 195.78 78.8347C195.422 79.0847 194.99 79.219 194.547 79.2182H191.203C190.965 79.2182 190.733 79.2905 190.54 79.4248C190.348 79.5591 190.204 79.7485 190.131 79.9657C190.057 80.183 190.057 80.4171 190.131 80.6344C190.204 80.8517 190.348 81.0411 190.54 81.1754L193.245 83.0617C193.604 83.3111 193.872 83.6634 194.008 84.0679C194.145 84.4724 194.145 84.9081 194.007 85.3124L192.974 88.3641C192.9 88.5815 192.9 88.8155 192.974 89.0328C193.048 89.2501 193.191 89.4395 193.384 89.5738C193.576 89.7081 193.808 89.7804 194.046 89.7804C194.284 89.7804 194.516 89.708 194.709 89.5737L197.414 87.6876C197.772 87.4372 198.204 87.3022 198.647 87.3021Z" fill="#3F3D56"/>
<path d="M166.397 90.644C165.954 90.6423 165.522 90.5052 165.165 90.2525C164.803 90.0058 164.533 89.6536 164.396 89.2481C164.258 88.8427 164.261 88.4056 164.403 88.0016L165.436 84.9499C165.51 84.7326 165.51 84.4984 165.437 84.281C165.363 84.0637 165.219 83.8743 165.026 83.7403L162.321 81.854C161.963 81.6041 161.696 81.2518 161.559 80.8475C161.423 80.4431 161.423 80.0076 161.559 79.6033C161.696 79.199 161.963 78.8466 162.321 78.5968C162.68 78.3469 163.111 78.2123 163.554 78.2124H166.898C167.136 78.2128 167.368 78.1406 167.561 78.0062C167.753 77.8719 167.897 77.6822 167.97 77.4647L169.003 74.4129C169.14 74.0086 169.407 73.6563 169.765 73.4064C170.123 73.1566 170.555 73.022 170.998 73.022C171.441 73.022 171.872 73.1566 172.231 73.4064C172.589 73.6563 172.856 74.0086 172.993 74.4129L174.026 77.4647C174.099 77.6822 174.242 77.8718 174.435 78.0062C174.628 78.1406 174.86 78.2128 175.098 78.2124H178.441C178.884 78.2124 179.316 78.347 179.674 78.5968C180.033 78.8467 180.299 79.1991 180.436 79.6034C180.573 80.0077 180.573 80.4432 180.436 80.8475C180.299 81.2518 180.033 81.6041 179.674 81.854L176.969 83.7403C176.776 83.8743 176.633 84.0636 176.559 84.281C176.486 84.4984 176.486 84.7326 176.56 84.9499L177.593 88.0016C177.73 88.4059 177.73 88.8415 177.593 89.2458C177.456 89.6501 177.189 90.0024 176.831 90.2523C176.473 90.5022 176.041 90.6368 175.598 90.6368C175.155 90.6368 174.724 90.5022 174.365 90.2523L171.66 88.3662C171.468 88.2315 171.236 88.1589 170.998 88.1589C170.76 88.1589 170.528 88.2315 170.335 88.3662L167.63 90.2523C167.273 90.5052 166.841 90.6423 166.397 90.644ZM170.998 87.2274C171.441 87.2274 171.873 87.3624 172.231 87.6129L174.935 89.499C175.128 89.6333 175.36 89.7057 175.598 89.7058C175.836 89.7058 176.068 89.6335 176.261 89.4992C176.453 89.3649 176.597 89.1755 176.67 88.9582C176.744 88.7408 176.744 88.5067 176.67 88.2894L175.637 85.2377C175.499 84.8334 175.499 84.3976 175.636 83.9931C175.773 83.5886 176.04 83.2363 176.399 82.987L179.104 81.1007C179.297 80.9664 179.44 80.777 179.513 80.5597C179.587 80.3424 179.587 80.1083 179.513 79.8911C179.44 79.6738 179.297 79.4844 179.104 79.3501C178.911 79.2158 178.679 79.1435 178.441 79.1435H175.098C174.655 79.1442 174.223 79.01 173.864 78.76C173.506 78.51 173.239 78.1572 173.103 77.7525L172.07 74.7007C171.996 74.4834 171.853 74.294 171.66 74.1597C171.468 74.0254 171.236 73.953 170.998 73.953C170.76 73.953 170.528 74.0254 170.335 74.1597C170.143 74.294 169.999 74.4834 169.926 74.7007L168.892 77.7525C168.756 78.1572 168.49 78.51 168.131 78.76C167.773 79.01 167.341 79.1443 166.898 79.1435H163.554C163.316 79.1434 163.084 79.2158 162.892 79.3501C162.699 79.4844 162.556 79.6737 162.482 79.891C162.409 80.1083 162.409 80.3424 162.482 80.5597C162.556 80.777 162.699 80.9664 162.892 81.1007L165.597 82.987C165.956 83.2364 166.223 83.5887 166.36 83.9932C166.497 84.3976 166.496 84.8334 166.359 85.2377L165.325 88.2894C165.252 88.5067 165.252 88.7408 165.325 88.9581C165.399 89.1754 165.542 89.3648 165.735 89.499C165.927 89.6333 166.159 89.7057 166.397 89.7057C166.635 89.7056 166.867 89.6333 167.06 89.499L169.765 87.6129C170.123 87.3625 170.555 87.2275 170.998 87.2274Z" fill="#3F3D56"/>
<path d="M26.6786 13.9663C25.8424 13.9663 25.0405 14.2851 24.4492 14.8526C23.8579 15.4201 23.5257 16.1898 23.5257 16.9924C23.5257 17.7949 23.8579 18.5646 24.4492 19.1321C25.0405 19.6996 25.8424 20.0184 26.6786 20.0184H186.265C187.102 20.0184 187.904 19.6996 188.495 19.1321C189.086 18.5646 189.418 17.7949 189.418 16.9924C189.418 16.1898 189.086 15.4201 188.495 14.8526C187.904 14.2851 187.102 13.9663 186.265 13.9663H26.6786Z" fill="#CCCCCC"/>
<path d="M26.6786 29.7949C25.8424 29.7949 25.0405 30.1137 24.4492 30.6812C23.8579 31.2487 23.5257 32.0184 23.5257 32.821C23.5257 33.6236 23.8579 34.3932 24.4492 34.9607C25.0405 35.5282 25.8424 35.8471 26.6786 35.8471H186.265C187.102 35.8471 187.904 35.5282 188.495 34.9607C189.086 34.3932 189.418 33.6236 189.418 32.821C189.418 32.0184 189.086 31.2487 188.495 30.6812C187.904 30.1137 187.102 29.7949 186.265 29.7949H26.6786Z" fill="#CCCCCC"/>
<path d="M26.6786 45.624C25.8424 45.624 25.0405 45.9428 24.4492 46.5103C23.8579 47.0778 23.5257 47.8475 23.5257 48.6501C23.5257 49.4527 23.8579 50.2223 24.4492 50.7898C25.0405 51.3573 25.8424 51.6762 26.6786 51.6762H186.265C187.102 51.6762 187.904 51.3573 188.495 50.7898C189.086 50.2223 189.418 49.4527 189.418 48.6501C189.418 47.8475 189.086 47.0778 188.495 46.5103C187.904 45.9428 187.102 45.624 186.265 45.624H26.6786Z" fill="#CCCCCC"/>
<path d="M26.6786 13.9663C25.8424 13.9663 25.0405 14.2851 24.4492 14.8526C23.8579 15.4201 23.5257 16.1898 23.5257 16.9924C23.5257 17.7949 23.8579 18.5646 24.4492 19.1321C25.0405 19.6996 25.8424 20.0184 26.6786 20.0184H186.265C187.102 20.0184 187.904 19.6996 188.495 19.1321C189.086 18.5646 189.418 17.7949 189.418 16.9924C189.418 16.1898 189.086 15.4201 188.495 14.8526C187.904 14.2851 187.102 13.9663 186.265 13.9663H26.6786Z" fill="#CCCCCC"/>
<path d="M26.6786 29.7949C25.8424 29.7949 25.0405 30.1137 24.4492 30.6812C23.8579 31.2487 23.5257 32.0184 23.5257 32.821C23.5257 33.6236 23.8579 34.3932 24.4492 34.9607C25.0405 35.5282 25.8424 35.8471 26.6786 35.8471H186.265C187.102 35.8471 187.904 35.5282 188.495 34.9607C189.086 34.3932 189.418 33.6236 189.418 32.821C189.418 32.0184 189.086 31.2487 188.495 30.6812C187.904 30.1137 187.102 29.7949 186.265 29.7949H26.6786Z" fill="#CCCCCC"/>
<path d="M26.6786 45.624C25.8424 45.624 25.0405 45.9428 24.4492 46.5103C23.8579 47.0778 23.5257 47.8475 23.5257 48.6501C23.5257 49.4527 23.8579 50.2223 24.4492 50.7898C25.0405 51.3573 25.8424 51.6762 26.6786 51.6762H186.265C187.102 51.6762 187.904 51.3573 188.495 50.7898C189.086 50.2223 189.418 49.4527 189.418 48.6501C189.418 47.8475 189.086 47.0778 188.495 46.5103C187.904 45.9428 187.102 45.624 186.265 45.624H26.6786Z" fill="#CCCCCC"/>
</g>
<defs>
<clipPath id="clip0_219_909">
<rect width="389" height="250" fill="white"/>
</clipPath>
</defs>
</svg>
