<svg width="400" height="228" viewBox="0 0 400 228" fill="none" xmlns="http://www.w3.org/2000/svg">
<g clip-path="url(#clip0_231_1391)">
<path d="M390.596 191.433C389.151 179.807 381.946 168.353 370.858 164.569C375.231 176.535 375.23 189.662 370.856 201.628C369.152 206.236 366.777 211.184 368.38 215.829C369.377 218.719 371.816 220.93 374.543 222.313C377.269 223.695 380.296 224.354 383.284 225L383.872 225.486C388.616 214.775 392.042 203.058 390.596 191.433Z" fill="#F0F0F0"/>
<path d="M370.749 164.789C377.205 172.024 381.218 181.109 382.218 190.754C382.47 192.827 382.393 194.926 381.992 196.975C381.536 198.958 380.557 200.783 379.158 202.26C377.88 203.663 376.411 204.951 375.497 206.64C375.042 207.512 374.777 208.47 374.718 209.452C374.659 210.434 374.809 211.416 375.156 212.336C375.963 214.651 377.554 216.537 379.173 218.328C380.971 220.316 382.87 222.353 383.635 224.989C383.727 225.308 384.217 225.146 384.125 224.827C382.795 220.241 378.343 217.636 376.22 213.505C375.229 211.578 374.814 209.34 375.742 207.306C376.554 205.526 378.068 204.197 379.374 202.787C380.76 201.367 381.778 199.628 382.338 197.723C382.842 195.701 382.999 193.608 382.802 191.534C382.432 186.857 381.329 182.267 379.533 177.932C377.511 172.973 374.655 168.397 371.09 164.402C370.869 164.155 370.529 164.544 370.749 164.789Z" fill="white"/>
<path d="M382.079 187.629C383.674 187.242 385.08 186.3 386.045 184.972C387.01 183.644 387.472 182.016 387.348 180.379C387.321 180.047 386.805 180.073 386.832 180.404C386.95 181.929 386.52 183.445 385.619 184.68C384.718 185.915 383.405 186.787 381.917 187.139C381.594 187.216 381.757 187.706 382.079 187.629Z" fill="white"/>
<path d="M379.899 201.634C377.017 199.913 374.89 197.169 373.941 193.95C373.847 193.631 373.357 193.793 373.451 194.112C374.444 197.46 376.664 200.311 379.666 202.095C379.953 202.265 380.183 201.803 379.899 201.634Z" fill="white"/>
<path d="M377.032 173.463C376.446 173.741 375.799 173.87 375.151 173.837C374.503 173.804 373.874 173.611 373.319 173.274C373.035 173.101 372.804 173.563 373.086 173.735C373.701 174.104 374.397 174.317 375.113 174.355C375.829 174.393 376.543 174.255 377.194 173.953C377.257 173.93 377.31 173.883 377.34 173.823C377.371 173.762 377.377 173.692 377.358 173.627C377.336 173.562 377.29 173.509 377.228 173.478C377.167 173.447 377.097 173.442 377.032 173.463Z" fill="white"/>
<path d="M337.063 185.334C337.237 185.448 337.412 185.561 337.586 185.679C339.921 187.214 342.127 188.937 344.183 190.829C344.345 190.973 344.506 191.121 344.663 191.269C349.568 195.882 353.573 201.366 356.477 207.441C357.63 209.86 358.597 212.362 359.37 214.928C360.438 218.47 361.314 222.397 363.427 225.295C363.644 225.599 363.88 225.891 364.133 226.166H383.233C383.277 226.144 383.32 226.127 383.364 226.105L384.126 226.14C384.096 226.005 384.061 225.865 384.03 225.73C384.013 225.652 383.991 225.574 383.974 225.495C383.961 225.443 383.948 225.39 383.939 225.343C383.935 225.325 383.93 225.308 383.926 225.295C383.917 225.247 383.904 225.203 383.895 225.16C383.704 224.38 383.506 223.599 383.303 222.819C383.303 222.815 383.303 222.815 383.299 222.811C381.734 216.871 379.66 211.01 376.762 205.65C376.675 205.489 376.588 205.323 376.492 205.162C375.172 202.753 373.658 200.456 371.964 198.294C371.033 197.113 370.042 195.98 368.996 194.899C366.289 192.112 363.159 189.768 359.723 187.953C352.873 184.336 344.942 182.951 337.621 185.16C337.433 185.217 337.25 185.273 337.063 185.334Z" fill="#F0F0F0"/>
<path d="M337.106 185.577C346.617 187.466 355.291 192.303 361.896 199.403C363.345 200.906 364.548 202.628 365.461 204.506C366.291 206.364 366.608 208.41 366.38 210.432C366.205 212.322 365.807 214.234 366.095 216.134C366.256 217.104 366.621 218.028 367.165 218.848C367.709 219.667 368.42 220.362 369.252 220.887C371.29 222.249 373.695 222.797 376.066 223.252C378.699 223.757 381.442 224.24 383.639 225.884C383.905 226.084 384.199 225.659 383.933 225.46C380.11 222.599 374.987 223.199 370.805 221.179C368.854 220.237 367.174 218.701 366.691 216.517C366.268 214.607 366.677 212.635 366.871 210.723C367.122 208.754 366.888 206.753 366.188 204.895C365.373 202.977 364.239 201.211 362.832 199.674C359.721 196.162 356.076 193.161 352.033 190.782C347.433 188.04 342.398 186.105 337.146 185.062C336.82 184.997 336.783 185.513 337.106 185.577Z" fill="white"/>
<path d="M359.903 196.992C360.944 195.722 361.5 194.123 361.47 192.482C361.441 190.84 360.83 189.262 359.745 188.03C359.524 187.781 359.128 188.112 359.348 188.361C360.361 189.507 360.93 190.977 360.954 192.505C360.978 194.034 360.455 195.521 359.479 196.698C359.267 196.954 359.693 197.246 359.903 196.992Z" fill="white"/>
<path d="M366.595 209.486C363.258 209.847 359.908 208.937 357.212 206.938C356.945 206.739 356.651 207.164 356.918 207.362C359.727 209.437 363.216 210.377 366.687 209.994C367.018 209.957 366.924 209.449 366.595 209.486Z" fill="white"/>
<path d="M347.344 188.719C347.044 189.294 346.606 189.786 346.068 190.15C345.531 190.514 344.912 190.738 344.266 190.804C343.935 190.836 344.03 191.344 344.359 191.312C345.072 191.236 345.755 190.987 346.35 190.586C346.944 190.186 347.431 189.645 347.769 189.013C347.806 188.956 347.819 188.887 347.807 188.82C347.795 188.754 347.758 188.694 347.704 188.654C347.647 188.615 347.578 188.6 347.511 188.612C347.443 188.625 347.384 188.663 347.344 188.719Z" fill="white"/>
<path d="M6.97237 51.4213C10.8231 51.4213 13.9447 48.2997 13.9447 44.4489C13.9447 40.5982 10.8231 37.4766 6.97237 37.4766C3.12163 37.4766 0 40.5982 0 44.4489C0 48.2997 3.12163 51.4213 6.97237 51.4213Z" fill="#E4E4E4"/>
<path d="M356.898 51.4213C360.749 51.4213 363.871 48.2997 363.871 44.4489C363.871 40.5982 360.749 37.4766 356.898 37.4766C353.047 37.4766 349.926 40.5982 349.926 44.4489C349.926 48.2997 353.047 51.4213 356.898 51.4213Z" fill="#E4E4E4"/>
<path d="M359.077 44.0129H285.38V44.8845H359.077V44.0129Z" fill="#E4E4E4"/>
<path d="M265.986 44.0129H197.882V44.8845H265.986V44.0129Z" fill="#E4E4E4"/>
<path d="M178.488 44.0129H109.808V44.8845H178.488V44.0129Z" fill="#E4E4E4"/>
<path d="M90.4967 44.0129H6.97241V44.8845H90.4967V44.0129Z" fill="#E4E4E4"/>
<path d="M102.407 56.4325C100.467 56.4325 98.5718 55.8575 96.9594 54.7801C95.347 53.7027 94.0903 52.1714 93.3482 50.3798C92.6061 48.5882 92.4119 46.6168 92.7902 44.7148C93.1685 42.8128 94.1024 41.0658 95.4736 39.6945C96.8448 38.3233 98.5919 37.3895 100.494 37.0112C102.396 36.6328 104.367 36.827 106.159 37.5691C107.95 38.3112 109.482 39.5679 110.559 41.1803C111.637 42.7927 112.212 44.6884 112.212 46.6276C112.209 49.2272 111.175 51.7194 109.337 53.5575C107.498 55.3957 105.006 56.4296 102.407 56.4325Z" fill="#A55AD9"/>
<path d="M100.228 54.4716C98.2455 54.4716 96.3077 53.8838 94.6595 52.7824C93.0113 51.6811 91.7266 50.1158 90.968 48.2844C90.2094 46.4529 90.0109 44.4377 90.3977 42.4935C90.7844 40.5492 91.739 38.7633 93.1407 37.3616C94.5424 35.9599 96.3283 35.0053 98.2725 34.6186C100.217 34.2319 102.232 34.4304 104.063 35.189C105.895 35.9476 107.46 37.2322 108.561 38.8805C109.663 40.5287 110.251 42.4665 110.251 44.4488C110.248 47.1061 109.191 49.6537 107.312 51.5327C105.433 53.4116 102.885 54.4686 100.228 54.4716ZM100.228 35.2976C98.4179 35.2976 96.6486 35.8343 95.1437 36.8398C93.6388 37.8454 92.4659 39.2746 91.7732 40.9468C91.0806 42.619 90.8994 44.459 91.2525 46.2341C91.6056 48.0093 92.4771 49.6399 93.757 50.9197C95.0368 52.1995 96.6674 53.0711 98.4425 53.4242C100.218 53.7773 102.058 53.5961 103.73 52.9034C105.402 52.2108 106.831 51.0379 107.837 49.533C108.842 48.028 109.379 46.2588 109.379 44.4488C109.376 42.0226 108.411 39.6965 106.696 37.9809C104.98 36.2653 102.654 35.3003 100.228 35.2976Z" fill="#3F3D56"/>
<path d="M100.01 47.4992C99.8366 47.4992 99.6703 47.4303 99.5477 47.3077L95.8437 43.6036C95.7827 43.543 95.7344 43.4709 95.7013 43.3916C95.6683 43.3122 95.6512 43.2271 95.6511 43.1411C95.651 43.0551 95.6679 42.97 95.7007 42.8906C95.7336 42.8111 95.7818 42.7389 95.8426 42.6781C95.9034 42.6174 95.9756 42.5692 96.055 42.5363C96.1345 42.5035 96.2196 42.4866 96.3056 42.4867C96.3916 42.4868 96.4767 42.5039 96.556 42.537C96.6354 42.57 96.7074 42.6184 96.7681 42.6793L100.01 45.9212L106.457 39.4745C106.579 39.3523 106.745 39.2838 106.919 39.2839C107.092 39.2841 107.258 39.3529 107.38 39.4754C107.502 39.5978 107.571 39.7638 107.571 39.9369C107.572 40.11 107.503 40.2761 107.381 40.3988L100.472 47.3077C100.35 47.4303 100.183 47.4992 100.01 47.4992Z" fill="white"/>
<path d="M190.433 56.4325C188.494 56.4325 186.598 55.8575 184.986 54.7801C183.373 53.7027 182.116 52.1714 181.374 50.3798C180.632 48.5882 180.438 46.6168 180.816 44.7148C181.195 42.8128 182.128 41.0658 183.5 39.6945C184.871 38.3233 186.618 37.3895 188.52 37.0112C190.422 36.6328 192.393 36.827 194.185 37.5691C195.977 38.3112 197.508 39.5679 198.585 41.1803C199.663 42.7927 200.238 44.6884 200.238 46.6276C200.235 49.2272 199.201 51.7194 197.363 53.5575C195.525 55.3957 193.032 56.4296 190.433 56.4325Z" fill="#A55AD9"/>
<path d="M188.254 54.4716C186.272 54.4716 184.334 53.8838 182.686 52.7824C181.037 51.6811 179.753 50.1158 178.994 48.2844C178.236 46.4529 178.037 44.4377 178.424 42.4935C178.811 40.5492 179.765 38.7633 181.167 37.3616C182.569 35.9599 184.354 35.0053 186.299 34.6186C188.243 34.2319 190.258 34.4304 192.09 35.189C193.921 35.9476 195.486 37.2322 196.588 38.8805C197.689 40.5287 198.277 42.4665 198.277 44.4488C198.274 47.1061 197.217 49.6537 195.338 51.5327C193.459 53.4116 190.911 54.4686 188.254 54.4716ZM188.254 35.2976C186.444 35.2976 184.675 35.8343 183.17 36.8398C181.665 37.8454 180.492 39.2746 179.799 40.9468C179.107 42.619 178.925 44.459 179.279 46.2341C179.632 48.0093 180.503 49.6399 181.783 50.9197C183.063 52.1995 184.693 53.0711 186.469 53.4242C188.244 53.7773 190.084 53.5961 191.756 52.9034C193.428 52.2108 194.857 51.0379 195.863 49.533C196.869 48.028 197.405 46.2588 197.405 44.4488C197.402 42.0226 196.437 39.6965 194.722 37.9809C193.006 36.2653 190.68 35.3003 188.254 35.2976Z" fill="#3F3D56"/>
<path d="M188.036 47.4993C187.863 47.4993 187.696 47.4304 187.574 47.3078L183.87 43.6038C183.809 43.5431 183.761 43.471 183.727 43.3917C183.694 43.3123 183.677 43.2272 183.677 43.1412C183.677 43.0553 183.694 42.9701 183.727 42.8907C183.76 42.8112 183.808 42.739 183.869 42.6783C183.93 42.6175 184.002 42.5693 184.081 42.5364C184.161 42.5036 184.246 42.4867 184.332 42.4868C184.418 42.4869 184.503 42.504 184.582 42.5371C184.662 42.5701 184.734 42.6185 184.794 42.6794L188.036 45.9214L194.483 39.4746C194.543 39.4137 194.615 39.3654 194.695 39.3323C194.774 39.2993 194.859 39.2823 194.945 39.2822C195.031 39.2821 195.116 39.299 195.196 39.3319C195.275 39.3647 195.347 39.4129 195.408 39.4737C195.469 39.5344 195.517 39.6066 195.55 39.686C195.583 39.7654 195.6 39.8505 195.599 39.9365C195.599 40.0224 195.582 40.1075 195.549 40.1868C195.516 40.2662 195.468 40.3382 195.407 40.3989L188.498 47.3078C188.376 47.4304 188.209 47.4993 188.036 47.4993Z" fill="white"/>
<path d="M278.023 56.4325C276.084 56.4325 274.188 55.8575 272.576 54.7801C270.963 53.7027 269.707 52.1714 268.965 50.3798C268.223 48.5882 268.028 46.6168 268.407 44.7148C268.785 42.8128 269.719 41.0658 271.09 39.6945C272.461 38.3233 274.208 37.3895 276.11 37.0112C278.012 36.6328 279.984 36.827 281.775 37.5691C283.567 38.3112 285.098 39.5679 286.176 41.1803C287.253 42.7927 287.828 44.6884 287.828 46.6276C287.825 49.2272 286.791 51.7194 284.953 53.5575C283.115 55.3957 280.623 56.4296 278.023 56.4325Z" fill="#F0F0F0"/>
<path d="M275.844 54.4716C273.862 54.4716 271.924 53.8838 270.276 52.7824C268.628 51.6811 267.343 50.1158 266.584 48.2844C265.826 46.4529 265.627 44.4377 266.014 42.4935C266.401 40.5492 267.355 38.7633 268.757 37.3616C270.159 35.9599 271.945 35.0053 273.889 34.6186C275.833 34.2319 277.848 34.4304 279.68 35.189C281.511 35.9476 283.077 37.2322 284.178 38.8805C285.279 40.5287 285.867 42.4665 285.867 44.4488C285.864 47.1061 284.807 49.6537 282.928 51.5327C281.049 53.4116 278.502 54.4686 275.844 54.4716ZM275.844 35.2976C274.034 35.2976 272.265 35.8343 270.76 36.8398C269.255 37.8454 268.082 39.2746 267.39 40.9468C266.697 42.619 266.516 44.459 266.869 46.2341C267.222 48.0093 268.094 49.6399 269.373 50.9197C270.653 52.1995 272.284 53.0711 274.059 53.4242C275.834 53.7773 277.674 53.5961 279.346 52.9034C281.018 52.2108 282.448 51.0379 283.453 49.533C284.459 48.028 284.996 46.2588 284.996 44.4488C284.993 42.0226 284.028 39.6965 282.312 37.9809C280.597 36.2653 278.271 35.3003 275.844 35.2976Z" fill="#CACACA"/>
<path d="M269.555 95.2233C267.615 95.2233 265.72 94.6483 264.107 93.5709C262.495 92.4935 261.238 90.9622 260.496 89.1706C259.754 87.379 259.56 85.4075 259.938 83.5056C260.316 81.6036 261.25 79.8565 262.622 78.4853C263.993 77.1141 265.74 76.1803 267.642 75.8019C269.544 75.4236 271.515 75.6178 273.307 76.3599C275.098 77.102 276.63 78.3587 277.707 79.9711C278.784 81.5835 279.36 83.4792 279.36 85.4184C279.357 88.0179 278.323 90.5102 276.485 92.3483C274.646 94.1864 272.154 95.2204 269.555 95.2233Z" fill="#A55AD9"/>
<path d="M268.901 88.4687C268.728 88.4687 268.561 88.3998 268.439 88.2772L264.735 84.5732C264.612 84.4506 264.543 84.2843 264.543 84.111C264.543 83.9376 264.612 83.7714 264.735 83.6488C264.857 83.5262 265.024 83.4574 265.197 83.4574C265.37 83.4574 265.536 83.5263 265.659 83.6488L268.901 86.8907L275.348 80.4439C275.47 80.3218 275.636 80.2532 275.809 80.2534C275.983 80.2536 276.149 80.3224 276.271 80.4449C276.393 80.5673 276.462 80.7333 276.462 80.9064C276.463 81.0795 276.394 81.2456 276.272 81.3683L269.363 88.2772C269.241 88.3998 269.074 88.4687 268.901 88.4687Z" fill="white"/>
<path d="M291.449 221.666L286.169 220.85L286.806 200.097L294.598 201.302L291.449 221.666Z" fill="#9E616A"/>
<path d="M292.004 226.992L274.98 224.36L275.013 224.145C275.285 222.387 276.244 220.81 277.679 219.759C279.113 218.709 280.907 218.271 282.664 218.543L293.062 220.151L292.004 226.992Z" fill="#2F2E41"/>
<path d="M346.939 221.144L341.601 221.371L338.184 200.891L346.062 200.555L346.939 221.144Z" fill="#9E616A"/>
<path d="M348.521 226.259L331.31 226.993L331.301 226.775C331.225 224.998 331.858 223.264 333.061 221.955C334.263 220.645 335.937 219.866 337.714 219.791L348.226 219.343L348.521 226.259Z" fill="#2F2E41"/>
<path d="M336.43 99.0487C336.682 98.9779 336.94 98.9298 337.2 98.9052L333.873 71.6691L322.582 47.7591C321.872 46.255 321.758 44.5375 322.265 42.953C322.771 41.3686 323.859 40.035 325.31 39.2213C326.76 38.4076 328.466 38.1744 330.082 38.5686C331.698 38.9628 333.104 39.9552 334.017 41.3456C336.976 45.851 339.215 50.7905 340.652 55.9857L345.395 73.1363L341.927 102.548C342.06 103.377 341.95 104.227 341.612 104.995C341.273 105.763 340.72 106.417 340.018 106.878C339.317 107.34 338.497 107.588 337.657 107.594C336.818 107.6 335.994 107.364 335.286 106.913C334.578 106.462 334.015 105.816 333.665 105.053C333.315 104.29 333.193 103.442 333.314 102.611C333.435 101.78 333.793 101.002 334.346 100.37C334.899 99.7378 335.623 99.2791 336.43 99.0487Z" fill="#9E616A"/>
<path d="M319.922 47.7084C319.106 45.4886 319.19 43.0377 320.156 40.8789C321.122 38.7201 322.894 37.0243 325.093 36.1535C327.292 35.2826 329.744 35.3057 331.926 36.2177C334.108 37.1297 335.847 38.8584 336.773 41.035L343.839 57.6561L329.575 73.9743L319.922 47.7084Z" fill="#2F2E41"/>
<path d="M308.963 50.5496L318.55 34.426C325.172 30.096 330.621 32.9272 333.526 40.2872C336.056 46.7 338.021 54.813 336.852 63.187C334.235 81.9451 332.059 84.1041 332.059 84.1041C332.059 84.1041 348.4 102.189 344.914 125.285L347.529 212.439L339.685 212.003L328.791 161.89L320.511 130.514L306.13 168.862L293.493 213.311L284.778 211.568L290.007 162.325L297.415 105.675L305.913 84.1041L301.773 69.0699C301.773 69.0699 296.979 58.6114 308.963 50.5496Z" fill="#2F2E41"/>
<path d="M277.105 73.5775C277.281 73.7713 277.439 73.9804 277.578 74.2025L300.457 59.0563L316.803 38.2724C317.831 36.9649 319.317 36.096 320.961 35.8409C322.605 35.5859 324.284 35.9636 325.66 36.8979C327.036 37.8322 328.007 39.2536 328.376 40.8755C328.745 42.4973 328.486 44.1988 327.65 45.6369C324.942 50.2973 321.523 54.5068 317.517 58.1137L304.293 70.0203L276.431 80.0585C275.749 80.5479 274.939 80.8297 274.101 80.8701C273.262 80.9105 272.43 80.7077 271.704 80.286C270.978 79.8644 270.389 79.242 270.008 78.4937C269.628 77.7453 269.471 76.9029 269.558 76.0678C269.645 75.2327 269.972 74.4405 270.498 73.7866C271.025 73.1326 271.729 72.6447 272.526 72.3816C273.324 72.1185 274.18 72.0914 274.992 72.3036C275.805 72.5157 276.538 72.9582 277.105 73.5775Z" fill="#9E616A"/>
<path d="M315.66 35.87C317.281 34.1482 319.511 33.1283 321.874 33.0279C324.237 32.9276 326.546 33.7547 328.307 35.3328C330.069 36.9109 331.144 39.115 331.303 41.4748C331.462 43.8345 330.693 46.163 329.159 47.9632L317.447 61.7117L296.474 56.2414L315.66 35.87Z" fill="#2F2E41"/>
<path d="M323.444 27.1065C329.722 23.6746 332.029 15.8032 328.597 9.52513C325.166 3.2471 317.294 0.939842 311.016 4.37172C304.738 7.8036 302.431 15.675 305.863 21.9531C309.295 28.2311 317.166 30.5384 323.444 27.1065Z" fill="#9E616A"/>
<path d="M315.064 2.53752e-10H323.432C328.919 2.53752e-10 333.366 5.00351 333.366 11.1757L332.979 26.1464C327.051 26.8838 321.253 28.4346 315.748 30.755L314.967 27.4194L313.426 31.8123C312.056 32.4762 310.697 33.2022 309.35 33.9903C310.922 26.6034 311.569 19.2338 310.49 13.509H307.656V10.4071L306.693 13.509H301.555C301.555 11.7349 301.904 9.97826 302.583 8.33928C303.262 6.70029 304.257 5.21107 305.511 3.95665C306.766 2.70223 308.255 1.70717 309.894 1.02828C311.533 0.349401 313.29 -1.08729e-05 315.064 2.53752e-10Z" fill="#2F2E41"/>
<path d="M399.564 227.038H233.535C233.419 227.038 233.308 226.992 233.227 226.91C233.145 226.828 233.099 226.717 233.099 226.602C233.099 226.486 233.145 226.375 233.227 226.294C233.308 226.212 233.419 226.166 233.535 226.166H399.564C399.68 226.166 399.791 226.212 399.872 226.294C399.954 226.375 400 226.486 400 226.602C400 226.717 399.954 226.828 399.872 226.91C399.791 226.992 399.68 227.038 399.564 227.038Z" fill="#CACACA"/>
<path d="M100.228 103.714C100.112 103.714 100.001 103.668 99.9196 103.586C99.8379 103.505 99.792 103.394 99.792 103.278V54.4717C99.792 54.3561 99.8379 54.2453 99.9196 54.1635C100.001 54.0818 100.112 54.0359 100.228 54.0359C100.343 54.0359 100.454 54.0818 100.536 54.1635C100.618 54.2453 100.664 54.3561 100.664 54.4717V103.278C100.664 103.394 100.618 103.505 100.536 103.586C100.454 103.668 100.343 103.714 100.228 103.714Z" fill="#3F3D56"/>
<path d="M69.4899 111.288C68.7565 111.288 68.0531 111.579 67.5345 112.098C67.016 112.616 66.7246 113.319 66.7246 114.053C66.7246 114.786 67.016 115.49 67.5345 116.008C68.0531 116.527 68.7565 116.818 69.4899 116.818H130.977C131.71 116.817 132.412 116.525 132.929 116.006C133.447 115.488 133.738 114.785 133.738 114.053C133.738 113.32 133.447 112.618 132.929 112.099C132.412 111.581 131.71 111.289 130.977 111.288H69.4899Z" fill="#E4E4E4"/>
<path d="M85.9769 124.393C85.6138 124.392 85.254 124.463 84.9182 124.601C84.5825 124.74 84.2772 124.943 84.0199 125.199C83.7625 125.455 83.5582 125.76 83.4185 126.095C83.2789 126.43 83.2066 126.789 83.2058 127.153C83.2051 127.516 83.2758 127.875 83.4141 128.211C83.5523 128.547 83.7554 128.852 84.0116 129.11C84.2679 129.367 84.5723 129.571 84.9075 129.711C85.2427 129.851 85.6021 129.923 85.9653 129.924H114.49C115.224 129.924 115.927 129.632 116.446 129.114C116.964 128.595 117.255 127.892 117.255 127.158C117.255 126.425 116.964 125.722 116.446 125.203C115.927 124.684 115.224 124.393 114.49 124.393H85.9769Z" fill="#E4E4E4"/>
<path d="M158.823 111.288C158.09 111.288 157.387 111.579 156.868 112.098C156.349 112.616 156.058 113.319 156.058 114.053C156.058 114.786 156.349 115.49 156.868 116.008C157.387 116.527 158.09 116.818 158.823 116.818H220.311C221.043 116.817 221.745 116.525 222.263 116.006C222.78 115.488 223.071 114.785 223.071 114.053C223.071 113.32 222.78 112.618 222.263 112.099C221.745 111.581 221.043 111.289 220.311 111.288H158.823Z" fill="#E4E4E4"/>
<path d="M175.31 124.393C174.947 124.392 174.588 124.463 174.252 124.601C173.916 124.74 173.611 124.943 173.353 125.199C173.096 125.455 172.892 125.76 172.752 126.095C172.612 126.43 172.54 126.789 172.539 127.153C172.539 127.516 172.609 127.875 172.748 128.211C172.886 128.547 173.089 128.852 173.345 129.11C173.601 129.367 173.906 129.571 174.241 129.711C174.576 129.851 174.936 129.923 175.299 129.924H203.824C204.557 129.924 205.26 129.632 205.779 129.114C206.298 128.595 206.589 127.892 206.589 127.158C206.589 126.425 206.298 125.722 205.779 125.203C205.26 124.684 204.557 124.393 203.824 124.393H175.31Z" fill="#E4E4E4"/>
<path d="M189.561 103.714C189.446 103.714 189.335 103.668 189.253 103.586C189.171 103.505 189.125 103.394 189.125 103.278V54.4717C189.125 54.3561 189.171 54.2453 189.253 54.1635C189.335 54.0818 189.446 54.0359 189.561 54.0359C189.677 54.0359 189.788 54.0818 189.869 54.1635C189.951 54.2453 189.997 54.3561 189.997 54.4717V103.278C189.997 103.394 189.951 103.505 189.869 103.586C189.788 103.668 189.677 103.714 189.561 103.714Z" fill="#3F3D56"/>
</g>
<defs>
<clipPath id="clip0_231_1391">
<rect width="400" height="227.038" fill="white"/>
</clipPath>
</defs>
</svg>
