<svg width="40" height="40" viewBox="0 0 40 40" fill="none" xmlns="http://www.w3.org/2000/svg">
<path d="M3.33334 34.9999C4.33334 35.8333 5.33334 36.6666 7.50001 36.6666C11.6667 36.6666 11.6667 33.3333 15.8333 33.3333C18 33.3333 19 34.1666 20 34.9999C21 35.8333 22 36.6666 24.1667 36.6666C28.3333 36.6666 28.3333 33.3333 32.5 33.3333C34.6667 33.3333 35.6667 34.1666 36.6667 34.9999" stroke="#A55AD9" stroke-width="3" stroke-linecap="round" stroke-linejoin="round"/>
<path d="M32.3 33.3334C34.0928 30.3077 35.0263 26.8503 35 23.3334L20 16.6667L5 23.3334C5 28.1667 6.56667 32.2334 9.68333 36.2667" stroke="#A55AD9" stroke-width="3" stroke-linecap="round" stroke-linejoin="round"/>
<path d="M31.6667 21.6666V11.6666C31.6667 10.7825 31.3155 9.93468 30.6904 9.30956C30.0652 8.68444 29.2174 8.33325 28.3333 8.33325H11.6667C10.7826 8.33325 9.93478 8.68444 9.30965 9.30956C8.68453 9.93468 8.33334 10.7825 8.33334 11.6666V21.6666" stroke="#A55AD9" stroke-width="3" stroke-linecap="round" stroke-linejoin="round"/>
<path d="M20 16.6667V23.3334" stroke="#A55AD9" stroke-width="3" stroke-linecap="round" stroke-linejoin="round"/>
<path d="M20 3.33325V8.33325" stroke="#A55AD9" stroke-width="3" stroke-linecap="round" stroke-linejoin="round"/>
</svg>
